<?xml version="1.0" encoding="UTF-8" standalone="no"?>
<svg
   xmlns:dc="http://purl.org/dc/elements/1.1/"
   xmlns:cc="http://creativecommons.org/ns#"
   xmlns:rdf="http://www.w3.org/1999/02/22-rdf-syntax-ns#"
   xmlns:svg="http://www.w3.org/2000/svg"
   xmlns="http://www.w3.org/2000/svg"
   xmlns:sodipodi="http://sodipodi.sourceforge.net/DTD/sodipodi-0.dtd"
   xmlns:inkscape="http://www.inkscape.org/namespaces/inkscape"
   version="1.0"
   width="222.85001mm"
   height="82.139999mm"
   id="svg135"
   sodipodi:docname="restwelligkeit_real.svg"
   inkscape:version="1.0.1 (3bc2e813f5, 2020-09-07)">
  <metadata
     id="metadata139">
    <rdf:RDF>
      <cc:Work
         rdf:about="">
        <dc:format>image/svg+xml</dc:format>
        <dc:type
           rdf:resource="http://purl.org/dc/dcmitype/StillImage" />
        <dc:title></dc:title>
      </cc:Work>
    </rdf:RDF>
  </metadata>
  <sodipodi:namedview
     pagecolor="#ffffff"
     bordercolor="#666666"
     borderopacity="1"
     objecttolerance="10"
     gridtolerance="10"
     guidetolerance="10"
     inkscape:pageopacity="0"
     inkscape:pageshadow="2"
     inkscape:window-width="2560"
     inkscape:window-height="1361"
     id="namedview137"
     showgrid="false"
     inkscape:zoom="1.8620716"
     inkscape:cx="384.27794"
     inkscape:cy="162.24151"
     inkscape:window-x="-9"
     inkscape:window-y="-9"
     inkscape:window-maximized="1"
     inkscape:current-layer="layer2"
     showguides="true"
     inkscape:guide-bbox="true" />
  <defs
     id="defs3">
    <marker
       style="overflow:visible;"
       id="Arrow1Lend"
       refX="0.0"
       refY="0.0"
       orient="auto"
       inkscape:stockid="Arrow1Lend"
       inkscape:isstock="true">
      <path
         transform="scale(0.8) rotate(180) translate(12.5,0)"
         style="fill-rule:evenodd;stroke:#000000;stroke-width:1pt;stroke-opacity:1;fill:#000000;fill-opacity:1"
         d="M 0.0,0.0 L 5.0,-5.0 L -12.5,0.0 L 5.0,5.0 L 0.0,0.0 z "
         id="path1175" />
    </marker>
    <marker
       style="overflow:visible"
       id="marker1510"
       refX="0.0"
       refY="0.0"
       orient="auto"
       inkscape:stockid="Arrow1Lstart"
       inkscape:isstock="true">
      <path
         transform="scale(0.8) translate(12.5,0)"
         style="fill-rule:evenodd;stroke:#000000;stroke-width:1pt;stroke-opacity:1;fill:#000000;fill-opacity:1"
         d="M 0.0,0.0 L 5.0,-5.0 L -12.5,0.0 L 5.0,5.0 L 0.0,0.0 z "
         id="path1508" />
    </marker>
    <pattern
       id="EMFhbasepattern"
       patternUnits="userSpaceOnUse"
       width="6"
       height="6"
       x="0"
       y="0" />
    <marker
       style="overflow:visible"
       id="Arrow1Lstart"
       refX="0"
       refY="0"
       orient="auto"
       inkscape:stockid="Arrow1Lstart"
       inkscape:isstock="true"
       inkscape:collect="always">
      <path
         transform="matrix(0.8,0,0,0.8,10,0)"
         style="fill:#000000;fill-opacity:1;fill-rule:evenodd;stroke:#000000;stroke-width:1pt;stroke-opacity:1"
         d="M 0,0 5,-5 -12.5,0 5,5 Z"
         id="path1172" />
    </marker>
    <marker
       style="overflow:visible"
       id="marker1462"
       refX="0"
       refY="0"
       orient="auto"
       inkscape:stockid="Arrow1Lstart"
       inkscape:isstock="true"
       inkscape:collect="always">
      <path
         transform="matrix(0.8,0,0,0.8,10,0)"
         style="fill:#000000;fill-opacity:1;fill-rule:evenodd;stroke:#000000;stroke-width:1pt;stroke-opacity:1"
         d="M 0,0 5,-5 -12.5,0 5,5 Z"
         id="path1460" />
    </marker>
    <marker
       style="overflow:visible"
       id="marker1510-4"
       refX="0"
       refY="0"
       orient="auto"
       inkscape:stockid="Arrow1Lstart"
       inkscape:isstock="true">
      <path
         transform="matrix(0.8,0,0,0.8,10,0)"
         style="fill:#000000;fill-opacity:1;fill-rule:evenodd;stroke:#000000;stroke-width:1pt;stroke-opacity:1"
         d="M 0,0 5,-5 -12.5,0 5,5 Z"
         id="path1508-6" />
    </marker>
    <marker
       style="overflow:visible"
       id="Arrow1Lend-1"
       refX="0"
       refY="0"
       orient="auto"
       inkscape:stockid="Arrow1Lend"
       inkscape:isstock="true">
      <path
         transform="matrix(-0.8,0,0,-0.8,-10,0)"
         style="fill:#000000;fill-opacity:1;fill-rule:evenodd;stroke:#000000;stroke-width:1pt;stroke-opacity:1"
         d="M 0,0 5,-5 -12.5,0 5,5 Z"
         id="path1175-2" />
    </marker>
  </defs>
  <g
     inkscape:groupmode="layer"
     id="layer3"
     inkscape:label="graph"
     style="display:inline">
    <g
       id="g1823"
       transform="translate(1.9278516,-1.491136)">
      <path
         style="fill:none;stroke:#000000;stroke-width:0.88252px;stroke-linecap:round;stroke-linejoin:round;stroke-miterlimit:4;stroke-dasharray:none;stroke-opacity:1"
         d="m 59.128819,284.17134 v 7.94268"
         id="path5" />
      <g
         aria-label="400µs"
         transform="translate(79.426772,292.11402)"
         id="text11"
         style="font-style:normal;font-variant:normal;font-weight:700;font-size:15px;line-height:125%;font-family:Arial;text-align:start;letter-spacing:0px;word-spacing:0px;text-anchor:start;fill:#000000;fill-opacity:1;stroke:none">
        <path
           d="m -37.338867,13.579102 v -2.160645 h -4.394531 V 9.6166992 l 4.658203,-6.8188476 h 1.728515 V 9.609375 h 1.333008 v 1.809082 h -1.333008 v 2.160645 z m 0,-3.969727 V 5.9399414 l -2.468262,3.6694336 z"
           style="font-style:normal;font-variant:normal;font-weight:700;font-size:15px;font-family:Arial;fill:#000000"
           id="path977" />
        <path
           d="m -29.553223,2.7978516 q 1.560059,0 2.438965,1.1132812 1.047363,1.3183594 1.047363,4.3725586 0,3.0468746 -1.054687,4.3798826 -0.871582,1.098633 -2.431641,1.098633 -1.567382,0 -2.526855,-1.201172 -0.959473,-1.208496 -0.959473,-4.2993162 0,-3.0322266 1.054688,-4.3652344 0.871582,-1.0986328 2.43164,-1.0986328 z m 0,1.7065429 q -0.373535,0 -0.666504,0.2416992 -0.292968,0.234375 -0.454101,0.8496094 -0.212402,0.7983399 -0.212402,2.6879883 0,1.8896486 0.190429,2.6000976 0.19043,0.703125 0.476074,0.9375 0.292969,0.234375 0.666504,0.234375 0.373536,0 0.666504,-0.234375 0.292969,-0.241699 0.454102,-0.856934 0.212402,-0.791015 0.212402,-2.6806636 0,-1.8896484 -0.19043,-2.5927734 -0.190429,-0.7104493 -0.483398,-0.9448243 -0.285644,-0.2416992 -0.65918,-0.2416992 z"
           style="font-style:normal;font-variant:normal;font-weight:700;font-size:15px;font-family:Arial;fill:#000000"
           id="path979" />
        <path
           d="m -21.210937,2.7978516 q 1.560058,0 2.438964,1.1132812 1.047364,1.3183594 1.047364,4.3725586 0,3.0468746 -1.054688,4.3798826 -0.871582,1.098633 -2.43164,1.098633 -1.567383,0 -2.526856,-1.201172 -0.959473,-1.208496 -0.959473,-4.2993162 0,-3.0322266 1.054688,-4.3652344 0.871582,-1.0986328 2.431641,-1.0986328 z m 0,1.7065429 q -0.373536,0 -0.666504,0.2416992 -0.292969,0.234375 -0.454102,0.8496094 -0.212402,0.7983399 -0.212402,2.6879883 0,1.8896486 0.190429,2.6000976 0.19043,0.703125 0.476075,0.9375 0.292968,0.234375 0.666504,0.234375 0.373535,0 0.666503,-0.234375 0.292969,-0.241699 0.454102,-0.856934 0.212402,-0.791015 0.212402,-2.6806636 0,-1.8896484 -0.190429,-2.5927734 -0.19043,-0.7104493 -0.483399,-0.9448243 -0.285644,-0.2416992 -0.659179,-0.2416992 z"
           style="font-style:normal;font-variant:normal;font-weight:700;font-size:15px;font-family:Arial;fill:#000000"
           id="path981" />
        <path
           d="m -16.171875,5.8007812 h 2.043457 v 3.5229493 q 0,1.5234375 0.307617,2.0727535 0.388184,0.71045 1.149903,0.71045 0.410156,0 0.776367,-0.263672 0.366211,-0.263672 0.541992,-0.732422 0.175781,-0.46875 0.175781,-1.7651369 V 5.8007812 h 2.0800783 v 7.7783208 h -1.9189453 v -0.9375 q -0.219727,0.410156 -0.41748,0.615234 -0.197754,0.205078 -0.534668,0.358887 -0.32959,0.153808 -0.607911,0.153808 -0.520019,0 -0.922851,-0.285644 -0.285645,-0.212403 -0.629883,-0.842285 v 3.918457 h -2.043457 z"
           style="font-style:normal;font-variant:normal;font-weight:700;font-size:15px;font-family:Arial;fill:#000000"
           id="path983" />
        <path
           d="m -7.9907227,11.359863 2.0654297,-0.314941 q 0.131836,0.600586 0.534668,0.915527 0.402832,0.307617 1.1279297,0.307617 0.7983398,0 1.2011719,-0.292968 0.2709961,-0.205078 0.2709961,-0.549317 0,-0.234375 -0.1464844,-0.388183 -0.1538086,-0.146485 -0.6884766,-0.270996 -2.4902344,-0.549317 -3.1567383,-1.0034184 -0.9228515,-0.6298828 -0.9228515,-1.7504883 0,-1.0107422 0.7983398,-1.6992187 Q -6.1083984,5.625 -4.4311523,5.625 q 1.5966796,0 2.3730468,0.5200195 0.7763672,0.5200196 1.06933597,1.538086 L -2.9296875,8.0419922 Q -3.0541992,7.5878906 -3.4057617,7.3461914 -3.75,7.1044922 -4.3945312,7.1044922 q -0.8129883,0 -1.1645508,0.2270508 -0.234375,0.1611328 -0.234375,0.4174804 0,0.2197266 0.2050781,0.3735352 0.2783203,0.2050781 1.9189453,0.5786133 1.6479492,0.3735351 2.2998047,0.9155273 0.64453124,0.5493168 0.64453124,1.5307618 0,1.069336 -0.89355464,1.838379 -0.8935547,0.769043 -2.644043,0.769043 -1.5893555,0 -2.5195313,-0.644531 -0.9228515,-0.644532 -1.2084961,-1.750489 z"
           style="font-style:normal;font-variant:normal;font-weight:700;font-size:15px;font-family:Arial;fill:#000000"
           id="path985" />
      </g>
      <path
         style="fill:none;stroke:#000000;stroke-width:0.88252px;stroke-linecap:round;stroke-linejoin:round;stroke-miterlimit:4;stroke-dasharray:none;stroke-opacity:1"
         d="m 167.67874,284.17134 v 7.94268"
         id="path13" />
      <g
         aria-label="450µs"
         transform="translate(187.97669,292.11402)"
         id="text19"
         style="font-style:normal;font-variant:normal;font-weight:700;font-size:15px;line-height:125%;font-family:Arial;text-align:start;letter-spacing:0px;word-spacing:0px;text-anchor:start;fill:#000000;fill-opacity:1;stroke:none">
        <path
           d="m -37.338867,13.579102 v -2.160645 h -4.394531 V 9.6166992 l 4.658203,-6.8188476 h 1.728515 V 9.609375 h 1.333008 v 1.809082 h -1.333008 v 2.160645 z m 0,-3.969727 V 5.9399414 l -2.468262,3.6694336 z"
           style="font-style:normal;font-variant:normal;font-weight:700;font-size:15px;font-family:Arial;fill:#000000"
           id="path988" />
        <path
           d="m -33.00293,10.817871 2.050782,-0.212402 q 0.08789,0.695801 0.520019,1.105957 0.432129,0.402832 0.996094,0.402832 0.644531,0 1.091308,-0.52002 0.446778,-0.527343 0.446778,-1.582031 0,-0.9887695 -0.446778,-1.4794922 -0.439453,-0.4980468 -1.149902,-0.4980468 -0.88623,0 -1.589355,0.7836914 l -1.669922,-0.2416992 1.054687,-5.5883789 h 5.441895 v 1.9262695 h -3.881836 l -0.322266,1.8237304 q 0.688477,-0.3442382 1.40625,-0.3442382 1.369629,0 2.321778,0.9960937 0.952148,0.9960938 0.952148,2.5854492 0,1.3256841 -0.769043,2.3657231 -1.047363,1.420898 -2.907715,1.420898 -1.486816,0 -2.424316,-0.79834 -0.9375,-0.79834 -1.120606,-2.145996 z"
           style="font-style:normal;font-variant:normal;font-weight:700;font-size:15px;font-family:Arial;fill:#000000"
           id="path990" />
        <path
           d="m -21.210937,2.7978516 q 1.560058,0 2.438964,1.1132812 1.047364,1.3183594 1.047364,4.3725586 0,3.0468746 -1.054688,4.3798826 -0.871582,1.098633 -2.43164,1.098633 -1.567383,0 -2.526856,-1.201172 -0.959473,-1.208496 -0.959473,-4.2993162 0,-3.0322266 1.054688,-4.3652344 0.871582,-1.0986328 2.431641,-1.0986328 z m 0,1.7065429 q -0.373536,0 -0.666504,0.2416992 -0.292969,0.234375 -0.454102,0.8496094 -0.212402,0.7983399 -0.212402,2.6879883 0,1.8896486 0.190429,2.6000976 0.19043,0.703125 0.476075,0.9375 0.292968,0.234375 0.666504,0.234375 0.373535,0 0.666503,-0.234375 0.292969,-0.241699 0.454102,-0.856934 0.212402,-0.791015 0.212402,-2.6806636 0,-1.8896484 -0.190429,-2.5927734 -0.19043,-0.7104493 -0.483399,-0.9448243 -0.285644,-0.2416992 -0.659179,-0.2416992 z"
           style="font-style:normal;font-variant:normal;font-weight:700;font-size:15px;font-family:Arial;fill:#000000"
           id="path992" />
        <path
           d="m -16.171875,5.8007812 h 2.043457 v 3.5229493 q 0,1.5234375 0.307617,2.0727535 0.388184,0.71045 1.149903,0.71045 0.410156,0 0.776367,-0.263672 0.366211,-0.263672 0.541992,-0.732422 0.175781,-0.46875 0.175781,-1.7651369 V 5.8007812 h 2.0800783 v 7.7783208 h -1.9189453 v -0.9375 q -0.219727,0.410156 -0.41748,0.615234 -0.197754,0.205078 -0.534668,0.358887 -0.32959,0.153808 -0.607911,0.153808 -0.520019,0 -0.922851,-0.285644 -0.285645,-0.212403 -0.629883,-0.842285 v 3.918457 h -2.043457 z"
           style="font-style:normal;font-variant:normal;font-weight:700;font-size:15px;font-family:Arial;fill:#000000"
           id="path994" />
        <path
           d="m -7.9907227,11.359863 2.0654297,-0.314941 q 0.131836,0.600586 0.534668,0.915527 0.402832,0.307617 1.1279297,0.307617 0.7983398,0 1.2011719,-0.292968 0.2709961,-0.205078 0.2709961,-0.549317 0,-0.234375 -0.1464844,-0.388183 -0.1538086,-0.146485 -0.6884766,-0.270996 -2.4902344,-0.549317 -3.1567383,-1.0034184 -0.9228515,-0.6298828 -0.9228515,-1.7504883 0,-1.0107422 0.7983398,-1.6992187 Q -6.1083984,5.625 -4.4311523,5.625 q 1.5966796,0 2.3730468,0.5200195 0.7763672,0.5200196 1.06933597,1.538086 L -2.9296875,8.0419922 Q -3.0541992,7.5878906 -3.4057617,7.3461914 -3.75,7.1044922 -4.3945312,7.1044922 q -0.8129883,0 -1.1645508,0.2270508 -0.234375,0.1611328 -0.234375,0.4174804 0,0.2197266 0.2050781,0.3735352 0.2783203,0.2050781 1.9189453,0.5786133 1.6479492,0.3735351 2.2998047,0.9155273 0.64453124,0.5493168 0.64453124,1.5307618 0,1.069336 -0.89355464,1.838379 -0.8935547,0.769043 -2.644043,0.769043 -1.5893555,0 -2.5195313,-0.644531 -0.9228515,-0.644532 -1.2084961,-1.750489 z"
           style="font-style:normal;font-variant:normal;font-weight:700;font-size:15px;font-family:Arial;fill:#000000"
           id="path996" />
      </g>
      <path
         style="fill:none;stroke:#000000;stroke-width:0.88252px;stroke-linecap:round;stroke-linejoin:round;stroke-miterlimit:4;stroke-dasharray:none;stroke-opacity:1"
         d="m 277.11118,284.17134 v 7.94268"
         id="path21" />
      <g
         aria-label="500µs"
         transform="translate(297.40913,292.11402)"
         id="text27"
         style="font-style:normal;font-variant:normal;font-weight:700;font-size:15px;line-height:125%;font-family:Arial;text-align:start;letter-spacing:0px;word-spacing:0px;text-anchor:start;fill:#000000;fill-opacity:1;stroke:none">
        <path
           d="m -41.345215,10.817871 2.050781,-0.212402 q 0.08789,0.695801 0.52002,1.105957 0.432129,0.402832 0.996094,0.402832 0.644531,0 1.091308,-0.52002 0.446778,-0.527343 0.446778,-1.582031 0,-0.9887695 -0.446778,-1.4794922 -0.439453,-0.4980468 -1.149902,-0.4980468 -0.886231,0 -1.589356,0.7836914 l -1.669921,-0.2416992 1.054687,-5.5883789 h 5.441895 v 1.9262695 h -3.881836 l -0.322266,1.8237304 q 0.688477,-0.3442382 1.40625,-0.3442382 1.369629,0 2.321777,0.9960937 0.952149,0.9960938 0.952149,2.5854492 0,1.3256841 -0.769043,2.3657231 -1.047363,1.420898 -2.907715,1.420898 -1.486816,0 -2.424316,-0.79834 -0.9375,-0.79834 -1.120606,-2.145996 z"
           style="font-style:normal;font-variant:normal;font-weight:700;font-size:15px;font-family:Arial;fill:#000000"
           id="path999" />
        <path
           d="m -29.553223,2.7978516 q 1.560059,0 2.438965,1.1132812 1.047363,1.3183594 1.047363,4.3725586 0,3.0468746 -1.054687,4.3798826 -0.871582,1.098633 -2.431641,1.098633 -1.567382,0 -2.526855,-1.201172 -0.959473,-1.208496 -0.959473,-4.2993162 0,-3.0322266 1.054688,-4.3652344 0.871582,-1.0986328 2.43164,-1.0986328 z m 0,1.7065429 q -0.373535,0 -0.666504,0.2416992 -0.292968,0.234375 -0.454101,0.8496094 -0.212402,0.7983399 -0.212402,2.6879883 0,1.8896486 0.190429,2.6000976 0.19043,0.703125 0.476074,0.9375 0.292969,0.234375 0.666504,0.234375 0.373536,0 0.666504,-0.234375 0.292969,-0.241699 0.454102,-0.856934 0.212402,-0.791015 0.212402,-2.6806636 0,-1.8896484 -0.19043,-2.5927734 -0.190429,-0.7104493 -0.483398,-0.9448243 -0.285644,-0.2416992 -0.65918,-0.2416992 z"
           style="font-style:normal;font-variant:normal;font-weight:700;font-size:15px;font-family:Arial;fill:#000000"
           id="path1001" />
        <path
           d="m -21.210937,2.7978516 q 1.560058,0 2.438964,1.1132812 1.047364,1.3183594 1.047364,4.3725586 0,3.0468746 -1.054688,4.3798826 -0.871582,1.098633 -2.43164,1.098633 -1.567383,0 -2.526856,-1.201172 -0.959473,-1.208496 -0.959473,-4.2993162 0,-3.0322266 1.054688,-4.3652344 0.871582,-1.0986328 2.431641,-1.0986328 z m 0,1.7065429 q -0.373536,0 -0.666504,0.2416992 -0.292969,0.234375 -0.454102,0.8496094 -0.212402,0.7983399 -0.212402,2.6879883 0,1.8896486 0.190429,2.6000976 0.19043,0.703125 0.476075,0.9375 0.292968,0.234375 0.666504,0.234375 0.373535,0 0.666503,-0.234375 0.292969,-0.241699 0.454102,-0.856934 0.212402,-0.791015 0.212402,-2.6806636 0,-1.8896484 -0.190429,-2.5927734 -0.19043,-0.7104493 -0.483399,-0.9448243 -0.285644,-0.2416992 -0.659179,-0.2416992 z"
           style="font-style:normal;font-variant:normal;font-weight:700;font-size:15px;font-family:Arial;fill:#000000"
           id="path1003" />
        <path
           d="m -16.171875,5.8007812 h 2.043457 v 3.5229493 q 0,1.5234375 0.307617,2.0727535 0.388184,0.71045 1.149903,0.71045 0.410156,0 0.776367,-0.263672 0.366211,-0.263672 0.541992,-0.732422 0.175781,-0.46875 0.175781,-1.7651369 V 5.8007812 h 2.0800783 v 7.7783208 h -1.9189453 v -0.9375 q -0.219727,0.410156 -0.41748,0.615234 -0.197754,0.205078 -0.534668,0.358887 -0.32959,0.153808 -0.607911,0.153808 -0.520019,0 -0.922851,-0.285644 -0.285645,-0.212403 -0.629883,-0.842285 v 3.918457 h -2.043457 z"
           style="font-style:normal;font-variant:normal;font-weight:700;font-size:15px;font-family:Arial;fill:#000000"
           id="path1005" />
        <path
           d="m -7.9907227,11.359863 2.0654297,-0.314941 q 0.131836,0.600586 0.534668,0.915527 0.402832,0.307617 1.1279297,0.307617 0.7983398,0 1.2011719,-0.292968 0.2709961,-0.205078 0.2709961,-0.549317 0,-0.234375 -0.1464844,-0.388183 -0.1538086,-0.146485 -0.6884766,-0.270996 -2.4902344,-0.549317 -3.1567383,-1.0034184 -0.9228515,-0.6298828 -0.9228515,-1.7504883 0,-1.0107422 0.7983398,-1.6992187 Q -6.1083984,5.625 -4.4311523,5.625 q 1.5966796,0 2.3730468,0.5200195 0.7763672,0.5200196 1.06933597,1.538086 L -2.9296875,8.0419922 Q -3.0541992,7.5878906 -3.4057617,7.3461914 -3.75,7.1044922 -4.3945312,7.1044922 q -0.8129883,0 -1.1645508,0.2270508 -0.234375,0.1611328 -0.234375,0.4174804 0,0.2197266 0.2050781,0.3735352 0.2783203,0.2050781 1.9189453,0.5786133 1.6479492,0.3735351 2.2998047,0.9155273 0.64453124,0.5493168 0.64453124,1.5307618 0,1.069336 -0.89355464,1.838379 -0.8935547,0.769043 -2.644043,0.769043 -1.5893555,0 -2.5195313,-0.644531 -0.9228515,-0.644532 -1.2084961,-1.750489 z"
           style="font-style:normal;font-variant:normal;font-weight:700;font-size:15px;font-family:Arial;fill:#000000"
           id="path1007" />
      </g>
      <path
         style="fill:none;stroke:#000000;stroke-width:0.88252px;stroke-linecap:round;stroke-linejoin:round;stroke-miterlimit:4;stroke-dasharray:none;stroke-opacity:1"
         d="m 385.6611,284.17134 v 7.94268"
         id="path29" />
      <g
         aria-label="550µs"
         transform="translate(405.95905,292.11402)"
         id="text35"
         style="font-style:normal;font-variant:normal;font-weight:700;font-size:15px;line-height:125%;font-family:Arial;text-align:start;letter-spacing:0px;word-spacing:0px;text-anchor:start;fill:#000000;fill-opacity:1;stroke:none">
        <path
           d="m -41.345215,10.817871 2.050781,-0.212402 q 0.08789,0.695801 0.52002,1.105957 0.432129,0.402832 0.996094,0.402832 0.644531,0 1.091308,-0.52002 0.446778,-0.527343 0.446778,-1.582031 0,-0.9887695 -0.446778,-1.4794922 -0.439453,-0.4980468 -1.149902,-0.4980468 -0.886231,0 -1.589356,0.7836914 l -1.669921,-0.2416992 1.054687,-5.5883789 h 5.441895 v 1.9262695 h -3.881836 l -0.322266,1.8237304 q 0.688477,-0.3442382 1.40625,-0.3442382 1.369629,0 2.321777,0.9960937 0.952149,0.9960938 0.952149,2.5854492 0,1.3256841 -0.769043,2.3657231 -1.047363,1.420898 -2.907715,1.420898 -1.486816,0 -2.424316,-0.79834 -0.9375,-0.79834 -1.120606,-2.145996 z"
           style="font-style:normal;font-variant:normal;font-weight:700;font-size:15px;font-family:Arial;fill:#000000"
           id="path1010" />
        <path
           d="m -33.00293,10.817871 2.050782,-0.212402 q 0.08789,0.695801 0.520019,1.105957 0.432129,0.402832 0.996094,0.402832 0.644531,0 1.091308,-0.52002 0.446778,-0.527343 0.446778,-1.582031 0,-0.9887695 -0.446778,-1.4794922 -0.439453,-0.4980468 -1.149902,-0.4980468 -0.88623,0 -1.589355,0.7836914 l -1.669922,-0.2416992 1.054687,-5.5883789 h 5.441895 v 1.9262695 h -3.881836 l -0.322266,1.8237304 q 0.688477,-0.3442382 1.40625,-0.3442382 1.369629,0 2.321778,0.9960937 0.952148,0.9960938 0.952148,2.5854492 0,1.3256841 -0.769043,2.3657231 -1.047363,1.420898 -2.907715,1.420898 -1.486816,0 -2.424316,-0.79834 -0.9375,-0.79834 -1.120606,-2.145996 z"
           style="font-style:normal;font-variant:normal;font-weight:700;font-size:15px;font-family:Arial;fill:#000000"
           id="path1012" />
        <path
           d="m -21.210937,2.7978516 q 1.560058,0 2.438964,1.1132812 1.047364,1.3183594 1.047364,4.3725586 0,3.0468746 -1.054688,4.3798826 -0.871582,1.098633 -2.43164,1.098633 -1.567383,0 -2.526856,-1.201172 -0.959473,-1.208496 -0.959473,-4.2993162 0,-3.0322266 1.054688,-4.3652344 0.871582,-1.0986328 2.431641,-1.0986328 z m 0,1.7065429 q -0.373536,0 -0.666504,0.2416992 -0.292969,0.234375 -0.454102,0.8496094 -0.212402,0.7983399 -0.212402,2.6879883 0,1.8896486 0.190429,2.6000976 0.19043,0.703125 0.476075,0.9375 0.292968,0.234375 0.666504,0.234375 0.373535,0 0.666503,-0.234375 0.292969,-0.241699 0.454102,-0.856934 0.212402,-0.791015 0.212402,-2.6806636 0,-1.8896484 -0.190429,-2.5927734 -0.19043,-0.7104493 -0.483399,-0.9448243 -0.285644,-0.2416992 -0.659179,-0.2416992 z"
           style="font-style:normal;font-variant:normal;font-weight:700;font-size:15px;font-family:Arial;fill:#000000"
           id="path1014" />
        <path
           d="m -16.171875,5.8007812 h 2.043457 v 3.5229493 q 0,1.5234375 0.307617,2.0727535 0.388184,0.71045 1.149903,0.71045 0.410156,0 0.776367,-0.263672 0.366211,-0.263672 0.541992,-0.732422 0.175781,-0.46875 0.175781,-1.7651369 V 5.8007812 h 2.0800783 v 7.7783208 h -1.9189453 v -0.9375 q -0.219727,0.410156 -0.41748,0.615234 -0.197754,0.205078 -0.534668,0.358887 -0.32959,0.153808 -0.607911,0.153808 -0.520019,0 -0.922851,-0.285644 -0.285645,-0.212403 -0.629883,-0.842285 v 3.918457 h -2.043457 z"
           style="font-style:normal;font-variant:normal;font-weight:700;font-size:15px;font-family:Arial;fill:#000000"
           id="path1016" />
        <path
           d="m -7.9907227,11.359863 2.0654297,-0.314941 q 0.131836,0.600586 0.534668,0.915527 0.402832,0.307617 1.1279297,0.307617 0.7983398,0 1.2011719,-0.292968 0.2709961,-0.205078 0.2709961,-0.549317 0,-0.234375 -0.1464844,-0.388183 -0.1538086,-0.146485 -0.6884766,-0.270996 -2.4902344,-0.549317 -3.1567383,-1.0034184 -0.9228515,-0.6298828 -0.9228515,-1.7504883 0,-1.0107422 0.7983398,-1.6992187 Q -6.1083984,5.625 -4.4311523,5.625 q 1.5966796,0 2.3730468,0.5200195 0.7763672,0.5200196 1.06933597,1.538086 L -2.9296875,8.0419922 Q -3.0541992,7.5878906 -3.4057617,7.3461914 -3.75,7.1044922 -4.3945312,7.1044922 q -0.8129883,0 -1.1645508,0.2270508 -0.234375,0.1611328 -0.234375,0.4174804 0,0.2197266 0.2050781,0.3735352 0.2783203,0.2050781 1.9189453,0.5786133 1.6479492,0.3735351 2.2998047,0.9155273 0.64453124,0.5493168 0.64453124,1.5307618 0,1.069336 -0.89355464,1.838379 -0.8935547,0.769043 -2.644043,0.769043 -1.5893555,0 -2.5195313,-0.644531 -0.9228515,-0.644532 -1.2084961,-1.750489 z"
           style="font-style:normal;font-variant:normal;font-weight:700;font-size:15px;font-family:Arial;fill:#000000"
           id="path1018" />
      </g>
      <path
         style="fill:none;stroke:#000000;stroke-width:0.88252px;stroke-linecap:round;stroke-linejoin:round;stroke-miterlimit:4;stroke-dasharray:none;stroke-opacity:1"
         d="m 495.09354,284.17134 v 7.94268"
         id="path37" />
      <g
         aria-label="600µs"
         transform="translate(515.3915,292.11402)"
         id="text43"
         style="font-style:normal;font-variant:normal;font-weight:700;font-size:15px;line-height:125%;font-family:Arial;text-align:start;letter-spacing:0px;word-spacing:0px;text-anchor:start;fill:#000000;fill-opacity:1;stroke:none">
        <path
           d="m -34.401855,5.4711914 -1.992188,0.2197266 q -0.07324,-0.6152344 -0.380859,-0.9082032 -0.307618,-0.2929687 -0.79834,-0.2929687 -0.651856,0 -1.105957,0.5859375 -0.446778,0.5859375 -0.563965,2.4389648 0.769043,-0.9082031 1.911621,-0.9082031 1.289063,0 2.20459,0.9814453 0.922851,0.9814453 0.922851,2.5341794 0,1.64795 -0.966796,2.644043 -0.966797,0.996094 -2.482911,0.996094 -1.625976,0 -2.673339,-1.259766 -1.047364,-1.267089 -1.047364,-4.1455074 0,-2.9516602 1.091309,-4.2553711 1.091308,-1.3037109 2.834473,-1.3037109 1.223144,0 2.021484,0.6884765 0.805664,0.6811524 1.025391,1.9848633 z m -4.665528,4.4897461 q 0,1.0034175 0.461426,1.5527345 0.461426,0.541992 1.054687,0.541992 0.57129,0 0.952149,-0.446777 0.380859,-0.446778 0.380859,-1.464844 0,-1.0473633 -0.410156,-1.5307617 -0.410156,-0.4907227 -1.025391,-0.4907227 -0.593261,0 -1.003418,0.46875 -0.410156,0.4614258 -0.410156,1.3696289 z"
           style="font-style:normal;font-variant:normal;font-weight:700;font-size:15px;font-family:Arial;fill:#000000"
           id="path1021" />
        <path
           d="m -29.553223,2.7978516 q 1.560059,0 2.438965,1.1132812 1.047363,1.3183594 1.047363,4.3725586 0,3.0468746 -1.054687,4.3798826 -0.871582,1.098633 -2.431641,1.098633 -1.567382,0 -2.526855,-1.201172 -0.959473,-1.208496 -0.959473,-4.2993162 0,-3.0322266 1.054688,-4.3652344 0.871582,-1.0986328 2.43164,-1.0986328 z m 0,1.7065429 q -0.373535,0 -0.666504,0.2416992 -0.292968,0.234375 -0.454101,0.8496094 -0.212402,0.7983399 -0.212402,2.6879883 0,1.8896486 0.190429,2.6000976 0.19043,0.703125 0.476074,0.9375 0.292969,0.234375 0.666504,0.234375 0.373536,0 0.666504,-0.234375 0.292969,-0.241699 0.454102,-0.856934 0.212402,-0.791015 0.212402,-2.6806636 0,-1.8896484 -0.19043,-2.5927734 -0.190429,-0.7104493 -0.483398,-0.9448243 -0.285644,-0.2416992 -0.65918,-0.2416992 z"
           style="font-style:normal;font-variant:normal;font-weight:700;font-size:15px;font-family:Arial;fill:#000000"
           id="path1023" />
        <path
           d="m -21.210937,2.7978516 q 1.560058,0 2.438964,1.1132812 1.047364,1.3183594 1.047364,4.3725586 0,3.0468746 -1.054688,4.3798826 -0.871582,1.098633 -2.43164,1.098633 -1.567383,0 -2.526856,-1.201172 -0.959473,-1.208496 -0.959473,-4.2993162 0,-3.0322266 1.054688,-4.3652344 0.871582,-1.0986328 2.431641,-1.0986328 z m 0,1.7065429 q -0.373536,0 -0.666504,0.2416992 -0.292969,0.234375 -0.454102,0.8496094 -0.212402,0.7983399 -0.212402,2.6879883 0,1.8896486 0.190429,2.6000976 0.19043,0.703125 0.476075,0.9375 0.292968,0.234375 0.666504,0.234375 0.373535,0 0.666503,-0.234375 0.292969,-0.241699 0.454102,-0.856934 0.212402,-0.791015 0.212402,-2.6806636 0,-1.8896484 -0.190429,-2.5927734 -0.19043,-0.7104493 -0.483399,-0.9448243 -0.285644,-0.2416992 -0.659179,-0.2416992 z"
           style="font-style:normal;font-variant:normal;font-weight:700;font-size:15px;font-family:Arial;fill:#000000"
           id="path1025" />
        <path
           d="m -16.171875,5.8007812 h 2.043457 v 3.5229493 q 0,1.5234375 0.307617,2.0727535 0.388184,0.71045 1.149903,0.71045 0.410156,0 0.776367,-0.263672 0.366211,-0.263672 0.541992,-0.732422 0.175781,-0.46875 0.175781,-1.7651369 V 5.8007812 h 2.0800783 v 7.7783208 h -1.9189453 v -0.9375 q -0.219727,0.410156 -0.41748,0.615234 -0.197754,0.205078 -0.534668,0.358887 -0.32959,0.153808 -0.607911,0.153808 -0.520019,0 -0.922851,-0.285644 -0.285645,-0.212403 -0.629883,-0.842285 v 3.918457 h -2.043457 z"
           style="font-style:normal;font-variant:normal;font-weight:700;font-size:15px;font-family:Arial;fill:#000000"
           id="path1027" />
        <path
           d="m -7.9907227,11.359863 2.0654297,-0.314941 q 0.131836,0.600586 0.534668,0.915527 0.402832,0.307617 1.1279297,0.307617 0.7983398,0 1.2011719,-0.292968 0.2709961,-0.205078 0.2709961,-0.549317 0,-0.234375 -0.1464844,-0.388183 -0.1538086,-0.146485 -0.6884766,-0.270996 -2.4902344,-0.549317 -3.1567383,-1.0034184 -0.9228515,-0.6298828 -0.9228515,-1.7504883 0,-1.0107422 0.7983398,-1.6992187 Q -6.1083984,5.625 -4.4311523,5.625 q 1.5966796,0 2.3730468,0.5200195 0.7763672,0.5200196 1.06933597,1.538086 L -2.9296875,8.0419922 Q -3.0541992,7.5878906 -3.4057617,7.3461914 -3.75,7.1044922 -4.3945312,7.1044922 q -0.8129883,0 -1.1645508,0.2270508 -0.234375,0.1611328 -0.234375,0.4174804 0,0.2197266 0.2050781,0.3735352 0.2783203,0.2050781 1.9189453,0.5786133 1.6479492,0.3735351 2.2998047,0.9155273 0.64453124,0.5493168 0.64453124,1.5307618 0,1.069336 -0.89355464,1.838379 -0.8935547,0.769043 -2.644043,0.769043 -1.5893555,0 -2.5195313,-0.644531 -0.9228515,-0.644532 -1.2084961,-1.750489 z"
           style="font-style:normal;font-variant:normal;font-weight:700;font-size:15px;font-family:Arial;fill:#000000"
           id="path1029" />
      </g>
      <path
         style="fill:none;stroke:#000000;stroke-width:0.88252px;stroke-linecap:round;stroke-linejoin:round;stroke-miterlimit:4;stroke-dasharray:none;stroke-opacity:1"
         d="m 603.64346,284.17134 v 7.94268"
         id="path45" />
      <g
         aria-label="650µs"
         transform="translate(623.94142,292.11402)"
         id="text51"
         style="font-style:normal;font-variant:normal;font-weight:700;font-size:15px;line-height:125%;font-family:Arial;text-align:start;letter-spacing:0px;word-spacing:0px;text-anchor:start;fill:#000000;fill-opacity:1;stroke:none">
        <path
           d="m -34.401855,5.4711914 -1.992188,0.2197266 q -0.07324,-0.6152344 -0.380859,-0.9082032 -0.307618,-0.2929687 -0.79834,-0.2929687 -0.651856,0 -1.105957,0.5859375 -0.446778,0.5859375 -0.563965,2.4389648 0.769043,-0.9082031 1.911621,-0.9082031 1.289063,0 2.20459,0.9814453 0.922851,0.9814453 0.922851,2.5341794 0,1.64795 -0.966796,2.644043 -0.966797,0.996094 -2.482911,0.996094 -1.625976,0 -2.673339,-1.259766 -1.047364,-1.267089 -1.047364,-4.1455074 0,-2.9516602 1.091309,-4.2553711 1.091308,-1.3037109 2.834473,-1.3037109 1.223144,0 2.021484,0.6884765 0.805664,0.6811524 1.025391,1.9848633 z m -4.665528,4.4897461 q 0,1.0034175 0.461426,1.5527345 0.461426,0.541992 1.054687,0.541992 0.57129,0 0.952149,-0.446777 0.380859,-0.446778 0.380859,-1.464844 0,-1.0473633 -0.410156,-1.5307617 -0.410156,-0.4907227 -1.025391,-0.4907227 -0.593261,0 -1.003418,0.46875 -0.410156,0.4614258 -0.410156,1.3696289 z"
           style="font-style:normal;font-variant:normal;font-weight:700;font-size:15px;font-family:Arial;fill:#000000"
           id="path1032" />
        <path
           d="m -33.00293,10.817871 2.050782,-0.212402 q 0.08789,0.695801 0.520019,1.105957 0.432129,0.402832 0.996094,0.402832 0.644531,0 1.091308,-0.52002 0.446778,-0.527343 0.446778,-1.582031 0,-0.9887695 -0.446778,-1.4794922 -0.439453,-0.4980468 -1.149902,-0.4980468 -0.88623,0 -1.589355,0.7836914 l -1.669922,-0.2416992 1.054687,-5.5883789 h 5.441895 v 1.9262695 h -3.881836 l -0.322266,1.8237304 q 0.688477,-0.3442382 1.40625,-0.3442382 1.369629,0 2.321778,0.9960937 0.952148,0.9960938 0.952148,2.5854492 0,1.3256841 -0.769043,2.3657231 -1.047363,1.420898 -2.907715,1.420898 -1.486816,0 -2.424316,-0.79834 -0.9375,-0.79834 -1.120606,-2.145996 z"
           style="font-style:normal;font-variant:normal;font-weight:700;font-size:15px;font-family:Arial;fill:#000000"
           id="path1034" />
        <path
           d="m -21.210937,2.7978516 q 1.560058,0 2.438964,1.1132812 1.047364,1.3183594 1.047364,4.3725586 0,3.0468746 -1.054688,4.3798826 -0.871582,1.098633 -2.43164,1.098633 -1.567383,0 -2.526856,-1.201172 -0.959473,-1.208496 -0.959473,-4.2993162 0,-3.0322266 1.054688,-4.3652344 0.871582,-1.0986328 2.431641,-1.0986328 z m 0,1.7065429 q -0.373536,0 -0.666504,0.2416992 -0.292969,0.234375 -0.454102,0.8496094 -0.212402,0.7983399 -0.212402,2.6879883 0,1.8896486 0.190429,2.6000976 0.19043,0.703125 0.476075,0.9375 0.292968,0.234375 0.666504,0.234375 0.373535,0 0.666503,-0.234375 0.292969,-0.241699 0.454102,-0.856934 0.212402,-0.791015 0.212402,-2.6806636 0,-1.8896484 -0.190429,-2.5927734 -0.19043,-0.7104493 -0.483399,-0.9448243 -0.285644,-0.2416992 -0.659179,-0.2416992 z"
           style="font-style:normal;font-variant:normal;font-weight:700;font-size:15px;font-family:Arial;fill:#000000"
           id="path1036" />
        <path
           d="m -16.171875,5.8007812 h 2.043457 v 3.5229493 q 0,1.5234375 0.307617,2.0727535 0.388184,0.71045 1.149903,0.71045 0.410156,0 0.776367,-0.263672 0.366211,-0.263672 0.541992,-0.732422 0.175781,-0.46875 0.175781,-1.7651369 V 5.8007812 h 2.0800783 v 7.7783208 h -1.9189453 v -0.9375 q -0.219727,0.410156 -0.41748,0.615234 -0.197754,0.205078 -0.534668,0.358887 -0.32959,0.153808 -0.607911,0.153808 -0.520019,0 -0.922851,-0.285644 -0.285645,-0.212403 -0.629883,-0.842285 v 3.918457 h -2.043457 z"
           style="font-style:normal;font-variant:normal;font-weight:700;font-size:15px;font-family:Arial;fill:#000000"
           id="path1038" />
        <path
           d="m -7.9907227,11.359863 2.0654297,-0.314941 q 0.131836,0.600586 0.534668,0.915527 0.402832,0.307617 1.1279297,0.307617 0.7983398,0 1.2011719,-0.292968 0.2709961,-0.205078 0.2709961,-0.549317 0,-0.234375 -0.1464844,-0.388183 -0.1538086,-0.146485 -0.6884766,-0.270996 -2.4902344,-0.549317 -3.1567383,-1.0034184 -0.9228515,-0.6298828 -0.9228515,-1.7504883 0,-1.0107422 0.7983398,-1.6992187 Q -6.1083984,5.625 -4.4311523,5.625 q 1.5966796,0 2.3730468,0.5200195 0.7763672,0.5200196 1.06933597,1.538086 L -2.9296875,8.0419922 Q -3.0541992,7.5878906 -3.4057617,7.3461914 -3.75,7.1044922 -4.3945312,7.1044922 q -0.8129883,0 -1.1645508,0.2270508 -0.234375,0.1611328 -0.234375,0.4174804 0,0.2197266 0.2050781,0.3735352 0.2783203,0.2050781 1.9189453,0.5786133 1.6479492,0.3735351 2.2998047,0.9155273 0.64453124,0.5493168 0.64453124,1.5307618 0,1.069336 -0.89355464,1.838379 -0.8935547,0.769043 -2.644043,0.769043 -1.5893555,0 -2.5195313,-0.644531 -0.9228515,-0.644532 -1.2084961,-1.750489 z"
           style="font-style:normal;font-variant:normal;font-weight:700;font-size:15px;font-family:Arial;fill:#000000"
           id="path1040" />
      </g>
      <path
         style="fill:none;stroke:#000000;stroke-width:0.88252px;stroke-linecap:round;stroke-linejoin:round;stroke-miterlimit:4;stroke-dasharray:none;stroke-opacity:1"
         d="m 713.07591,284.17134 v 7.94268"
         id="path53" />
      <g
         aria-label="700µs"
         transform="translate(733.37386,292.11402)"
         id="text59"
         style="font-style:normal;font-variant:normal;font-weight:700;font-size:15px;line-height:125%;font-family:Arial;text-align:start;letter-spacing:0px;word-spacing:0px;text-anchor:start;fill:#000000;fill-opacity:1;stroke:none">
        <path
           d="m -41.374512,4.8999023 v -1.911621 h 7.038575 v 1.4941406 q -0.871583,0.8569336 -1.772461,2.4609375 -0.900879,1.6040039 -1.376954,3.4130856 -0.46875,1.801758 -0.461425,3.222657 h -1.984864 q 0.05127,-2.226563 0.915528,-4.5410161 0.871582,-2.3144531 2.321777,-4.1381836 z"
           style="font-style:normal;font-variant:normal;font-weight:700;font-size:15px;font-family:Arial;fill:#000000"
           id="path1043" />
        <path
           d="m -29.553223,2.7978516 q 1.560059,0 2.438965,1.1132812 1.047363,1.3183594 1.047363,4.3725586 0,3.0468746 -1.054687,4.3798826 -0.871582,1.098633 -2.431641,1.098633 -1.567382,0 -2.526855,-1.201172 -0.959473,-1.208496 -0.959473,-4.2993162 0,-3.0322266 1.054688,-4.3652344 0.871582,-1.0986328 2.43164,-1.0986328 z m 0,1.7065429 q -0.373535,0 -0.666504,0.2416992 -0.292968,0.234375 -0.454101,0.8496094 -0.212402,0.7983399 -0.212402,2.6879883 0,1.8896486 0.190429,2.6000976 0.19043,0.703125 0.476074,0.9375 0.292969,0.234375 0.666504,0.234375 0.373536,0 0.666504,-0.234375 0.292969,-0.241699 0.454102,-0.856934 0.212402,-0.791015 0.212402,-2.6806636 0,-1.8896484 -0.19043,-2.5927734 -0.190429,-0.7104493 -0.483398,-0.9448243 -0.285644,-0.2416992 -0.65918,-0.2416992 z"
           style="font-style:normal;font-variant:normal;font-weight:700;font-size:15px;font-family:Arial;fill:#000000"
           id="path1045" />
        <path
           d="m -21.210937,2.7978516 q 1.560058,0 2.438964,1.1132812 1.047364,1.3183594 1.047364,4.3725586 0,3.0468746 -1.054688,4.3798826 -0.871582,1.098633 -2.43164,1.098633 -1.567383,0 -2.526856,-1.201172 -0.959473,-1.208496 -0.959473,-4.2993162 0,-3.0322266 1.054688,-4.3652344 0.871582,-1.0986328 2.431641,-1.0986328 z m 0,1.7065429 q -0.373536,0 -0.666504,0.2416992 -0.292969,0.234375 -0.454102,0.8496094 -0.212402,0.7983399 -0.212402,2.6879883 0,1.8896486 0.190429,2.6000976 0.19043,0.703125 0.476075,0.9375 0.292968,0.234375 0.666504,0.234375 0.373535,0 0.666503,-0.234375 0.292969,-0.241699 0.454102,-0.856934 0.212402,-0.791015 0.212402,-2.6806636 0,-1.8896484 -0.190429,-2.5927734 -0.19043,-0.7104493 -0.483399,-0.9448243 -0.285644,-0.2416992 -0.659179,-0.2416992 z"
           style="font-style:normal;font-variant:normal;font-weight:700;font-size:15px;font-family:Arial;fill:#000000"
           id="path1047" />
        <path
           d="m -16.171875,5.8007812 h 2.043457 v 3.5229493 q 0,1.5234375 0.307617,2.0727535 0.388184,0.71045 1.149903,0.71045 0.410156,0 0.776367,-0.263672 0.366211,-0.263672 0.541992,-0.732422 0.175781,-0.46875 0.175781,-1.7651369 V 5.8007812 h 2.0800783 v 7.7783208 h -1.9189453 v -0.9375 q -0.219727,0.410156 -0.41748,0.615234 -0.197754,0.205078 -0.534668,0.358887 -0.32959,0.153808 -0.607911,0.153808 -0.520019,0 -0.922851,-0.285644 -0.285645,-0.212403 -0.629883,-0.842285 v 3.918457 h -2.043457 z"
           style="font-style:normal;font-variant:normal;font-weight:700;font-size:15px;font-family:Arial;fill:#000000"
           id="path1049" />
        <path
           d="m -7.9907227,11.359863 2.0654297,-0.314941 q 0.131836,0.600586 0.534668,0.915527 0.402832,0.307617 1.1279297,0.307617 0.7983398,0 1.2011719,-0.292968 0.2709961,-0.205078 0.2709961,-0.549317 0,-0.234375 -0.1464844,-0.388183 -0.1538086,-0.146485 -0.6884766,-0.270996 -2.4902344,-0.549317 -3.1567383,-1.0034184 -0.9228515,-0.6298828 -0.9228515,-1.7504883 0,-1.0107422 0.7983398,-1.6992187 Q -6.1083984,5.625 -4.4311523,5.625 q 1.5966796,0 2.3730468,0.5200195 0.7763672,0.5200196 1.06933597,1.538086 L -2.9296875,8.0419922 Q -3.0541992,7.5878906 -3.4057617,7.3461914 -3.75,7.1044922 -4.3945312,7.1044922 q -0.8129883,0 -1.1645508,0.2270508 -0.234375,0.1611328 -0.234375,0.4174804 0,0.2197266 0.2050781,0.3735352 0.2783203,0.2050781 1.9189453,0.5786133 1.6479492,0.3735351 2.2998047,0.9155273 0.64453124,0.5493168 0.64453124,1.5307618 0,1.069336 -0.89355464,1.838379 -0.8935547,0.769043 -2.644043,0.769043 -1.5893555,0 -2.5195313,-0.644531 -0.9228515,-0.644532 -1.2084961,-1.750489 z"
           style="font-style:normal;font-variant:normal;font-weight:700;font-size:15px;font-family:Arial;fill:#000000"
           id="path1051" />
      </g>
      <path
         style="fill:none;stroke:#000000;stroke-width:0.88252px;stroke-linecap:round;stroke-linejoin:round;stroke-miterlimit:4;stroke-dasharray:none;stroke-opacity:1"
         d="m 821.62583,284.17134 v 7.94268"
         id="path61" />
      <g
         aria-label="750µs"
         transform="translate(841.92378,292.11402)"
         id="text67"
         style="font-style:normal;font-variant:normal;font-weight:700;font-size:15px;line-height:125%;font-family:Arial;text-align:start;letter-spacing:0px;word-spacing:0px;text-anchor:start;fill:#000000;fill-opacity:1;stroke:none">
        <path
           d="m -41.374512,4.8999023 v -1.911621 h 7.038575 v 1.4941406 q -0.871583,0.8569336 -1.772461,2.4609375 -0.900879,1.6040039 -1.376954,3.4130856 -0.46875,1.801758 -0.461425,3.222657 h -1.984864 q 0.05127,-2.226563 0.915528,-4.5410161 0.871582,-2.3144531 2.321777,-4.1381836 z"
           style="font-style:normal;font-variant:normal;font-weight:700;font-size:15px;font-family:Arial;fill:#000000"
           id="path1054" />
        <path
           d="m -33.00293,10.817871 2.050782,-0.212402 q 0.08789,0.695801 0.520019,1.105957 0.432129,0.402832 0.996094,0.402832 0.644531,0 1.091308,-0.52002 0.446778,-0.527343 0.446778,-1.582031 0,-0.9887695 -0.446778,-1.4794922 -0.439453,-0.4980468 -1.149902,-0.4980468 -0.88623,0 -1.589355,0.7836914 l -1.669922,-0.2416992 1.054687,-5.5883789 h 5.441895 v 1.9262695 h -3.881836 l -0.322266,1.8237304 q 0.688477,-0.3442382 1.40625,-0.3442382 1.369629,0 2.321778,0.9960937 0.952148,0.9960938 0.952148,2.5854492 0,1.3256841 -0.769043,2.3657231 -1.047363,1.420898 -2.907715,1.420898 -1.486816,0 -2.424316,-0.79834 -0.9375,-0.79834 -1.120606,-2.145996 z"
           style="font-style:normal;font-variant:normal;font-weight:700;font-size:15px;font-family:Arial;fill:#000000"
           id="path1056" />
        <path
           d="m -21.210937,2.7978516 q 1.560058,0 2.438964,1.1132812 1.047364,1.3183594 1.047364,4.3725586 0,3.0468746 -1.054688,4.3798826 -0.871582,1.098633 -2.43164,1.098633 -1.567383,0 -2.526856,-1.201172 -0.959473,-1.208496 -0.959473,-4.2993162 0,-3.0322266 1.054688,-4.3652344 0.871582,-1.0986328 2.431641,-1.0986328 z m 0,1.7065429 q -0.373536,0 -0.666504,0.2416992 -0.292969,0.234375 -0.454102,0.8496094 -0.212402,0.7983399 -0.212402,2.6879883 0,1.8896486 0.190429,2.6000976 0.19043,0.703125 0.476075,0.9375 0.292968,0.234375 0.666504,0.234375 0.373535,0 0.666503,-0.234375 0.292969,-0.241699 0.454102,-0.856934 0.212402,-0.791015 0.212402,-2.6806636 0,-1.8896484 -0.190429,-2.5927734 -0.19043,-0.7104493 -0.483399,-0.9448243 -0.285644,-0.2416992 -0.659179,-0.2416992 z"
           style="font-style:normal;font-variant:normal;font-weight:700;font-size:15px;font-family:Arial;fill:#000000"
           id="path1058" />
        <path
           d="m -16.171875,5.8007812 h 2.043457 v 3.5229493 q 0,1.5234375 0.307617,2.0727535 0.388184,0.71045 1.149903,0.71045 0.410156,0 0.776367,-0.263672 0.366211,-0.263672 0.541992,-0.732422 0.175781,-0.46875 0.175781,-1.7651369 V 5.8007812 h 2.0800783 v 7.7783208 h -1.9189453 v -0.9375 q -0.219727,0.410156 -0.41748,0.615234 -0.197754,0.205078 -0.534668,0.358887 -0.32959,0.153808 -0.607911,0.153808 -0.520019,0 -0.922851,-0.285644 -0.285645,-0.212403 -0.629883,-0.842285 v 3.918457 h -2.043457 z"
           style="font-style:normal;font-variant:normal;font-weight:700;font-size:15px;font-family:Arial;fill:#000000"
           id="path1060" />
        <path
           d="m -7.9907227,11.359863 2.0654297,-0.314941 q 0.131836,0.600586 0.534668,0.915527 0.402832,0.307617 1.1279297,0.307617 0.7983398,0 1.2011719,-0.292968 0.2709961,-0.205078 0.2709961,-0.549317 0,-0.234375 -0.1464844,-0.388183 -0.1538086,-0.146485 -0.6884766,-0.270996 -2.4902344,-0.549317 -3.1567383,-1.0034184 -0.9228515,-0.6298828 -0.9228515,-1.7504883 0,-1.0107422 0.7983398,-1.6992187 Q -6.1083984,5.625 -4.4311523,5.625 q 1.5966796,0 2.3730468,0.5200195 0.7763672,0.5200196 1.06933597,1.538086 L -2.9296875,8.0419922 Q -3.0541992,7.5878906 -3.4057617,7.3461914 -3.75,7.1044922 -4.3945312,7.1044922 q -0.8129883,0 -1.1645508,0.2270508 -0.234375,0.1611328 -0.234375,0.4174804 0,0.2197266 0.2050781,0.3735352 0.2783203,0.2050781 1.9189453,0.5786133 1.6479492,0.3735351 2.2998047,0.9155273 0.64453124,0.5493168 0.64453124,1.5307618 0,1.069336 -0.89355464,1.838379 -0.8935547,0.769043 -2.644043,0.769043 -1.5893555,0 -2.5195313,-0.644531 -0.9228515,-0.644532 -1.2084961,-1.750489 z"
           style="font-style:normal;font-variant:normal;font-weight:700;font-size:15px;font-family:Arial;fill:#000000"
           id="path1062" />
      </g>
      <g
         aria-label="-4.980V"
         transform="translate(841.92378,292.11402)"
         id="text73"
         style="font-style:normal;font-variant:normal;font-weight:700;font-size:15px;line-height:125%;font-family:Arial;text-align:start;letter-spacing:0px;word-spacing:0px;text-anchor:start;fill:#000000;fill-opacity:1;stroke:none">
        <path
           d="M -842.43195,-5.1700225 V -7.228128 h 4.04297 v 2.0581055 z"
           style="font-style:normal;font-variant:normal;font-weight:700;font-size:15px;font-family:Arial;fill:#000000"
           id="path1065" />
        <path
           d="m -833.60626,-2.306253 v -2.1606445 h -4.39453 v -1.8017578 l 4.6582,-6.8188477 h 1.72852 v 6.8115235 h 1.333 v 1.809082 h -1.333 v 2.1606445 z m 0,-3.9697265 v -3.6694336 l -2.46826,3.6694336 z"
           style="font-style:normal;font-variant:normal;font-weight:700;font-size:15px;font-family:Arial;fill:#000000"
           id="path1067" />
        <path
           d="m -828.86017,-2.306253 v -2.0581054 h 2.05811 v 2.0581054 z"
           style="font-style:normal;font-variant:normal;font-weight:700;font-size:15px;font-family:Arial;fill:#000000"
           id="path1069" />
        <path
           d="m -825.0882,-4.7891631 1.99219,-0.2197266 q 0.0732,0.6079102 0.38086,0.9008789 0.30762,0.2929688 0.81299,0.2929688 0.63721,0 1.08398,-0.5859375 0.44678,-0.5859375 0.57129,-2.4316406 -0.77636,0.9008789 -1.94092,0.9008789 -1.26709,0 -2.18994,-0.9741211 -0.91552,-0.9814453 -0.91552,-2.5488282 0,-1.6333005 0.96679,-2.6293945 0.97412,-1.003418 2.47559,-1.003418 1.6333,0 2.68066,1.26709 1.04737,1.259766 1.04737,4.1528319 0,2.944336 -1.09131,4.2480469 -1.09131,1.3037109 -2.8418,1.3037109 -1.25976,0 -2.03613,-0.6665039 -0.77637,-0.6738281 -0.9961,-2.0068359 z m 4.65821,-4.4970703 q 0,-0.9960936 -0.46143,-1.5454106 -0.4541,-0.549316 -1.05469,-0.549316 -0.57129,0 -0.95214,0.454102 -0.37354,0.446777 -0.37354,1.4721675 0,1.0400391 0.41016,1.5307618 0.41015,0.4833984 1.02539,0.4833984 0.59326,0 0.99609,-0.46875 0.41016,-0.46875 0.41016,-1.3769531 z"
           style="font-style:normal;font-variant:normal;font-weight:700;font-size:15px;font-family:Arial;fill:#000000"
           id="path1071" />
        <path
           d="m -815.02472,-8.09971 q -0.79834,-0.3369141 -1.16455,-0.9228516 -0.35889,-0.5932617 -0.35889,-1.2963864 0,-1.201172 0.83496,-1.984864 0.84229,-0.783691 2.3877,-0.783691 1.53076,0 2.37305,0.783691 0.84961,0.783692 0.84961,1.984864 0,0.74707 -0.38819,1.3330075 -0.38818,0.5786133 -1.09131,0.8862305 0.89356,0.3588867 1.35498,1.0473633 0.46875,0.6884766 0.46875,1.5893555 0,1.4868164 -0.95214,2.4169921 -0.94483,0.9301758 -2.51954,0.9301758 -1.46484,0 -2.43896,-0.7690429 -1.1499,-0.9082032 -1.1499,-2.4902344 0,-0.871582 0.43213,-1.5966797 0.43212,-0.7324219 1.3623,-1.1279297 z m 0.42481,-2.072754 q 0,0.6152345 0.34423,0.9594728 0.35157,0.3442382 0.93018,0.3442382 0.58594,0 0.9375,-0.3442382 0.35156,-0.3515625 0.35156,-0.9667968 0,-0.578613 -0.35156,-0.922852 -0.34424,-0.351562 -0.91553,-0.351562 -0.59326,0 -0.94482,0.351562 -0.35156,0.351563 -0.35156,0.930176 z m -0.19043,4.5996095 q 0,0.8496094 0.43212,1.3256836 0.43946,0.4760742 1.09131,0.4760742 0.63721,0 1.05469,-0.4541016 0.41748,-0.4614258 0.41748,-1.3256836 0,-0.7543945 -0.4248,-1.2084961 -0.42481,-0.4614257 -1.07666,-0.4614257 -0.7544,0 -1.12793,0.5200195 -0.36621,0.5200195 -0.36621,1.1279297 z"
           style="font-style:normal;font-variant:normal;font-weight:700;font-size:15px;font-family:Arial;fill:#000000"
           id="path1073" />
        <path
           d="m -804.96857,-13.087503 q 1.56006,0 2.43897,1.113281 1.04736,1.31836 1.04736,4.3725589 0,3.046875 -1.05469,4.3798828 -0.87158,1.0986328 -2.43164,1.0986328 -1.56738,0 -2.52685,-1.2011719 -0.95948,-1.2084961 -0.95948,-4.2993164 0,-3.0322262 1.05469,-4.3652342 0.87158,-1.098633 2.43164,-1.098633 z m 0,1.706543 q -0.37353,0 -0.6665,0.241699 -0.29297,0.234375 -0.4541,0.84961 -0.2124,0.7983394 -0.2124,2.6879879 0,1.8896484 0.19042,2.6000976 0.19043,0.703125 0.47608,0.9375 0.29297,0.234375 0.6665,0.234375 0.37354,0 0.66651,-0.234375 0.29297,-0.2416992 0.4541,-0.8569336 0.2124,-0.7910156 0.2124,-2.680664 0,-1.8896485 -0.19043,-2.5927739 -0.19043,-0.710449 -0.4834,-0.944824 -0.28564,-0.241699 -0.65918,-0.241699 z"
           style="font-style:normal;font-variant:normal;font-weight:700;font-size:15px;font-family:Arial;fill:#000000"
           id="path1075" />
        <path
           d="m -796.91193,-2.306253 -3.83789,-10.737305 h 2.35108 l 2.71728,7.9467777 2.6294,-7.9467777 h 2.2998 l -3.84521,10.737305 z"
           style="font-style:normal;font-variant:normal;font-weight:700;font-size:15px;font-family:Arial;fill:#000000"
           id="path1077" />
      </g>
      <path
         style="fill:none;stroke:#000000;stroke-width:0.88252px;stroke-linecap:round;stroke-linejoin:round;stroke-miterlimit:4;stroke-dasharray:none;stroke-opacity:1"
         d="M 59.128819,284.17134 H 51.186142"
         id="path75" />
      <g
         aria-label="-4.974V"
         transform="translate(51.186142,235.63276)"
         id="text81"
         style="font-style:normal;font-variant:normal;font-weight:700;font-size:15px;line-height:125%;font-family:Arial;text-align:start;letter-spacing:0px;word-spacing:0px;text-anchor:start;fill:#000000;fill-opacity:1;stroke:none">
        <path
           d="M -51.694336,10.715332 V 8.6572266 h 4.042969 v 2.0581054 z"
           style="font-style:normal;font-variant:normal;font-weight:700;font-size:15px;font-family:Arial;fill:#000000"
           id="path1080" />
        <path
           d="m -42.868652,13.579102 v -2.160645 h -4.394532 V 9.6166992 l 4.658204,-6.8188476 h 1.728515 V 9.609375 h 1.333008 v 1.809082 h -1.333008 v 2.160645 z m 0,-3.969727 V 5.9399414 l -2.468262,3.6694336 z"
           style="font-style:normal;font-variant:normal;font-weight:700;font-size:15px;font-family:Arial;fill:#000000"
           id="path1082" />
        <path
           d="m -38.122559,13.579102 v -2.058106 h 2.058106 v 2.058106 z"
           style="font-style:normal;font-variant:normal;font-weight:700;font-size:15px;font-family:Arial;fill:#000000"
           id="path1084" />
        <path
           d="m -34.350586,11.096191 1.992188,-0.219726 q 0.07324,0.60791 0.380859,0.900879 0.307617,0.292969 0.812988,0.292969 0.637207,0 1.083985,-0.585938 0.446777,-0.585937 0.571289,-2.4316406 -0.776368,0.9008789 -1.940918,0.9008789 -1.26709,0 -2.189942,-0.9741211 -0.915527,-0.9814453 -0.915527,-2.5488281 0,-1.6333008 0.966797,-2.6293946 0.974121,-1.0034179 2.475586,-1.0034179 1.633301,0 2.680664,1.2670898 1.047363,1.2597656 1.047363,4.152832 0,2.9443356 -1.091308,4.2480466 -1.091309,1.303711 -2.841797,1.303711 -1.259766,0 -2.036133,-0.666504 -0.776367,-0.673828 -0.996094,-2.006836 z m 4.658203,-4.4970699 q 0,-0.9960938 -0.461426,-1.5454102 -0.454101,-0.5493164 -1.054687,-0.5493164 -0.571289,0 -0.952149,0.4541016 -0.373535,0.4467773 -0.373535,1.472168 0,1.040039 0.410157,1.5307617 0.410156,0.4833984 1.02539,0.4833984 0.593262,0 0.996094,-0.46875 0.410156,-0.46875 0.410156,-1.3769531 z"
           style="font-style:normal;font-variant:normal;font-weight:700;font-size:15px;font-family:Arial;fill:#000000"
           id="path1086" />
        <path
           d="m -26.052246,4.8999023 v -1.911621 h 7.038574 v 1.4941406 q -0.871582,0.8569336 -1.772461,2.4609375 -0.900879,1.6040039 -1.376953,3.4130856 -0.46875,1.801758 -0.461426,3.222657 h -1.984863 q 0.05127,-2.226563 0.915527,-4.5410161 0.871582,-2.3144531 2.321778,-4.1381836 z"
           style="font-style:normal;font-variant:normal;font-weight:700;font-size:15px;font-family:Arial;fill:#000000"
           id="path1088" />
        <path
           d="m -13.674316,13.579102 v -2.160645 h -4.394532 V 9.6166992 l 4.658203,-6.8188476 h 1.728516 V 9.609375 h 1.333008 v 1.809082 h -1.333008 v 2.160645 z m 0,-3.969727 V 5.9399414 l -2.468262,3.6694336 z"
           style="font-style:normal;font-variant:normal;font-weight:700;font-size:15px;font-family:Arial;fill:#000000"
           id="path1090" />
        <path
           d="M -6.1743164,13.579102 -10.012207,2.8417969 h 2.3510742 l 2.7172851,7.9467771 2.6293946,-7.9467771 h 2.29980466 L -3.8598633,13.579102 Z"
           style="font-style:normal;font-variant:normal;font-weight:700;font-size:15px;font-family:Arial;fill:#000000"
           id="path1092" />
      </g>
      <path
         style="fill:none;stroke:#000000;stroke-width:0.88252px;stroke-linecap:round;stroke-linejoin:round;stroke-miterlimit:4;stroke-dasharray:none;stroke-opacity:1"
         d="M 59.128819,243.57543 H 51.186142"
         id="path83" />
      <g
         aria-label="-4.968V"
         transform="translate(51.186142,194.15433)"
         id="text89"
         style="font-style:normal;font-variant:normal;font-weight:700;font-size:15px;line-height:125%;font-family:Arial;text-align:start;letter-spacing:0px;word-spacing:0px;text-anchor:start;fill:#000000;fill-opacity:1;stroke:none">
        <path
           d="M -51.694336,10.715332 V 8.6572266 h 4.042969 v 2.0581054 z"
           style="font-style:normal;font-variant:normal;font-weight:700;font-size:15px;font-family:Arial;fill:#000000"
           id="path1095" />
        <path
           d="m -42.868652,13.579102 v -2.160645 h -4.394532 V 9.6166992 l 4.658204,-6.8188476 h 1.728515 V 9.609375 h 1.333008 v 1.809082 h -1.333008 v 2.160645 z m 0,-3.969727 V 5.9399414 l -2.468262,3.6694336 z"
           style="font-style:normal;font-variant:normal;font-weight:700;font-size:15px;font-family:Arial;fill:#000000"
           id="path1097" />
        <path
           d="m -38.122559,13.579102 v -2.058106 h 2.058106 v 2.058106 z"
           style="font-style:normal;font-variant:normal;font-weight:700;font-size:15px;font-family:Arial;fill:#000000"
           id="path1099" />
        <path
           d="m -34.350586,11.096191 1.992188,-0.219726 q 0.07324,0.60791 0.380859,0.900879 0.307617,0.292969 0.812988,0.292969 0.637207,0 1.083985,-0.585938 0.446777,-0.585937 0.571289,-2.4316406 -0.776368,0.9008789 -1.940918,0.9008789 -1.26709,0 -2.189942,-0.9741211 -0.915527,-0.9814453 -0.915527,-2.5488281 0,-1.6333008 0.966797,-2.6293946 0.974121,-1.0034179 2.475586,-1.0034179 1.633301,0 2.680664,1.2670898 1.047363,1.2597656 1.047363,4.152832 0,2.9443356 -1.091308,4.2480466 -1.091309,1.303711 -2.841797,1.303711 -1.259766,0 -2.036133,-0.666504 -0.776367,-0.673828 -0.996094,-2.006836 z m 4.658203,-4.4970699 q 0,-0.9960938 -0.461426,-1.5454102 -0.454101,-0.5493164 -1.054687,-0.5493164 -0.571289,0 -0.952149,0.4541016 -0.373535,0.4467773 -0.373535,1.472168 0,1.040039 0.410157,1.5307617 0.410156,0.4833984 1.02539,0.4833984 0.593262,0 0.996094,-0.46875 0.410156,-0.46875 0.410156,-1.3769531 z"
           style="font-style:normal;font-variant:normal;font-weight:700;font-size:15px;font-family:Arial;fill:#000000"
           id="path1101" />
        <path
           d="m -19.07959,5.4711914 -1.992187,0.2197266 q -0.07324,-0.6152344 -0.38086,-0.9082032 -0.307617,-0.2929687 -0.79834,-0.2929687 -0.651855,0 -1.105957,0.5859375 -0.446777,0.5859375 -0.563964,2.4389648 0.769043,-0.9082031 1.911621,-0.9082031 1.289062,0 2.20459,0.9814453 0.922851,0.9814453 0.922851,2.5341794 0,1.64795 -0.966797,2.644043 -0.966797,0.996094 -2.48291,0.996094 -1.625977,0 -2.67334,-1.259766 -1.047363,-1.267089 -1.047363,-4.1455074 0,-2.9516602 1.091309,-4.2553711 1.091308,-1.3037109 2.834472,-1.3037109 1.223145,0 2.021485,0.6884765 0.805664,0.6811524 1.02539,1.9848633 z m -4.665527,4.4897461 q 0,1.0034175 0.461426,1.5527345 0.461425,0.541992 1.054687,0.541992 0.571289,0 0.952149,-0.446777 0.380859,-0.446778 0.380859,-1.464844 0,-1.0473633 -0.410156,-1.5307617 -0.410157,-0.4907227 -1.025391,-0.4907227 -0.593262,0 -1.003418,0.46875 -0.410156,0.4614258 -0.410156,1.3696289 z"
           style="font-style:normal;font-variant:normal;font-weight:700;font-size:15px;font-family:Arial;fill:#000000"
           id="path1103" />
        <path
           d="m -15.944824,7.7856445 q -0.79834,-0.336914 -1.164551,-0.9228515 -0.358887,-0.5932618 -0.358887,-1.2963868 0,-1.2011718 0.834961,-1.9848632 0.842285,-0.7836914 2.387696,-0.7836914 1.530761,0 2.373046,0.7836914 0.84961,0.7836914 0.84961,1.9848632 0,0.7470704 -0.388184,1.3330079 -0.388183,0.5786132 -1.091308,0.8862304 0.893554,0.3588868 1.35498,1.0473633 0.46875,0.6884766 0.46875,1.5893552 0,1.486817 -0.952148,2.416992 -0.944825,0.930176 -2.519532,0.930176 -1.464843,0 -2.438964,-0.769043 -1.149903,-0.908203 -1.149903,-2.490234 0,-0.8715821 0.432129,-1.5966798 0.432129,-0.7324219 1.362305,-1.1279297 z m 0.424804,-2.0727539 q 0,0.6152344 0.344239,0.9594727 0.351562,0.3442383 0.930176,0.3442383 0.585937,0 0.9375,-0.3442383 0.351562,-0.3515625 0.351562,-0.9667969 0,-0.5786133 -0.351562,-0.9228516 -0.344239,-0.3515625 -0.915528,-0.3515625 -0.593262,0 -0.944824,0.3515625 -0.351563,0.3515625 -0.351563,0.9301758 z M -15.710449,10.3125 q 0,0.849609 0.432129,1.325684 0.439453,0.476074 1.091308,0.476074 0.637207,0 1.054688,-0.454102 0.41748,-0.461426 0.41748,-1.325683 0,-0.7543949 -0.424804,-1.2084964 -0.424805,-0.4614258 -1.076661,-0.4614258 -0.754394,0 -1.127929,0.5200195 -0.366211,0.5200195 -0.366211,1.1279297 z"
           style="font-style:normal;font-variant:normal;font-weight:700;font-size:15px;font-family:Arial;fill:#000000"
           id="path1105" />
        <path
           d="M -6.1743164,13.579102 -10.012207,2.8417969 h 2.3510742 l 2.7172851,7.9467771 2.6293946,-7.9467771 h 2.29980466 L -3.8598633,13.579102 Z"
           style="font-style:normal;font-variant:normal;font-weight:700;font-size:15px;font-family:Arial;fill:#000000"
           id="path1107" />
      </g>
      <path
         style="fill:none;stroke:#000000;stroke-width:0.88252px;stroke-linecap:round;stroke-linejoin:round;stroke-miterlimit:4;stroke-dasharray:none;stroke-opacity:1"
         d="M 59.128819,202.09701 H 51.186142"
         id="path91" />
      <g
         aria-label="-4.962V"
         transform="translate(51.186142,153.55842)"
         id="text97"
         style="font-style:normal;font-variant:normal;font-weight:700;font-size:15px;line-height:125%;font-family:Arial;text-align:start;letter-spacing:0px;word-spacing:0px;text-anchor:start;fill:#000000;fill-opacity:1;stroke:none">
        <path
           d="M -51.694336,10.715332 V 8.6572266 h 4.042969 v 2.0581054 z"
           style="font-style:normal;font-variant:normal;font-weight:700;font-size:15px;font-family:Arial;fill:#000000"
           id="path1110" />
        <path
           d="m -42.868652,13.579102 v -2.160645 h -4.394532 V 9.6166992 l 4.658204,-6.8188476 h 1.728515 V 9.609375 h 1.333008 v 1.809082 h -1.333008 v 2.160645 z m 0,-3.969727 V 5.9399414 l -2.468262,3.6694336 z"
           style="font-style:normal;font-variant:normal;font-weight:700;font-size:15px;font-family:Arial;fill:#000000"
           id="path1112" />
        <path
           d="m -38.122559,13.579102 v -2.058106 h 2.058106 v 2.058106 z"
           style="font-style:normal;font-variant:normal;font-weight:700;font-size:15px;font-family:Arial;fill:#000000"
           id="path1114" />
        <path
           d="m -34.350586,11.096191 1.992188,-0.219726 q 0.07324,0.60791 0.380859,0.900879 0.307617,0.292969 0.812988,0.292969 0.637207,0 1.083985,-0.585938 0.446777,-0.585937 0.571289,-2.4316406 -0.776368,0.9008789 -1.940918,0.9008789 -1.26709,0 -2.189942,-0.9741211 -0.915527,-0.9814453 -0.915527,-2.5488281 0,-1.6333008 0.966797,-2.6293946 0.974121,-1.0034179 2.475586,-1.0034179 1.633301,0 2.680664,1.2670898 1.047363,1.2597656 1.047363,4.152832 0,2.9443356 -1.091308,4.2480466 -1.091309,1.303711 -2.841797,1.303711 -1.259766,0 -2.036133,-0.666504 -0.776367,-0.673828 -0.996094,-2.006836 z m 4.658203,-4.4970699 q 0,-0.9960938 -0.461426,-1.5454102 -0.454101,-0.5493164 -1.054687,-0.5493164 -0.571289,0 -0.952149,0.4541016 -0.373535,0.4467773 -0.373535,1.472168 0,1.040039 0.410157,1.5307617 0.410156,0.4833984 1.02539,0.4833984 0.593262,0 0.996094,-0.46875 0.410156,-0.46875 0.410156,-1.3769531 z"
           style="font-style:normal;font-variant:normal;font-weight:700;font-size:15px;font-family:Arial;fill:#000000"
           id="path1116" />
        <path
           d="m -19.07959,5.4711914 -1.992187,0.2197266 q -0.07324,-0.6152344 -0.38086,-0.9082032 -0.307617,-0.2929687 -0.79834,-0.2929687 -0.651855,0 -1.105957,0.5859375 -0.446777,0.5859375 -0.563964,2.4389648 0.769043,-0.9082031 1.911621,-0.9082031 1.289062,0 2.20459,0.9814453 0.922851,0.9814453 0.922851,2.5341794 0,1.64795 -0.966797,2.644043 -0.966797,0.996094 -2.48291,0.996094 -1.625977,0 -2.67334,-1.259766 -1.047363,-1.267089 -1.047363,-4.1455074 0,-2.9516602 1.091309,-4.2553711 1.091308,-1.3037109 2.834472,-1.3037109 1.223145,0 2.021485,0.6884765 0.805664,0.6811524 1.02539,1.9848633 z m -4.665527,4.4897461 q 0,1.0034175 0.461426,1.5527345 0.461425,0.541992 1.054687,0.541992 0.571289,0 0.952149,-0.446777 0.380859,-0.446778 0.380859,-1.464844 0,-1.0473633 -0.410156,-1.5307617 -0.410157,-0.4907227 -1.025391,-0.4907227 -0.593262,0 -1.003418,0.46875 -0.410156,0.4614258 -0.410156,1.3696289 z"
           style="font-style:normal;font-variant:normal;font-weight:700;font-size:15px;font-family:Arial;fill:#000000"
           id="path1118" />
        <path
           d="m -10.759277,11.66748 v 1.911622 h -7.214356 q 0.117188,-1.083985 0.703125,-2.050782 0.585938,-0.974121 2.314453,-2.5781247 1.391602,-1.2963867 1.706543,-1.7578125 0.424805,-0.637207 0.424805,-1.2597656 0,-0.6884766 -0.373535,-1.0546875 -0.366211,-0.3735352 -1.018067,-0.3735352 -0.644531,0 -1.02539,0.3881836 -0.38086,0.3881836 -0.439453,1.2890625 l -2.050782,-0.2050781 q 0.183106,-1.6992188 1.149903,-2.4389648 0.966797,-0.7397461 2.416992,-0.7397461 1.589355,0 2.497559,0.8569336 0.908203,0.8569335 0.908203,2.1313476 0,0.7250977 -0.263672,1.3842774 -0.256348,0.6518554 -0.820313,1.3696289 -0.373535,0.4760742 -1.347656,1.3696289 -0.974121,0.893555 -1.237793,1.186523 -0.256348,0.292969 -0.41748,0.571289 z"
           style="font-style:normal;font-variant:normal;font-weight:700;font-size:15px;font-family:Arial;fill:#000000"
           id="path1120" />
        <path
           d="M -6.1743164,13.579102 -10.012207,2.8417969 h 2.3510742 l 2.7172851,7.9467771 2.6293946,-7.9467771 h 2.29980466 L -3.8598633,13.579102 Z"
           style="font-style:normal;font-variant:normal;font-weight:700;font-size:15px;font-family:Arial;fill:#000000"
           id="path1122" />
      </g>
      <path
         style="fill:none;stroke:#000000;stroke-width:0.88252px;stroke-linecap:round;stroke-linejoin:round;stroke-miterlimit:4;stroke-dasharray:none;stroke-opacity:1"
         d="M 59.128819,161.5011 H 51.186142"
         id="path99" />
      <g
         aria-label="-4.956V"
         transform="translate(51.186142,112.96252)"
         id="text105"
         style="font-style:normal;font-variant:normal;font-weight:700;font-size:15px;line-height:125%;font-family:Arial;text-align:start;letter-spacing:0px;word-spacing:0px;text-anchor:start;fill:#000000;fill-opacity:1;stroke:none">
        <path
           d="M -51.694336,10.715332 V 8.6572266 h 4.042969 v 2.0581054 z"
           style="font-style:normal;font-variant:normal;font-weight:700;font-size:15px;font-family:Arial;fill:#000000"
           id="path1125" />
        <path
           d="m -42.868652,13.579102 v -2.160645 h -4.394532 V 9.6166992 l 4.658204,-6.8188476 h 1.728515 V 9.609375 h 1.333008 v 1.809082 h -1.333008 v 2.160645 z m 0,-3.969727 V 5.9399414 l -2.468262,3.6694336 z"
           style="font-style:normal;font-variant:normal;font-weight:700;font-size:15px;font-family:Arial;fill:#000000"
           id="path1127" />
        <path
           d="m -38.122559,13.579102 v -2.058106 h 2.058106 v 2.058106 z"
           style="font-style:normal;font-variant:normal;font-weight:700;font-size:15px;font-family:Arial;fill:#000000"
           id="path1129" />
        <path
           d="m -34.350586,11.096191 1.992188,-0.219726 q 0.07324,0.60791 0.380859,0.900879 0.307617,0.292969 0.812988,0.292969 0.637207,0 1.083985,-0.585938 0.446777,-0.585937 0.571289,-2.4316406 -0.776368,0.9008789 -1.940918,0.9008789 -1.26709,0 -2.189942,-0.9741211 -0.915527,-0.9814453 -0.915527,-2.5488281 0,-1.6333008 0.966797,-2.6293946 0.974121,-1.0034179 2.475586,-1.0034179 1.633301,0 2.680664,1.2670898 1.047363,1.2597656 1.047363,4.152832 0,2.9443356 -1.091308,4.2480466 -1.091309,1.303711 -2.841797,1.303711 -1.259766,0 -2.036133,-0.666504 -0.776367,-0.673828 -0.996094,-2.006836 z m 4.658203,-4.4970699 q 0,-0.9960938 -0.461426,-1.5454102 -0.454101,-0.5493164 -1.054687,-0.5493164 -0.571289,0 -0.952149,0.4541016 -0.373535,0.4467773 -0.373535,1.472168 0,1.040039 0.410157,1.5307617 0.410156,0.4833984 1.02539,0.4833984 0.593262,0 0.996094,-0.46875 0.410156,-0.46875 0.410156,-1.3769531 z"
           style="font-style:normal;font-variant:normal;font-weight:700;font-size:15px;font-family:Arial;fill:#000000"
           id="path1131" />
        <path
           d="m -26.022949,10.817871 2.050781,-0.212402 q 0.08789,0.695801 0.52002,1.105957 0.432128,0.402832 0.996093,0.402832 0.644532,0 1.091309,-0.52002 0.446777,-0.527343 0.446777,-1.582031 0,-0.9887695 -0.446777,-1.4794922 -0.439453,-0.4980468 -1.149902,-0.4980468 -0.886231,0 -1.589356,0.7836914 l -1.669922,-0.2416992 1.054688,-5.5883789 h 5.441894 v 1.9262695 h -3.881836 l -0.322265,1.8237304 q 0.688476,-0.3442382 1.40625,-0.3442382 1.369629,0 2.321777,0.9960937 0.952148,0.9960938 0.952148,2.5854492 0,1.3256841 -0.769042,2.3657231 -1.047364,1.420898 -2.907715,1.420898 -1.486817,0 -2.424317,-0.79834 -0.9375,-0.79834 -1.120605,-2.145996 z"
           style="font-style:normal;font-variant:normal;font-weight:700;font-size:15px;font-family:Arial;fill:#000000"
           id="path1133" />
        <path
           d="m -10.737305,5.4711914 -1.992187,0.2197266 q -0.07324,-0.6152344 -0.38086,-0.9082032 -0.307617,-0.2929687 -0.798339,-0.2929687 -0.651856,0 -1.105957,0.5859375 -0.446778,0.5859375 -0.563965,2.4389648 0.769043,-0.9082031 1.911621,-0.9082031 1.289062,0 2.20459,0.9814453 0.922851,0.9814453 0.922851,2.5341794 0,1.64795 -0.966797,2.644043 -0.966797,0.996094 -2.48291,0.996094 -1.625976,0 -2.67334,-1.259766 -1.047363,-1.267089 -1.047363,-4.1455074 0,-2.9516602 1.091309,-4.2553711 1.091308,-1.3037109 2.834472,-1.3037109 1.223145,0 2.021485,0.6884765 0.805664,0.6811524 1.02539,1.9848633 z m -4.665527,4.4897461 q 0,1.0034175 0.461426,1.5527345 0.461426,0.541992 1.054687,0.541992 0.571289,0 0.952149,-0.446777 0.380859,-0.446778 0.380859,-1.464844 0,-1.0473633 -0.410156,-1.5307617 -0.410156,-0.4907227 -1.025391,-0.4907227 -0.593262,0 -1.003418,0.46875 -0.410156,0.4614258 -0.410156,1.3696289 z"
           style="font-style:normal;font-variant:normal;font-weight:700;font-size:15px;font-family:Arial;fill:#000000"
           id="path1135" />
        <path
           d="M -6.1743164,13.579102 -10.012207,2.8417969 h 2.3510742 l 2.7172851,7.9467771 2.6293946,-7.9467771 h 2.29980466 L -3.8598633,13.579102 Z"
           style="font-style:normal;font-variant:normal;font-weight:700;font-size:15px;font-family:Arial;fill:#000000"
           id="path1137" />
      </g>
      <path
         style="fill:none;stroke:#000000;stroke-width:0.88252px;stroke-linecap:round;stroke-linejoin:round;stroke-miterlimit:4;stroke-dasharray:none;stroke-opacity:1"
         d="M 59.128819,120.9052 H 51.186142"
         id="path107" />
      <g
         aria-label="-4.950V"
         transform="translate(51.186142,71.484094)"
         id="text113"
         style="font-style:normal;font-variant:normal;font-weight:700;font-size:15px;line-height:125%;font-family:Arial;text-align:start;letter-spacing:0px;word-spacing:0px;text-anchor:start;fill:#000000;fill-opacity:1;stroke:none">
        <path
           d="M -51.694336,10.715332 V 8.6572266 h 4.042969 v 2.0581054 z"
           style="font-style:normal;font-variant:normal;font-weight:700;font-size:15px;font-family:Arial;fill:#000000"
           id="path1140" />
        <path
           d="m -42.868652,13.579102 v -2.160645 h -4.394532 V 9.6166992 l 4.658204,-6.8188476 h 1.728515 V 9.609375 h 1.333008 v 1.809082 h -1.333008 v 2.160645 z m 0,-3.969727 V 5.9399414 l -2.468262,3.6694336 z"
           style="font-style:normal;font-variant:normal;font-weight:700;font-size:15px;font-family:Arial;fill:#000000"
           id="path1142" />
        <path
           d="m -38.122559,13.579102 v -2.058106 h 2.058106 v 2.058106 z"
           style="font-style:normal;font-variant:normal;font-weight:700;font-size:15px;font-family:Arial;fill:#000000"
           id="path1144" />
        <path
           d="m -34.350586,11.096191 1.992188,-0.219726 q 0.07324,0.60791 0.380859,0.900879 0.307617,0.292969 0.812988,0.292969 0.637207,0 1.083985,-0.585938 0.446777,-0.585937 0.571289,-2.4316406 -0.776368,0.9008789 -1.940918,0.9008789 -1.26709,0 -2.189942,-0.9741211 -0.915527,-0.9814453 -0.915527,-2.5488281 0,-1.6333008 0.966797,-2.6293946 0.974121,-1.0034179 2.475586,-1.0034179 1.633301,0 2.680664,1.2670898 1.047363,1.2597656 1.047363,4.152832 0,2.9443356 -1.091308,4.2480466 -1.091309,1.303711 -2.841797,1.303711 -1.259766,0 -2.036133,-0.666504 -0.776367,-0.673828 -0.996094,-2.006836 z m 4.658203,-4.4970699 q 0,-0.9960938 -0.461426,-1.5454102 -0.454101,-0.5493164 -1.054687,-0.5493164 -0.571289,0 -0.952149,0.4541016 -0.373535,0.4467773 -0.373535,1.472168 0,1.040039 0.410157,1.5307617 0.410156,0.4833984 1.02539,0.4833984 0.593262,0 0.996094,-0.46875 0.410156,-0.46875 0.410156,-1.3769531 z"
           style="font-style:normal;font-variant:normal;font-weight:700;font-size:15px;font-family:Arial;fill:#000000"
           id="path1146" />
        <path
           d="m -26.022949,10.817871 2.050781,-0.212402 q 0.08789,0.695801 0.52002,1.105957 0.432128,0.402832 0.996093,0.402832 0.644532,0 1.091309,-0.52002 0.446777,-0.527343 0.446777,-1.582031 0,-0.9887695 -0.446777,-1.4794922 -0.439453,-0.4980468 -1.149902,-0.4980468 -0.886231,0 -1.589356,0.7836914 l -1.669922,-0.2416992 1.054688,-5.5883789 h 5.441894 v 1.9262695 h -3.881836 l -0.322265,1.8237304 q 0.688476,-0.3442382 1.40625,-0.3442382 1.369629,0 2.321777,0.9960937 0.952148,0.9960938 0.952148,2.5854492 0,1.3256841 -0.769042,2.3657231 -1.047364,1.420898 -2.907715,1.420898 -1.486817,0 -2.424317,-0.79834 -0.9375,-0.79834 -1.120605,-2.145996 z"
           style="font-style:normal;font-variant:normal;font-weight:700;font-size:15px;font-family:Arial;fill:#000000"
           id="path1148" />
        <path
           d="m -14.230957,2.7978516 q 1.560059,0 2.438965,1.1132812 1.047363,1.3183594 1.047363,4.3725586 0,3.0468746 -1.054687,4.3798826 -0.871582,1.098633 -2.431641,1.098633 -1.567383,0 -2.526855,-1.201172 -0.959473,-1.208496 -0.959473,-4.2993162 0,-3.0322266 1.054687,-4.3652344 0.871582,-1.0986328 2.431641,-1.0986328 z m 0,1.7065429 q -0.373535,0 -0.666504,0.2416992 -0.292969,0.234375 -0.454102,0.8496094 -0.212402,0.7983399 -0.212402,2.6879883 0,1.8896486 0.19043,2.6000976 0.19043,0.703125 0.476074,0.9375 0.292969,0.234375 0.666504,0.234375 0.373535,0 0.666504,-0.234375 0.292969,-0.241699 0.454101,-0.856934 0.212403,-0.791015 0.212403,-2.6806636 0,-1.8896484 -0.19043,-2.5927734 -0.19043,-0.7104493 -0.483398,-0.9448243 -0.285645,-0.2416992 -0.65918,-0.2416992 z"
           style="font-style:normal;font-variant:normal;font-weight:700;font-size:15px;font-family:Arial;fill:#000000"
           id="path1150" />
        <path
           d="M -6.1743164,13.579102 -10.012207,2.8417969 h 2.3510742 l 2.7172851,7.9467771 2.6293946,-7.9467771 h 2.29980466 L -3.8598633,13.579102 Z"
           style="font-style:normal;font-variant:normal;font-weight:700;font-size:15px;font-family:Arial;fill:#000000"
           id="path1152" />
      </g>
      <path
         style="fill:none;stroke:#000000;stroke-width:0.88252px;stroke-linecap:round;stroke-linejoin:round;stroke-miterlimit:4;stroke-dasharray:none;stroke-opacity:1"
         d="M 59.128819,79.426772 H 51.186142"
         id="path115" />
      <g
         aria-label="-4.944V"
         transform="translate(51.186142,30.888189)"
         id="text121"
         style="font-style:normal;font-variant:normal;font-weight:700;font-size:15px;line-height:125%;font-family:Arial;text-align:start;letter-spacing:0px;word-spacing:0px;text-anchor:start;fill:#000000;fill-opacity:1;stroke:none">
        <path
           d="M -51.694336,10.715332 V 8.6572266 h 4.042969 v 2.0581054 z"
           style="font-style:normal;font-variant:normal;font-weight:700;font-size:15px;font-family:Arial;fill:#000000"
           id="path1155" />
        <path
           d="m -42.868652,13.579102 v -2.160645 h -4.394532 V 9.6166992 l 4.658204,-6.8188476 h 1.728515 V 9.609375 h 1.333008 v 1.809082 h -1.333008 v 2.160645 z m 0,-3.969727 V 5.9399414 l -2.468262,3.6694336 z"
           style="font-style:normal;font-variant:normal;font-weight:700;font-size:15px;font-family:Arial;fill:#000000"
           id="path1157" />
        <path
           d="m -38.122559,13.579102 v -2.058106 h 2.058106 v 2.058106 z"
           style="font-style:normal;font-variant:normal;font-weight:700;font-size:15px;font-family:Arial;fill:#000000"
           id="path1159" />
        <path
           d="m -34.350586,11.096191 1.992188,-0.219726 q 0.07324,0.60791 0.380859,0.900879 0.307617,0.292969 0.812988,0.292969 0.637207,0 1.083985,-0.585938 0.446777,-0.585937 0.571289,-2.4316406 -0.776368,0.9008789 -1.940918,0.9008789 -1.26709,0 -2.189942,-0.9741211 -0.915527,-0.9814453 -0.915527,-2.5488281 0,-1.6333008 0.966797,-2.6293946 0.974121,-1.0034179 2.475586,-1.0034179 1.633301,0 2.680664,1.2670898 1.047363,1.2597656 1.047363,4.152832 0,2.9443356 -1.091308,4.2480466 -1.091309,1.303711 -2.841797,1.303711 -1.259766,0 -2.036133,-0.666504 -0.776367,-0.673828 -0.996094,-2.006836 z m 4.658203,-4.4970699 q 0,-0.9960938 -0.461426,-1.5454102 -0.454101,-0.5493164 -1.054687,-0.5493164 -0.571289,0 -0.952149,0.4541016 -0.373535,0.4467773 -0.373535,1.472168 0,1.040039 0.410157,1.5307617 0.410156,0.4833984 1.02539,0.4833984 0.593262,0 0.996094,-0.46875 0.410156,-0.46875 0.410156,-1.3769531 z"
           style="font-style:normal;font-variant:normal;font-weight:700;font-size:15px;font-family:Arial;fill:#000000"
           id="path1161" />
        <path
           d="m -22.016602,13.579102 v -2.160645 h -4.394531 V 9.6166992 l 4.658203,-6.8188476 h 1.728516 V 9.609375 h 1.333008 v 1.809082 h -1.333008 v 2.160645 z m 0,-3.969727 V 5.9399414 l -2.468261,3.6694336 z"
           style="font-style:normal;font-variant:normal;font-weight:700;font-size:15px;font-family:Arial;fill:#000000"
           id="path1163" />
        <path
           d="m -13.674316,13.579102 v -2.160645 h -4.394532 V 9.6166992 l 4.658203,-6.8188476 h 1.728516 V 9.609375 h 1.333008 v 1.809082 h -1.333008 v 2.160645 z m 0,-3.969727 V 5.9399414 l -2.468262,3.6694336 z"
           style="font-style:normal;font-variant:normal;font-weight:700;font-size:15px;font-family:Arial;fill:#000000"
           id="path1165" />
        <path
           d="M -6.1743164,13.579102 -10.012207,2.8417969 h 2.3510742 l 2.7172851,7.9467771 2.6293946,-7.9467771 h 2.29980466 L -3.8598633,13.579102 Z"
           style="font-style:normal;font-variant:normal;font-weight:700;font-size:15px;font-family:Arial;fill:#000000"
           id="path1167" />
      </g>
      <path
         style="fill:none;stroke:#000000;stroke-width:0.88252px;stroke-linecap:round;stroke-linejoin:round;stroke-miterlimit:4;stroke-dasharray:none;stroke-opacity:1"
         d="M 59.128819,38.830866 H 51.186142"
         id="path123" />
      <path
         style="fill:none;stroke:#000000;stroke-width:0.88252px;stroke-linecap:round;stroke-linejoin:round;stroke-miterlimit:4;stroke-dasharray:none;stroke-opacity:1"
         d="M 59.128819,18.532913 H 821.62583 V 284.17134 H 59.128819 V 18.532913"
         id="path125" />
      <g
         aria-label="V(out)"
         transform="translate(440.37732)"
         id="text131"
         style="font-style:normal;font-variant:normal;font-weight:700;font-size:15px;line-height:125%;font-family:Arial;text-align:start;letter-spacing:0px;word-spacing:0px;text-anchor:start;fill:#008000;fill-opacity:1;stroke:none">
        <path
           d="M -17.827148,13.579102 -21.665039,2.8417969 h 2.351074 l 2.717285,7.9467771 2.629395,-7.9467771 h 2.299805 l -3.845215,10.7373051 z"
           style="font-style:normal;font-variant:normal;font-weight:700;font-size:15px;font-family:Arial;fill:#008000"
           id="path964" />
        <path
           d="m -7.1630859,16.73584 h -1.4135743 q -1.1206054,-1.691895 -1.7065428,-3.515625 -0.585938,-1.823731 -0.585938,-3.5302736 0,-2.1166992 0.725098,-4.0063477 0.6298828,-1.640625 1.5966797,-3.0249023 h 1.40625 q -1.003418,2.2192383 -1.3842773,3.7792969 -0.3735352,1.5527344 -0.3735352,3.2958984 0,1.2011723 0.2197266,2.4609373 0.2270508,1.259766 0.6152344,2.39502 0.2563476,0.74707 0.9008789,2.145996 z"
           style="font-style:normal;font-variant:normal;font-weight:700;font-size:15px;font-family:Arial;fill:#008000"
           id="path966" />
        <path
           d="m -6.0571289,9.5800781 q 0,-1.0253906 0.5053711,-1.9848633 Q -5.0463867,6.6357422 -4.1235352,6.1303711 -3.1933594,5.625 -2.0507813,5.625 q 1.76513677,0 2.89306646,1.1499023 1.12792964,1.1425782 1.12792964,2.8930665 0,1.7651362 -1.14257808,2.9296872 -1.13525391,1.157227 -2.86376952,1.157227 -1.069336,0 -2.043457,-0.483399 -0.9667969,-0.483398 -1.472168,-1.413574 -0.5053711,-0.9375 -0.5053711,-2.2778319 z m 2.109375,0.1098633 q 0,1.1572266 0.5493164,1.7724606 0.5493164,0.615235 1.3549805,0.615235 0.805664,0 1.34765622,-0.615235 0.54931641,-0.615234 0.54931641,-1.787109 0,-1.1425782 -0.54931641,-1.7578125 Q -1.237793,7.3022461 -2.043457,7.3022461 q -0.8056641,0 -1.3549805,0.6152344 -0.5493164,0.6152343 -0.5493164,1.7724609 z"
           style="font-style:normal;font-variant:normal;font-weight:700;font-size:15px;font-family:Arial;fill:#008000"
           id="path968" />
        <path
           d="m 8.7011719,13.579102 v -1.164551 q -0.4248047,0.622558 -1.1206055,0.981445 -0.6884766,0.358887 -1.4575195,0.358887 -0.7836914,0 -1.40625,-0.344238 Q 4.0942383,13.066406 3.815918,12.443848 3.5375977,11.821289 3.5375977,10.722656 V 5.8007812 H 5.5957031 V 9.375 q 0,1.640625 0.1098633,2.01416 0.1171875,0.366211 0.4174805,0.585938 0.3002929,0.212402 0.7617187,0.212402 0.5273438,0 0.9448242,-0.285645 0.4174805,-0.292968 0.5712891,-0.717773 0.1538086,-0.432129 0.1538086,-2.1020507 V 5.8007812 h 2.0581055 v 7.7783208 z"
           style="font-style:normal;font-variant:normal;font-weight:700;font-size:15px;font-family:Arial;fill:#008000"
           id="path970" />
        <path
           d="m 16.311035,5.8007812 v 1.640625 h -1.40625 v 3.1347658 q 0,0.952148 0.03662,1.113281 0.04395,0.153809 0.183106,0.256348 0.146484,0.102539 0.351562,0.102539 0.285645,0 0.827637,-0.197754 l 0.175781,1.59668 q -0.717773,0.307617 -1.625976,0.307617 -0.556641,0 -1.003418,-0.183106 -0.446778,-0.190429 -0.65918,-0.483398 -0.205078,-0.300293 -0.285645,-0.805664 -0.06592,-0.358887 -0.06592,-1.450195 V 7.4414062 h -0.944824 v -1.640625 h 0.944824 V 4.2553711 l 2.06543,-1.2011719 v 2.746582 z"
           style="font-style:normal;font-variant:normal;font-weight:700;font-size:15px;font-family:Arial;fill:#008000"
           id="path972" />
        <path
           d="m 17.167969,16.73584 q 0.60791,-1.303711 0.856933,-1.999512 0.249024,-0.695801 0.461426,-1.604004 0.212402,-0.908203 0.314942,-1.721191 0.102539,-0.820313 0.102539,-1.6772463 0,-1.743164 -0.373536,-3.2958984 Q 18.156738,4.8779297 17.15332,2.6586914 h 1.398926 q 1.105957,1.574707 1.713867,3.3398438 0.615235,1.7651367 0.615235,3.5815429 0,1.5307619 -0.483399,3.2812499 -0.549316,1.962891 -1.809082,3.874512 z"
           style="font-style:normal;font-variant:normal;font-weight:700;font-size:15px;font-family:Arial;fill:#008000"
           id="path974" />
      </g>
      <path
         style="fill:none;stroke:#008000;stroke-width:0.88252px;stroke-linecap:round;stroke-linejoin:round;stroke-miterlimit:4;stroke-dasharray:none;stroke-opacity:1"
         d="m 59.128819,231.22016 2.647559,-1.76504 0.88252,-1.76504 v -9.70772 -23.82803 -43.24346 -30.88819 l 0.882519,-30.888192 v -19.415433 -2.647559 -2.647559 -1.765039 -1.76504 h 1.76504 l 0.882519,-1.765039 1.76504,-0.88252 1.765039,-1.765039 2.647559,-1.76504 5.295118,-4.412598 11.472756,-8.825197 15.885352,-12.355275 1.76504,-0.88252 0.88252,-1.765039 v 1.765039 3.530079 12.355275 l 0.88252,42.360945 v 66.188981 41.47842 34.41827 22.94551 l 0.88252,8.8252 1.76504,-1.76504 1.76504,-0.88252 2.64756,-2.64756 6.17764,-4.4126 11.47275,-8.8252 5.29512,-4.41259 9.70772,-7.94268 v -8.8252 l 0.88252,-15.88535 V 172.97386 135.02551 101.48976 78.544252 l 0.88252,-14.120315 v -1.765039 -1.76504 l 1.76504,-0.882519 1.76504,-1.76504 2.64755,-1.765039 2.64756,-2.647559 3.53008,-2.647559 7.06016,-5.295118 7.94268,-6.177638 14.12031,-10.590236 0.88252,-1.76504 0.88252,1.76504 0.88252,1.765039 v 8.825197 30.888189 64.423935 59.12882 l 0.88252,34.41827 v 23.82803 7.94268 l 1.76504,-0.88252 1.76504,-1.76504 2.64756,-2.64756 5.29512,-4.4126 11.47275,-8.8252 1.76504,-0.88252 4.4126,-3.53007 9.70772,-7.94268 0.88252,-5.29512 v -12.35528 -28.24063 -41.47842 -33.53575 l 0.88252,-27.358109 v -15.002835 -1.765039 -1.765039 -1.76504 l 1.76504,-0.882519 1.76503,-0.88252 1.76504,-1.765039 1.76504,-0.88252 2.64756,-2.647559 3.53008,-2.647559 6.17764,-5.295118 10.59024,-7.942678 11.47275,-8.825196 1.76504,-1.76504 0.88252,1.76504 v 2.647559 11.472756 42.360944 l 0.88252,64.423941 v 42.36094 35.30079 23.82803 8.8252 l 1.76504,-0.88252 1.76504,-1.76504 2.64756,-2.64756 6.17764,-4.4126 10.59023,-8.8252 2.64756,-1.76504 3.53008,-2.64755 9.70772,-7.94268 0.88252,-10.59024 v -21.18047 -42.36095 -32.65322 l 0.88252,-30.005673 v -22.062992 -2.647559 -3.530079 -1.765039 -1.76504 l 1.76503,-0.882519 1.76504,-1.76504 1.76504,-0.882519 1.76504,-1.76504 3.53008,-2.647559 18.53291,-14.120315 12.35528,-9.707716 1.76504,-1.76504 0.88252,3.530079 v 8.825197 30.005669 l 0.88252,64.423935 v 60.01134 34.41827 23.82803 7.94268 l 1.76504,-0.88252 1.76504,-1.76504 2.64756,-2.64756 6.17763,-4.4126 10.59024,-8.8252 15.88536,-12.35527 0.88252,-4.4126 v -9.70772 -22.94551 l 0.88251,-47.65606 V 109.43244 81.191811 66.188976 64.423937 62.658898 l 0.88252,-1.76504 1.76504,-0.882519 1.76504,-1.76504 1.76504,-0.882519 1.76504,-1.76504 2.64756,-2.647559 6.17764,-4.412598 11.47275,-9.707717 13.2378,-9.707716 1.76504,-0.88252 0.88252,-1.765039 v 1.765039 3.530079 13.237795 l 0.88252,44.125984 v 67.954012 38.83087 33.53575 22.94551 l 0.88252,7.94268 1.76504,-1.76504 1.76504,-0.88252 2.64756,-2.64756 6.17763,-5.29512 12.35528,-8.8252 14.12031,-11.47275 v -4.4126 -9.70772 l 0.88252,-22.94551 V 144.73323 109.43244 81.191811 66.188976 l 0.88252,-1.765039 v -1.765039 -1.76504 l 1.76504,-0.882519 1.76504,-1.76504 1.76504,-0.882519 1.76504,-1.76504 2.64756,-2.647559 6.17764,-4.412598 12.35527,-9.707717 2.64756,-1.765039 5.29512,-4.412599 1.76504,-0.882519 1.76504,-1.76504 1.76504,-1.765039 1.76504,-0.88252 0.88252,1.76504 v 2.647559 12.355275 42.360945 l 0.88252,66.188981 v 41.47842 34.41827 23.82803 7.94268 l 1.76504,-0.88252 1.76504,-1.76504 3.53008,-2.64756 5.29511,-4.4126 11.47276,-8.8252 15.88535,-12.35527 v -4.4126 -9.70772 l 0.88252,-22.94551 V 144.73323 109.43244 81.191811 66.188976 64.423937 l 0.88252,-1.765039 v -1.76504 l 1.76504,-0.882519 1.76504,-1.76504 1.76504,-0.882519 1.76504,-1.76504 2.64756,-2.647559 6.17764,-4.412598 12.35527,-9.707717 12.35528,-9.707716 1.76504,-0.88252 0.88252,-1.765039 v 1.765039 l 0.88252,5.295118 v 16.767874 45.891024 82.074334 30.88819 l 0.88252,30.88818 v 16.76788 3.53008 l 1.76504,-1.76504 1.76504,-0.88252 2.64755,-2.64756 5.29512,-4.4126 11.47276,-8.8252 15.88535,-12.35527 0.88252,-4.4126 v -9.70772 -22.94551 -47.65606 -35.30079 l 0.88252,-28.240629 v -15.002835 -1.765039 -1.765039 -1.76504 l 1.76504,-0.882519 1.76504,-0.88252 1.76504,-1.765039 1.76504,-1.76504 3.53008,-2.647559 6.17764,-4.412598 11.47275,-9.707717 2.64756,-1.765039 10.59024,-7.942677 1.76504,-0.88252 v -1.765039 l 0.88252,1.765039 v 3.530079 12.355275 41.478425 l 0.88252,64.423941 v 43.24346 34.41827 23.82803 7.94268 h 1.76504 l 1.76504,-1.76504 2.64755,-2.64756 6.17764,-4.4126 10.59024,-8.8252 2.64756,-1.76504 3.53008,-2.64755 9.70771,-7.94268 0.88252,-6.17764 v -13.23779 -29.12315 -40.59591 l 0.88252,-33.53575 V 80.309291 65.306457 63.541417 61.776378 l 1.76504,-0.88252 0.88252,-1.765039 1.76504,-0.88252 2.64756,-2.647559 2.64756,-1.765039 4.4126,-3.530079 9.70771,-7.942677 17.6504,-13.237795 1.76504,-0.88252 v -1.765039 l 0.88252,1.765039 v 3.530079 12.355275 l 0.88252,43.243465 v 66.188981 40.5959 34.41827 22.94551 l 0.88252,8.8252 1.76503,-1.76504 1.76504,-0.88252 2.64756,-2.64756 5.29512,-4.4126 12.35528,-9.70772 0.88252,-0.88252"
         id="path133" />
      <path
         style="fill:none;stroke:#000000;stroke-width:1px;stroke-linecap:butt;stroke-linejoin:miter;stroke-opacity:1;marker-start:url(#Arrow1Lstart)"
         d="m 198.56916,29.134218 31.24352,7.773532"
         id="path1170"
         sodipodi:nodetypes="cc" />
      <path
         style="fill:none;stroke:#000000;stroke-width:1px;stroke-linecap:butt;stroke-linejoin:miter;stroke-opacity:1;marker-start:url(#marker1462)"
         d="M 458.53846,260.40807 489.9621,250.0601"
         id="path1458"
         sodipodi:nodetypes="cc" />
      <path
         style="fill:none;stroke:#666666;stroke-width:0.6;stroke-linecap:butt;stroke-linejoin:miter;stroke-miterlimit:4;stroke-dasharray:1.8, 0.6;stroke-dashoffset:0;stroke-opacity:1"
         d="M 59.275379,26.475591 H 821.5718"
         id="path1502" />
      <path
         style="fill:none;stroke:#666666;stroke-width:0.6;stroke-linecap:butt;stroke-linejoin:miter;stroke-miterlimit:4;stroke-dasharray:1.8, 0.6;stroke-dashoffset:0;stroke-opacity:1"
         d="M 59.107555,260.34331 H 821.5718"
         id="path1504" />
      <path
         style="fill:none;stroke:#000000;stroke-width:1;stroke-linecap:butt;stroke-linejoin:miter;stroke-miterlimit:4;stroke-dasharray:4, 4;stroke-dashoffset:0;stroke-opacity:1;marker-start:url(#marker1510-4);marker-end:url(#Arrow1Lend-1)"
         d="M 388.09632,28.461567 V 258.50936"
         id="path1506"
         sodipodi:nodetypes="cc" />
    </g>
  </g>
  <g
     inkscape:groupmode="layer"
     id="layer2"
     inkscape:label="box"
     style="display:inline">
    <rect
       style="fill:#ffffff;fill-opacity:0.63291138;stroke:none;stroke-width:0.511499;stroke-linecap:round;stroke-linejoin:bevel;stroke-miterlimit:4;stroke-dasharray:1.5345, 0.51149900000000004;stroke-dashoffset:0"
       id="rect1642"
       width="93.884766"
       height="21.733793"
       x="233.49706"
       y="29.195881" />
    <rect
       style="display:inline;fill:#ffffff;fill-opacity:0.63291138;stroke:none;stroke-width:0.498061;stroke-linecap:round;stroke-linejoin:bevel;stroke-miterlimit:4;stroke-dasharray:1.49419, 0.49806099999999998;stroke-dashoffset:0"
       id="rect1642-8"
       width="88.961555"
       height="21.747231"
       x="399.24774"
       y="123.1753" />
    <rect
       style="display:inline;fill:#ffffff;fill-opacity:0.63291138;stroke:none;stroke-width:0.511499;stroke-linecap:round;stroke-linejoin:bevel;stroke-miterlimit:4;stroke-dasharray:1.5345, 0.51149900000000004;stroke-dashoffset:0"
       id="rect1642-3"
       width="93.884766"
       height="21.733793"
       x="492.67099"
       y="233.68694" />
  </g>
  <g
     inkscape:groupmode="layer"
     id="layer1"
     inkscape:label="text"
     style="display:inline">
    <text
       xml:space="preserve"
       style="font-size:40px;line-height:1.25;font-family:Bahnschrift;-inkscape-font-specification:Bahnschrift;letter-spacing:0px;word-spacing:0px"
       x="237.77516"
       y="45.634129"
       id="text1450"><tspan
         sodipodi:role="line"
         id="tspan1448"
         x="237.77516"
         y="45.634129"
         style="font-size:16px">$\SI{-4,9422}{V}$</tspan></text>
    <text
       xml:space="preserve"
       style="font-size:40px;line-height:1.25;font-family:Bahnschrift;-inkscape-font-specification:Bahnschrift;letter-spacing:0px;word-spacing:0px"
       x="492.77713"
       y="249.29736"
       id="text1490"><tspan
         sodipodi:role="line"
         id="tspan1488"
         x="492.77713"
         y="249.29736"
         style="font-size:16px">$\SI{-4,9765}{V}$</tspan></text>
    <text
       xml:space="preserve"
       style="font-size:40px;line-height:1.25;font-family:Bahnschrift;-inkscape-font-specification:Bahnschrift;letter-spacing:0px;word-spacing:0px"
       x="402.83279"
       y="139.77271"
       id="text1450-2"><tspan
         sodipodi:role="line"
         id="tspan1448-4"
         x="402.83279"
         y="139.77271"
         style="font-size:16px">$\SI{34,3}{mV}$</tspan></text>
  </g>
</svg>
