<?xml version="1.0" encoding="UTF-8" standalone="no"?>
<svg
   xmlns:dc="http://purl.org/dc/elements/1.1/"
   xmlns:cc="http://creativecommons.org/ns#"
   xmlns:rdf="http://www.w3.org/1999/02/22-rdf-syntax-ns#"
   xmlns:svg="http://www.w3.org/2000/svg"
   xmlns="http://www.w3.org/2000/svg"
   xmlns:sodipodi="http://sodipodi.sourceforge.net/DTD/sodipodi-0.dtd"
   xmlns:inkscape="http://www.inkscape.org/namespaces/inkscape"
   version="1.0"
   width="224.96001mm"
   height="133.24001mm"
   id="svg199"
   sodipodi:docname="ausgangsspannung.svg"
   inkscape:version="1.0.1 (3bc2e813f5, 2020-09-07)">
  <metadata
     id="metadata203">
    <rdf:RDF>
      <cc:Work
         rdf:about="">
        <dc:format>image/svg+xml</dc:format>
        <dc:type
           rdf:resource="http://purl.org/dc/dcmitype/StillImage" />
        <dc:title />
      </cc:Work>
    </rdf:RDF>
  </metadata>
  <sodipodi:namedview
     pagecolor="#ffffff"
     bordercolor="#666666"
     borderopacity="1"
     objecttolerance="10"
     gridtolerance="10"
     guidetolerance="10"
     inkscape:pageopacity="0"
     inkscape:pageshadow="2"
     inkscape:window-width="2560"
     inkscape:window-height="1361"
     id="namedview201"
     showgrid="false"
     inkscape:zoom="1.8446064"
     inkscape:cx="478.83289"
     inkscape:cy="266.45664"
     inkscape:window-x="-9"
     inkscape:window-y="-9"
     inkscape:window-maximized="1"
     inkscape:current-layer="svg199"
     inkscape:document-rotation="0" />
  <defs
     id="defs3">
    <pattern
       id="EMFhbasepattern"
       patternUnits="userSpaceOnUse"
       width="6"
       height="6"
       x="0"
       y="0" />
  </defs>
  <path
     style="fill:none;stroke:#000000;stroke-width:0.88251966px;stroke-linecap:round;stroke-linejoin:round;stroke-miterlimit:4;stroke-dasharray:none;stroke-opacity:1;"
     d="  M 43.243465,477.44315   L 43.243465,485.38583  "
     id="path5" />
  <g
     aria-label="0ms"
     transform="matrix(1.000000,-0.000000,0.000000,1.000000,57.363780,485.385827)"
     id="text11"
     style="font-style:normal;font-variant:normal;font-weight:700;font-size:15px;line-height:125%;font-family:Arial;text-align:start;letter-spacing:0px;word-spacing:0px;text-anchor:start;fill:#000000;fill-opacity:1;stroke:none">
    <path
       d="m -25.905762,2.7978516 q 1.560059,0 2.438965,1.1132812 1.047363,1.3183594 1.047363,4.3725586 0,3.0468746 -1.054687,4.3798826 -0.871582,1.098633 -2.431641,1.098633 -1.567383,0 -2.526855,-1.201172 -0.959473,-1.208496 -0.959473,-4.2993162 0,-3.0322266 1.054688,-4.3652344 0.871582,-1.0986328 2.43164,-1.0986328 z m 0,1.7065429 q -0.373535,0 -0.666504,0.2416992 -0.292968,0.234375 -0.454101,0.8496094 -0.212403,0.7983399 -0.212403,2.6879883 0,1.8896486 0.19043,2.6000976 0.19043,0.703125 0.476074,0.9375 0.292969,0.234375 0.666504,0.234375 0.373535,0 0.666504,-0.234375 0.292969,-0.241699 0.454102,-0.856934 0.212402,-0.791015 0.212402,-2.6806636 0,-1.8896484 -0.19043,-2.5927734 -0.190429,-0.7104493 -0.483398,-0.9448243 -0.285645,-0.2416992 -0.65918,-0.2416992 z"
       style="font-style:normal;font-variant:normal;font-weight:700;font-size:15px;font-family:Arial;fill:#000000"
       id="path994" />
    <path
       d="m -20.756836,5.8007812 h 1.896973 V 6.862793 Q -17.841797,5.625 -16.435547,5.625 q 0.74707,0 1.296387,0.3076172 0.549316,0.3076172 0.900879,0.9301758 0.512695,-0.6225586 1.105957,-0.9301758 Q -12.539063,5.625 -11.865234,5.625 q 0.856933,0 1.450195,0.3515625 0.5932617,0.3442383 0.8862304,1.0180664 0.2124023,0.4980469 0.2124023,1.6113281 v 4.973145 H -11.374512 V 9.1333008 q 0,-1.1572266 -0.212402,-1.4941406 -0.285645,-0.4394532 -0.878906,-0.4394532 -0.432129,0 -0.812989,0.2636719 -0.380859,0.2636719 -0.549316,0.7763672 -0.168457,0.5053711 -0.168457,1.6040039 v 3.735352 h -2.058105 V 9.3164063 q 0,-1.135254 -0.109864,-1.4648438 -0.109863,-0.3295898 -0.344238,-0.4907227 -0.227051,-0.1611328 -0.622559,-0.1611328 -0.476074,0 -0.856933,0.2563477 -0.38086,0.2563476 -0.549317,0.7397461 -0.161132,0.4833984 -0.161132,1.6040039 v 3.7792973 h -2.058106 z"
       style="font-style:normal;font-variant:normal;font-weight:700;font-size:15px;font-family:Arial;fill:#000000"
       id="path996" />
    <path
       d="m -7.9907227,11.359863 2.0654297,-0.314941 q 0.131836,0.600586 0.534668,0.915527 0.402832,0.307617 1.1279297,0.307617 0.7983398,0 1.2011719,-0.292968 0.2709961,-0.205078 0.2709961,-0.549317 0,-0.234375 -0.1464844,-0.388183 -0.1538086,-0.146485 -0.6884766,-0.270996 -2.4902344,-0.549317 -3.1567383,-1.0034184 -0.9228515,-0.6298828 -0.9228515,-1.7504883 0,-1.0107422 0.7983398,-1.6992187 Q -6.1083984,5.625 -4.4311523,5.625 q 1.5966796,0 2.3730468,0.5200195 0.7763672,0.5200196 1.06933597,1.538086 L -2.9296875,8.0419922 Q -3.0541992,7.5878906 -3.4057617,7.3461914 -3.75,7.1044922 -4.3945312,7.1044922 q -0.8129883,0 -1.1645508,0.2270508 -0.234375,0.1611328 -0.234375,0.4174804 0,0.2197266 0.2050781,0.3735352 0.2783203,0.2050781 1.9189453,0.5786133 1.6479492,0.3735351 2.2998047,0.9155273 0.64453124,0.5493168 0.64453124,1.5307618 0,1.069336 -0.89355464,1.838379 -0.8935547,0.769043 -2.644043,0.769043 -1.5893555,0 -2.5195313,-0.644531 -0.9228515,-0.644532 -1.2084961,-1.750489 z"
       style="font-style:normal;font-variant:normal;font-weight:700;font-size:15px;font-family:Arial;fill:#000000"
       id="path998" />
  </g>
  <path
     style="fill:none;stroke:#000000;stroke-width:0.88251966px;stroke-linecap:round;stroke-linejoin:round;stroke-miterlimit:4;stroke-dasharray:none;stroke-opacity:1;"
     d="  M 121.78772,477.44315   L 121.78772,485.38583  "
     id="path13" />
  <g
     aria-label="1ms"
     transform="matrix(1.000000,-0.000000,0.000000,1.000000,135.908031,485.385827)"
     id="text19"
     style="font-style:normal;font-variant:normal;font-weight:700;font-size:15px;line-height:125%;font-family:Arial;text-align:start;letter-spacing:0px;word-spacing:0px;text-anchor:start;fill:#000000;fill-opacity:1;stroke:none">
    <path
       d="m -24.118652,13.579102 h -2.058106 V 5.8227539 q -1.127929,1.0546875 -2.658691,1.5600586 V 5.5151367 q 0.805664,-0.2636719 1.750488,-0.9960937 0.944824,-0.7397461 1.296387,-1.7211914 h 1.669922 z"
       style="font-style:normal;font-variant:normal;font-weight:700;font-size:15px;font-family:Arial;fill:#000000"
       id="path1001" />
    <path
       d="m -20.756836,5.8007812 h 1.896973 V 6.862793 Q -17.841797,5.625 -16.435547,5.625 q 0.74707,0 1.296387,0.3076172 0.549316,0.3076172 0.900879,0.9301758 0.512695,-0.6225586 1.105957,-0.9301758 Q -12.539063,5.625 -11.865234,5.625 q 0.856933,0 1.450195,0.3515625 0.5932617,0.3442383 0.8862304,1.0180664 0.2124023,0.4980469 0.2124023,1.6113281 v 4.973145 H -11.374512 V 9.1333008 q 0,-1.1572266 -0.212402,-1.4941406 -0.285645,-0.4394532 -0.878906,-0.4394532 -0.432129,0 -0.812989,0.2636719 -0.380859,0.2636719 -0.549316,0.7763672 -0.168457,0.5053711 -0.168457,1.6040039 v 3.735352 h -2.058105 V 9.3164063 q 0,-1.135254 -0.109864,-1.4648438 -0.109863,-0.3295898 -0.344238,-0.4907227 -0.227051,-0.1611328 -0.622559,-0.1611328 -0.476074,0 -0.856933,0.2563477 -0.38086,0.2563476 -0.549317,0.7397461 -0.161132,0.4833984 -0.161132,1.6040039 v 3.7792973 h -2.058106 z"
       style="font-style:normal;font-variant:normal;font-weight:700;font-size:15px;font-family:Arial;fill:#000000"
       id="path1003" />
    <path
       d="m -7.9907227,11.359863 2.0654297,-0.314941 q 0.131836,0.600586 0.534668,0.915527 0.402832,0.307617 1.1279297,0.307617 0.7983398,0 1.2011719,-0.292968 0.2709961,-0.205078 0.2709961,-0.549317 0,-0.234375 -0.1464844,-0.388183 -0.1538086,-0.146485 -0.6884766,-0.270996 -2.4902344,-0.549317 -3.1567383,-1.0034184 -0.9228515,-0.6298828 -0.9228515,-1.7504883 0,-1.0107422 0.7983398,-1.6992187 Q -6.1083984,5.625 -4.4311523,5.625 q 1.5966796,0 2.3730468,0.5200195 0.7763672,0.5200196 1.06933597,1.538086 L -2.9296875,8.0419922 Q -3.0541992,7.5878906 -3.4057617,7.3461914 -3.75,7.1044922 -4.3945312,7.1044922 q -0.8129883,0 -1.1645508,0.2270508 -0.234375,0.1611328 -0.234375,0.4174804 0,0.2197266 0.2050781,0.3735352 0.2783203,0.2050781 1.9189453,0.5786133 1.6479492,0.3735351 2.2998047,0.9155273 0.64453124,0.5493168 0.64453124,1.5307618 0,1.069336 -0.89355464,1.838379 -0.8935547,0.769043 -2.644043,0.769043 -1.5893555,0 -2.5195313,-0.644531 -0.9228515,-0.644532 -1.2084961,-1.750489 z"
       style="font-style:normal;font-variant:normal;font-weight:700;font-size:15px;font-family:Arial;fill:#000000"
       id="path1005" />
  </g>
  <path
     style="fill:none;stroke:#000000;stroke-width:0.88251966px;stroke-linecap:round;stroke-linejoin:round;stroke-miterlimit:4;stroke-dasharray:none;stroke-opacity:1;"
     d="  M 201.21449,477.44315   L 201.21449,485.38583  "
     id="path21" />
  <g
     aria-label="2ms"
     transform="matrix(1.000000,-0.000000,0.000000,1.000000,215.334803,485.385827)"
     id="text27"
     style="font-style:normal;font-variant:normal;font-weight:700;font-size:15px;line-height:125%;font-family:Arial;text-align:start;letter-spacing:0px;word-spacing:0px;text-anchor:start;fill:#000000;fill-opacity:1;stroke:none">
    <path
       d="m -22.434082,11.66748 v 1.911622 h -7.214355 q 0.117187,-1.083985 0.703125,-2.050782 0.585937,-0.974121 2.314453,-2.5781247 1.391601,-1.2963867 1.706543,-1.7578125 0.424804,-0.637207 0.424804,-1.2597656 0,-0.6884766 -0.373535,-1.0546875 -0.366211,-0.3735352 -1.018066,-0.3735352 -0.644532,0 -1.025391,0.3881836 -0.380859,0.3881836 -0.439453,1.2890625 l -2.050781,-0.2050781 q 0.183105,-1.6992188 1.149902,-2.4389648 0.966797,-0.7397461 2.416992,-0.7397461 1.589356,0 2.497559,0.8569336 0.908203,0.8569335 0.908203,2.1313476 0,0.7250977 -0.263672,1.3842774 -0.256348,0.6518554 -0.820312,1.3696289 -0.373536,0.4760742 -1.347657,1.3696289 -0.974121,0.893555 -1.237793,1.186523 -0.256347,0.292969 -0.41748,0.571289 z"
       style="font-style:normal;font-variant:normal;font-weight:700;font-size:15px;font-family:Arial;fill:#000000"
       id="path1008" />
    <path
       d="m -20.756836,5.8007812 h 1.896973 V 6.862793 Q -17.841797,5.625 -16.435547,5.625 q 0.74707,0 1.296387,0.3076172 0.549316,0.3076172 0.900879,0.9301758 0.512695,-0.6225586 1.105957,-0.9301758 Q -12.539063,5.625 -11.865234,5.625 q 0.856933,0 1.450195,0.3515625 0.5932617,0.3442383 0.8862304,1.0180664 0.2124023,0.4980469 0.2124023,1.6113281 v 4.973145 H -11.374512 V 9.1333008 q 0,-1.1572266 -0.212402,-1.4941406 -0.285645,-0.4394532 -0.878906,-0.4394532 -0.432129,0 -0.812989,0.2636719 -0.380859,0.2636719 -0.549316,0.7763672 -0.168457,0.5053711 -0.168457,1.6040039 v 3.735352 h -2.058105 V 9.3164063 q 0,-1.135254 -0.109864,-1.4648438 -0.109863,-0.3295898 -0.344238,-0.4907227 -0.227051,-0.1611328 -0.622559,-0.1611328 -0.476074,0 -0.856933,0.2563477 -0.38086,0.2563476 -0.549317,0.7397461 -0.161132,0.4833984 -0.161132,1.6040039 v 3.7792973 h -2.058106 z"
       style="font-style:normal;font-variant:normal;font-weight:700;font-size:15px;font-family:Arial;fill:#000000"
       id="path1010" />
    <path
       d="m -7.9907227,11.359863 2.0654297,-0.314941 q 0.131836,0.600586 0.534668,0.915527 0.402832,0.307617 1.1279297,0.307617 0.7983398,0 1.2011719,-0.292968 0.2709961,-0.205078 0.2709961,-0.549317 0,-0.234375 -0.1464844,-0.388183 -0.1538086,-0.146485 -0.6884766,-0.270996 -2.4902344,-0.549317 -3.1567383,-1.0034184 -0.9228515,-0.6298828 -0.9228515,-1.7504883 0,-1.0107422 0.7983398,-1.6992187 Q -6.1083984,5.625 -4.4311523,5.625 q 1.5966796,0 2.3730468,0.5200195 0.7763672,0.5200196 1.06933597,1.538086 L -2.9296875,8.0419922 Q -3.0541992,7.5878906 -3.4057617,7.3461914 -3.75,7.1044922 -4.3945312,7.1044922 q -0.8129883,0 -1.1645508,0.2270508 -0.234375,0.1611328 -0.234375,0.4174804 0,0.2197266 0.2050781,0.3735352 0.2783203,0.2050781 1.9189453,0.5786133 1.6479492,0.3735351 2.2998047,0.9155273 0.64453124,0.5493168 0.64453124,1.5307618 0,1.069336 -0.89355464,1.838379 -0.8935547,0.769043 -2.644043,0.769043 -1.5893555,0 -2.5195313,-0.644531 -0.9228515,-0.644532 -1.2084961,-1.750489 z"
       style="font-style:normal;font-variant:normal;font-weight:700;font-size:15px;font-family:Arial;fill:#000000"
       id="path1012" />
  </g>
  <path
     style="fill:none;stroke:#000000;stroke-width:0.88251966px;stroke-linecap:round;stroke-linejoin:round;stroke-miterlimit:4;stroke-dasharray:none;stroke-opacity:1;"
     d="  M 279.75874,477.44315   L 279.75874,485.38583  "
     id="path29" />
  <g
     aria-label="3ms"
     transform="matrix(1.000000,-0.000000,0.000000,1.000000,293.879055,485.385827)"
     id="text35"
     style="font-style:normal;font-variant:normal;font-weight:700;font-size:15px;line-height:125%;font-family:Arial;text-align:start;letter-spacing:0px;word-spacing:0px;text-anchor:start;fill:#000000;fill-opacity:1;stroke:none">
    <path
       d="m -29.458008,10.72998 1.992188,-0.241699 q 0.09521,0.761719 0.512695,1.164551 0.41748,0.402832 1.010742,0.402832 0.637207,0 1.069336,-0.483398 0.439453,-0.483399 0.439453,-1.303711 0,-0.7763675 -0.41748,-1.2304691 -0.417481,-0.4541015 -1.018067,-0.4541015 -0.395507,0 -0.944824,0.1538086 l 0.227051,-1.6772461 q 0.834961,0.021973 1.274414,-0.3588867 0.439453,-0.3881836 0.439453,-1.0253907 0,-0.5419922 -0.322265,-0.8642578 -0.322266,-0.3222656 -0.856934,-0.3222656 -0.527344,0 -0.900879,0.3662109 -0.373535,0.366211 -0.454102,1.069336 l -1.896972,-0.3222657 q 0.197754,-0.9741211 0.593262,-1.5527343 0.402832,-0.5859375 1.113281,-0.9155274 0.717773,-0.336914 1.604004,-0.336914 1.516113,0 2.43164,0.9667968 0.754395,0.7910157 0.754395,1.7871094 0,1.4135742 -1.54541,2.2558594 0.922851,0.1977539 1.472168,0.8862305 0.55664,0.6884765 0.55664,1.6625973 0,1.413575 -1.032715,2.409668 -1.032714,0.996094 -2.5708,0.996094 -1.45752,0 -2.416993,-0.834961 -0.959472,-0.842285 -1.113281,-2.197266 z"
       style="font-style:normal;font-variant:normal;font-weight:700;font-size:15px;font-family:Arial;fill:#000000"
       id="path1015" />
    <path
       d="m -20.756836,5.8007812 h 1.896973 V 6.862793 Q -17.841797,5.625 -16.435547,5.625 q 0.74707,0 1.296387,0.3076172 0.549316,0.3076172 0.900879,0.9301758 0.512695,-0.6225586 1.105957,-0.9301758 Q -12.539063,5.625 -11.865234,5.625 q 0.856933,0 1.450195,0.3515625 0.5932617,0.3442383 0.8862304,1.0180664 0.2124023,0.4980469 0.2124023,1.6113281 v 4.973145 H -11.374512 V 9.1333008 q 0,-1.1572266 -0.212402,-1.4941406 -0.285645,-0.4394532 -0.878906,-0.4394532 -0.432129,0 -0.812989,0.2636719 -0.380859,0.2636719 -0.549316,0.7763672 -0.168457,0.5053711 -0.168457,1.6040039 v 3.735352 h -2.058105 V 9.3164063 q 0,-1.135254 -0.109864,-1.4648438 -0.109863,-0.3295898 -0.344238,-0.4907227 -0.227051,-0.1611328 -0.622559,-0.1611328 -0.476074,0 -0.856933,0.2563477 -0.38086,0.2563476 -0.549317,0.7397461 -0.161132,0.4833984 -0.161132,1.6040039 v 3.7792973 h -2.058106 z"
       style="font-style:normal;font-variant:normal;font-weight:700;font-size:15px;font-family:Arial;fill:#000000"
       id="path1017" />
    <path
       d="m -7.9907227,11.359863 2.0654297,-0.314941 q 0.131836,0.600586 0.534668,0.915527 0.402832,0.307617 1.1279297,0.307617 0.7983398,0 1.2011719,-0.292968 0.2709961,-0.205078 0.2709961,-0.549317 0,-0.234375 -0.1464844,-0.388183 -0.1538086,-0.146485 -0.6884766,-0.270996 -2.4902344,-0.549317 -3.1567383,-1.0034184 -0.9228515,-0.6298828 -0.9228515,-1.7504883 0,-1.0107422 0.7983398,-1.6992187 Q -6.1083984,5.625 -4.4311523,5.625 q 1.5966796,0 2.3730468,0.5200195 0.7763672,0.5200196 1.06933597,1.538086 L -2.9296875,8.0419922 Q -3.0541992,7.5878906 -3.4057617,7.3461914 -3.75,7.1044922 -4.3945312,7.1044922 q -0.8129883,0 -1.1645508,0.2270508 -0.234375,0.1611328 -0.234375,0.4174804 0,0.2197266 0.2050781,0.3735352 0.2783203,0.2050781 1.9189453,0.5786133 1.6479492,0.3735351 2.2998047,0.9155273 0.64453124,0.5493168 0.64453124,1.5307618 0,1.069336 -0.89355464,1.838379 -0.8935547,0.769043 -2.644043,0.769043 -1.5893555,0 -2.5195313,-0.644531 -0.9228515,-0.644532 -1.2084961,-1.750489 z"
       style="font-style:normal;font-variant:normal;font-weight:700;font-size:15px;font-family:Arial;fill:#000000"
       id="path1019" />
  </g>
  <path
     style="fill:none;stroke:#000000;stroke-width:0.88251966px;stroke-linecap:round;stroke-linejoin:round;stroke-miterlimit:4;stroke-dasharray:none;stroke-opacity:1;"
     d="  M 358.30299,477.44315   L 358.30299,485.38583  "
     id="path37" />
  <g
     aria-label="4ms"
     transform="matrix(1.000000,-0.000000,0.000000,1.000000,372.423307,485.385827)"
     id="text43"
     style="font-style:normal;font-variant:normal;font-weight:700;font-size:15px;line-height:125%;font-family:Arial;text-align:start;letter-spacing:0px;word-spacing:0px;text-anchor:start;fill:#000000;fill-opacity:1;stroke:none">
    <path
       d="m -25.349121,13.579102 v -2.160645 h -4.394531 V 9.6166992 l 4.658203,-6.8188476 h 1.728515 V 9.609375 h 1.333008 v 1.809082 h -1.333008 v 2.160645 z m 0,-3.969727 V 5.9399414 l -2.468262,3.6694336 z"
       style="font-style:normal;font-variant:normal;font-weight:700;font-size:15px;font-family:Arial;fill:#000000"
       id="path1022" />
    <path
       d="m -20.756836,5.8007812 h 1.896973 V 6.862793 Q -17.841797,5.625 -16.435547,5.625 q 0.74707,0 1.296387,0.3076172 0.549316,0.3076172 0.900879,0.9301758 0.512695,-0.6225586 1.105957,-0.9301758 Q -12.539063,5.625 -11.865234,5.625 q 0.856933,0 1.450195,0.3515625 0.5932617,0.3442383 0.8862304,1.0180664 0.2124023,0.4980469 0.2124023,1.6113281 v 4.973145 H -11.374512 V 9.1333008 q 0,-1.1572266 -0.212402,-1.4941406 -0.285645,-0.4394532 -0.878906,-0.4394532 -0.432129,0 -0.812989,0.2636719 -0.380859,0.2636719 -0.549316,0.7763672 -0.168457,0.5053711 -0.168457,1.6040039 v 3.735352 h -2.058105 V 9.3164063 q 0,-1.135254 -0.109864,-1.4648438 -0.109863,-0.3295898 -0.344238,-0.4907227 -0.227051,-0.1611328 -0.622559,-0.1611328 -0.476074,0 -0.856933,0.2563477 -0.38086,0.2563476 -0.549317,0.7397461 -0.161132,0.4833984 -0.161132,1.6040039 v 3.7792973 h -2.058106 z"
       style="font-style:normal;font-variant:normal;font-weight:700;font-size:15px;font-family:Arial;fill:#000000"
       id="path1024" />
    <path
       d="m -7.9907227,11.359863 2.0654297,-0.314941 q 0.131836,0.600586 0.534668,0.915527 0.402832,0.307617 1.1279297,0.307617 0.7983398,0 1.2011719,-0.292968 0.2709961,-0.205078 0.2709961,-0.549317 0,-0.234375 -0.1464844,-0.388183 -0.1538086,-0.146485 -0.6884766,-0.270996 -2.4902344,-0.549317 -3.1567383,-1.0034184 -0.9228515,-0.6298828 -0.9228515,-1.7504883 0,-1.0107422 0.7983398,-1.6992187 Q -6.1083984,5.625 -4.4311523,5.625 q 1.5966796,0 2.3730468,0.5200195 0.7763672,0.5200196 1.06933597,1.538086 L -2.9296875,8.0419922 Q -3.0541992,7.5878906 -3.4057617,7.3461914 -3.75,7.1044922 -4.3945312,7.1044922 q -0.8129883,0 -1.1645508,0.2270508 -0.234375,0.1611328 -0.234375,0.4174804 0,0.2197266 0.2050781,0.3735352 0.2783203,0.2050781 1.9189453,0.5786133 1.6479492,0.3735351 2.2998047,0.9155273 0.64453124,0.5493168 0.64453124,1.5307618 0,1.069336 -0.89355464,1.838379 -0.8935547,0.769043 -2.644043,0.769043 -1.5893555,0 -2.5195313,-0.644531 -0.9228515,-0.644532 -1.2084961,-1.750489 z"
       style="font-style:normal;font-variant:normal;font-weight:700;font-size:15px;font-family:Arial;fill:#000000"
       id="path1026" />
  </g>
  <path
     style="fill:none;stroke:#000000;stroke-width:0.88251966px;stroke-linecap:round;stroke-linejoin:round;stroke-miterlimit:4;stroke-dasharray:none;stroke-opacity:1;"
     d="  M 437.72976,477.44315   L 437.72976,485.38583  "
     id="path45" />
  <g
     aria-label="5ms"
     transform="matrix(1.000000,-0.000000,0.000000,1.000000,451.850079,485.385827)"
     id="text51"
     style="font-style:normal;font-variant:normal;font-weight:700;font-size:15px;line-height:125%;font-family:Arial;text-align:start;letter-spacing:0px;word-spacing:0px;text-anchor:start;fill:#000000;fill-opacity:1;stroke:none">
    <path
       d="m -29.355469,10.817871 2.050782,-0.212402 q 0.08789,0.695801 0.520019,1.105957 0.432129,0.402832 0.996094,0.402832 0.644531,0 1.091308,-0.52002 0.446778,-0.527343 0.446778,-1.582031 0,-0.9887695 -0.446778,-1.4794922 -0.439453,-0.4980468 -1.149902,-0.4980468 -0.88623,0 -1.589355,0.7836914 l -1.669922,-0.2416992 1.054687,-5.5883789 h 5.441895 v 1.9262695 h -3.881836 l -0.322266,1.8237304 q 0.688477,-0.3442382 1.40625,-0.3442382 1.369629,0 2.321778,0.9960937 0.952148,0.9960938 0.952148,2.5854492 0,1.3256841 -0.769043,2.3657231 -1.047363,1.420898 -2.907715,1.420898 -1.486816,0 -2.424316,-0.79834 -0.9375,-0.79834 -1.120606,-2.145996 z"
       style="font-style:normal;font-variant:normal;font-weight:700;font-size:15px;font-family:Arial;fill:#000000"
       id="path1029" />
    <path
       d="m -20.756836,5.8007812 h 1.896973 V 6.862793 Q -17.841797,5.625 -16.435547,5.625 q 0.74707,0 1.296387,0.3076172 0.549316,0.3076172 0.900879,0.9301758 0.512695,-0.6225586 1.105957,-0.9301758 Q -12.539063,5.625 -11.865234,5.625 q 0.856933,0 1.450195,0.3515625 0.5932617,0.3442383 0.8862304,1.0180664 0.2124023,0.4980469 0.2124023,1.6113281 v 4.973145 H -11.374512 V 9.1333008 q 0,-1.1572266 -0.212402,-1.4941406 -0.285645,-0.4394532 -0.878906,-0.4394532 -0.432129,0 -0.812989,0.2636719 -0.380859,0.2636719 -0.549316,0.7763672 -0.168457,0.5053711 -0.168457,1.6040039 v 3.735352 h -2.058105 V 9.3164063 q 0,-1.135254 -0.109864,-1.4648438 -0.109863,-0.3295898 -0.344238,-0.4907227 -0.227051,-0.1611328 -0.622559,-0.1611328 -0.476074,0 -0.856933,0.2563477 -0.38086,0.2563476 -0.549317,0.7397461 -0.161132,0.4833984 -0.161132,1.6040039 v 3.7792973 h -2.058106 z"
       style="font-style:normal;font-variant:normal;font-weight:700;font-size:15px;font-family:Arial;fill:#000000"
       id="path1031" />
    <path
       d="m -7.9907227,11.359863 2.0654297,-0.314941 q 0.131836,0.600586 0.534668,0.915527 0.402832,0.307617 1.1279297,0.307617 0.7983398,0 1.2011719,-0.292968 0.2709961,-0.205078 0.2709961,-0.549317 0,-0.234375 -0.1464844,-0.388183 -0.1538086,-0.146485 -0.6884766,-0.270996 -2.4902344,-0.549317 -3.1567383,-1.0034184 -0.9228515,-0.6298828 -0.9228515,-1.7504883 0,-1.0107422 0.7983398,-1.6992187 Q -6.1083984,5.625 -4.4311523,5.625 q 1.5966796,0 2.3730468,0.5200195 0.7763672,0.5200196 1.06933597,1.538086 L -2.9296875,8.0419922 Q -3.0541992,7.5878906 -3.4057617,7.3461914 -3.75,7.1044922 -4.3945312,7.1044922 q -0.8129883,0 -1.1645508,0.2270508 -0.234375,0.1611328 -0.234375,0.4174804 0,0.2197266 0.2050781,0.3735352 0.2783203,0.2050781 1.9189453,0.5786133 1.6479492,0.3735351 2.2998047,0.9155273 0.64453124,0.5493168 0.64453124,1.5307618 0,1.069336 -0.89355464,1.838379 -0.8935547,0.769043 -2.644043,0.769043 -1.5893555,0 -2.5195313,-0.644531 -0.9228515,-0.644532 -1.2084961,-1.750489 z"
       style="font-style:normal;font-variant:normal;font-weight:700;font-size:15px;font-family:Arial;fill:#000000"
       id="path1033" />
  </g>
  <path
     style="fill:none;stroke:#000000;stroke-width:0.88251966px;stroke-linecap:round;stroke-linejoin:round;stroke-miterlimit:4;stroke-dasharray:none;stroke-opacity:1;"
     d="  M 516.27402,477.44315   L 516.27402,485.38583  "
     id="path53" />
  <g
     aria-label="6ms"
     transform="matrix(1.000000,-0.000000,0.000000,1.000000,530.394331,485.385827)"
     id="text59"
     style="font-style:normal;font-variant:normal;font-weight:700;font-size:15px;line-height:125%;font-family:Arial;text-align:start;letter-spacing:0px;word-spacing:0px;text-anchor:start;fill:#000000;fill-opacity:1;stroke:none">
    <path
       d="m -22.412109,5.4711914 -1.992188,0.2197266 q -0.07324,-0.6152344 -0.380859,-0.9082032 -0.307617,-0.2929687 -0.79834,-0.2929687 -0.651856,0 -1.105957,0.5859375 -0.446777,0.5859375 -0.563965,2.4389648 0.769043,-0.9082031 1.911621,-0.9082031 1.289063,0 2.20459,0.9814453 0.922852,0.9814453 0.922852,2.5341794 0,1.64795 -0.966797,2.644043 -0.966797,0.996094 -2.48291,0.996094 -1.625977,0 -2.67334,-1.259766 -1.047364,-1.267089 -1.047364,-4.1455074 0,-2.9516602 1.091309,-4.2553711 1.091309,-1.3037109 2.834473,-1.3037109 1.223144,0 2.021484,0.6884765 0.805664,0.6811524 1.025391,1.9848633 z m -4.665528,4.4897461 q 0,1.0034175 0.461426,1.5527345 0.461426,0.541992 1.054688,0.541992 0.571289,0 0.952148,-0.446777 0.380859,-0.446778 0.380859,-1.464844 0,-1.0473633 -0.410156,-1.5307617 -0.410156,-0.4907227 -1.02539,-0.4907227 -0.593262,0 -1.003418,0.46875 -0.410157,0.4614258 -0.410157,1.3696289 z"
       style="font-style:normal;font-variant:normal;font-weight:700;font-size:15px;font-family:Arial;fill:#000000"
       id="path1036" />
    <path
       d="m -20.756836,5.8007812 h 1.896973 V 6.862793 Q -17.841797,5.625 -16.435547,5.625 q 0.74707,0 1.296387,0.3076172 0.549316,0.3076172 0.900879,0.9301758 0.512695,-0.6225586 1.105957,-0.9301758 Q -12.539063,5.625 -11.865234,5.625 q 0.856933,0 1.450195,0.3515625 0.5932617,0.3442383 0.8862304,1.0180664 0.2124023,0.4980469 0.2124023,1.6113281 v 4.973145 H -11.374512 V 9.1333008 q 0,-1.1572266 -0.212402,-1.4941406 -0.285645,-0.4394532 -0.878906,-0.4394532 -0.432129,0 -0.812989,0.2636719 -0.380859,0.2636719 -0.549316,0.7763672 -0.168457,0.5053711 -0.168457,1.6040039 v 3.735352 h -2.058105 V 9.3164063 q 0,-1.135254 -0.109864,-1.4648438 -0.109863,-0.3295898 -0.344238,-0.4907227 -0.227051,-0.1611328 -0.622559,-0.1611328 -0.476074,0 -0.856933,0.2563477 -0.38086,0.2563476 -0.549317,0.7397461 -0.161132,0.4833984 -0.161132,1.6040039 v 3.7792973 h -2.058106 z"
       style="font-style:normal;font-variant:normal;font-weight:700;font-size:15px;font-family:Arial;fill:#000000"
       id="path1038" />
    <path
       d="m -7.9907227,11.359863 2.0654297,-0.314941 q 0.131836,0.600586 0.534668,0.915527 0.402832,0.307617 1.1279297,0.307617 0.7983398,0 1.2011719,-0.292968 0.2709961,-0.205078 0.2709961,-0.549317 0,-0.234375 -0.1464844,-0.388183 -0.1538086,-0.146485 -0.6884766,-0.270996 -2.4902344,-0.549317 -3.1567383,-1.0034184 -0.9228515,-0.6298828 -0.9228515,-1.7504883 0,-1.0107422 0.7983398,-1.6992187 Q -6.1083984,5.625 -4.4311523,5.625 q 1.5966796,0 2.3730468,0.5200195 0.7763672,0.5200196 1.06933597,1.538086 L -2.9296875,8.0419922 Q -3.0541992,7.5878906 -3.4057617,7.3461914 -3.75,7.1044922 -4.3945312,7.1044922 q -0.8129883,0 -1.1645508,0.2270508 -0.234375,0.1611328 -0.234375,0.4174804 0,0.2197266 0.2050781,0.3735352 0.2783203,0.2050781 1.9189453,0.5786133 1.6479492,0.3735351 2.2998047,0.9155273 0.64453124,0.5493168 0.64453124,1.5307618 0,1.069336 -0.89355464,1.838379 -0.8935547,0.769043 -2.644043,0.769043 -1.5893555,0 -2.5195313,-0.644531 -0.9228515,-0.644532 -1.2084961,-1.750489 z"
       style="font-style:normal;font-variant:normal;font-weight:700;font-size:15px;font-family:Arial;fill:#000000"
       id="path1040" />
  </g>
  <path
     style="fill:none;stroke:#000000;stroke-width:0.88251966px;stroke-linecap:round;stroke-linejoin:round;stroke-miterlimit:4;stroke-dasharray:none;stroke-opacity:1;"
     d="  M 594.81827,477.44315   L 594.81827,485.38583  "
     id="path61" />
  <g
     aria-label="7ms"
     transform="matrix(1.000000,-0.000000,0.000000,1.000000,608.938583,485.385827)"
     id="text67"
     style="font-style:normal;font-variant:normal;font-weight:700;font-size:15px;line-height:125%;font-family:Arial;text-align:start;letter-spacing:0px;word-spacing:0px;text-anchor:start;fill:#000000;fill-opacity:1;stroke:none">
    <path
       d="m -29.384766,4.8999023 v -1.911621 h 7.038575 v 1.4941406 q -0.871582,0.8569336 -1.772461,2.4609375 -0.900879,1.6040039 -1.376953,3.4130856 -0.46875,1.801758 -0.461426,3.222657 h -1.984864 q 0.05127,-2.226563 0.915528,-4.5410161 0.871582,-2.3144531 2.321777,-4.1381836 z"
       style="font-style:normal;font-variant:normal;font-weight:700;font-size:15px;font-family:Arial;fill:#000000"
       id="path1043" />
    <path
       d="m -20.756836,5.8007812 h 1.896973 V 6.862793 Q -17.841797,5.625 -16.435547,5.625 q 0.74707,0 1.296387,0.3076172 0.549316,0.3076172 0.900879,0.9301758 0.512695,-0.6225586 1.105957,-0.9301758 Q -12.539063,5.625 -11.865234,5.625 q 0.856933,0 1.450195,0.3515625 0.5932617,0.3442383 0.8862304,1.0180664 0.2124023,0.4980469 0.2124023,1.6113281 v 4.973145 H -11.374512 V 9.1333008 q 0,-1.1572266 -0.212402,-1.4941406 -0.285645,-0.4394532 -0.878906,-0.4394532 -0.432129,0 -0.812989,0.2636719 -0.380859,0.2636719 -0.549316,0.7763672 -0.168457,0.5053711 -0.168457,1.6040039 v 3.735352 h -2.058105 V 9.3164063 q 0,-1.135254 -0.109864,-1.4648438 -0.109863,-0.3295898 -0.344238,-0.4907227 -0.227051,-0.1611328 -0.622559,-0.1611328 -0.476074,0 -0.856933,0.2563477 -0.38086,0.2563476 -0.549317,0.7397461 -0.161132,0.4833984 -0.161132,1.6040039 v 3.7792973 h -2.058106 z"
       style="font-style:normal;font-variant:normal;font-weight:700;font-size:15px;font-family:Arial;fill:#000000"
       id="path1045" />
    <path
       d="m -7.9907227,11.359863 2.0654297,-0.314941 q 0.131836,0.600586 0.534668,0.915527 0.402832,0.307617 1.1279297,0.307617 0.7983398,0 1.2011719,-0.292968 0.2709961,-0.205078 0.2709961,-0.549317 0,-0.234375 -0.1464844,-0.388183 -0.1538086,-0.146485 -0.6884766,-0.270996 -2.4902344,-0.549317 -3.1567383,-1.0034184 -0.9228515,-0.6298828 -0.9228515,-1.7504883 0,-1.0107422 0.7983398,-1.6992187 Q -6.1083984,5.625 -4.4311523,5.625 q 1.5966796,0 2.3730468,0.5200195 0.7763672,0.5200196 1.06933597,1.538086 L -2.9296875,8.0419922 Q -3.0541992,7.5878906 -3.4057617,7.3461914 -3.75,7.1044922 -4.3945312,7.1044922 q -0.8129883,0 -1.1645508,0.2270508 -0.234375,0.1611328 -0.234375,0.4174804 0,0.2197266 0.2050781,0.3735352 0.2783203,0.2050781 1.9189453,0.5786133 1.6479492,0.3735351 2.2998047,0.9155273 0.64453124,0.5493168 0.64453124,1.5307618 0,1.069336 -0.89355464,1.838379 -0.8935547,0.769043 -2.644043,0.769043 -1.5893555,0 -2.5195313,-0.644531 -0.9228515,-0.644532 -1.2084961,-1.750489 z"
       style="font-style:normal;font-variant:normal;font-weight:700;font-size:15px;font-family:Arial;fill:#000000"
       id="path1047" />
  </g>
  <path
     style="fill:none;stroke:#000000;stroke-width:0.88251966px;stroke-linecap:round;stroke-linejoin:round;stroke-miterlimit:4;stroke-dasharray:none;stroke-opacity:1;"
     d="  M 673.36252,477.44315   L 673.36252,485.38583  "
     id="path69" />
  <g
     aria-label="8ms"
     transform="matrix(1.000000,-0.000000,0.000000,1.000000,687.482835,485.385827)"
     id="text75"
     style="font-style:normal;font-variant:normal;font-weight:700;font-size:15px;line-height:125%;font-family:Arial;text-align:start;letter-spacing:0px;word-spacing:0px;text-anchor:start;fill:#000000;fill-opacity:1;stroke:none">
    <path
       d="m -27.619629,7.7856445 q -0.79834,-0.336914 -1.164551,-0.9228515 -0.358886,-0.5932618 -0.358886,-1.2963868 0,-1.2011718 0.834961,-1.9848632 0.842285,-0.7836914 2.387695,-0.7836914 1.530762,0 2.373047,0.7836914 0.849609,0.7836914 0.849609,1.9848632 0,0.7470704 -0.388183,1.3330079 -0.388184,0.5786132 -1.091309,0.8862304 0.893555,0.3588868 1.35498,1.0473633 0.46875,0.6884766 0.46875,1.5893552 0,1.486817 -0.952148,2.416992 -0.944824,0.930176 -2.519531,0.930176 -1.464844,0 -2.438965,-0.769043 -1.149902,-0.908203 -1.149902,-2.490234 0,-0.8715821 0.432128,-1.5966798 0.432129,-0.7324219 1.362305,-1.1279297 z m 0.424805,-2.0727539 q 0,0.6152344 0.344238,0.9594727 0.351563,0.3442383 0.930176,0.3442383 0.585937,0 0.9375,-0.3442383 0.351562,-0.3515625 0.351562,-0.9667969 0,-0.5786133 -0.351562,-0.9228516 -0.344238,-0.3515625 -0.915527,-0.3515625 -0.593262,0 -0.944825,0.3515625 -0.351562,0.3515625 -0.351562,0.9301758 z m -0.19043,4.5996094 q 0,0.849609 0.432129,1.325684 0.439453,0.476074 1.091309,0.476074 0.637207,0 1.054687,-0.454102 0.417481,-0.461426 0.417481,-1.325683 0,-0.7543949 -0.424805,-1.2084964 -0.424805,-0.4614258 -1.07666,-0.4614258 -0.754395,0 -1.12793,0.5200195 -0.366211,0.5200195 -0.366211,1.1279297 z"
       style="font-style:normal;font-variant:normal;font-weight:700;font-size:15px;font-family:Arial;fill:#000000"
       id="path1050" />
    <path
       d="m -20.756836,5.8007812 h 1.896973 V 6.862793 Q -17.841797,5.625 -16.435547,5.625 q 0.74707,0 1.296387,0.3076172 0.549316,0.3076172 0.900879,0.9301758 0.512695,-0.6225586 1.105957,-0.9301758 Q -12.539063,5.625 -11.865234,5.625 q 0.856933,0 1.450195,0.3515625 0.5932617,0.3442383 0.8862304,1.0180664 0.2124023,0.4980469 0.2124023,1.6113281 v 4.973145 H -11.374512 V 9.1333008 q 0,-1.1572266 -0.212402,-1.4941406 -0.285645,-0.4394532 -0.878906,-0.4394532 -0.432129,0 -0.812989,0.2636719 -0.380859,0.2636719 -0.549316,0.7763672 -0.168457,0.5053711 -0.168457,1.6040039 v 3.735352 h -2.058105 V 9.3164063 q 0,-1.135254 -0.109864,-1.4648438 -0.109863,-0.3295898 -0.344238,-0.4907227 -0.227051,-0.1611328 -0.622559,-0.1611328 -0.476074,0 -0.856933,0.2563477 -0.38086,0.2563476 -0.549317,0.7397461 -0.161132,0.4833984 -0.161132,1.6040039 v 3.7792973 h -2.058106 z"
       style="font-style:normal;font-variant:normal;font-weight:700;font-size:15px;font-family:Arial;fill:#000000"
       id="path1052" />
    <path
       d="m -7.9907227,11.359863 2.0654297,-0.314941 q 0.131836,0.600586 0.534668,0.915527 0.402832,0.307617 1.1279297,0.307617 0.7983398,0 1.2011719,-0.292968 0.2709961,-0.205078 0.2709961,-0.549317 0,-0.234375 -0.1464844,-0.388183 -0.1538086,-0.146485 -0.6884766,-0.270996 -2.4902344,-0.549317 -3.1567383,-1.0034184 -0.9228515,-0.6298828 -0.9228515,-1.7504883 0,-1.0107422 0.7983398,-1.6992187 Q -6.1083984,5.625 -4.4311523,5.625 q 1.5966796,0 2.3730468,0.5200195 0.7763672,0.5200196 1.06933597,1.538086 L -2.9296875,8.0419922 Q -3.0541992,7.5878906 -3.4057617,7.3461914 -3.75,7.1044922 -4.3945312,7.1044922 q -0.8129883,0 -1.1645508,0.2270508 -0.234375,0.1611328 -0.234375,0.4174804 0,0.2197266 0.2050781,0.3735352 0.2783203,0.2050781 1.9189453,0.5786133 1.6479492,0.3735351 2.2998047,0.9155273 0.64453124,0.5493168 0.64453124,1.5307618 0,1.069336 -0.89355464,1.838379 -0.8935547,0.769043 -2.644043,0.769043 -1.5893555,0 -2.5195313,-0.644531 -0.9228515,-0.644532 -1.2084961,-1.750489 z"
       style="font-style:normal;font-variant:normal;font-weight:700;font-size:15px;font-family:Arial;fill:#000000"
       id="path1054" />
  </g>
  <path
     style="fill:none;stroke:#000000;stroke-width:0.88251966px;stroke-linecap:round;stroke-linejoin:round;stroke-miterlimit:4;stroke-dasharray:none;stroke-opacity:1;"
     d="  M 752.78929,477.44315   L 752.78929,485.38583  "
     id="path77" />
  <g
     aria-label="9ms"
     transform="matrix(1.000000,-0.000000,0.000000,1.000000,766.909606,485.385827)"
     id="text83"
     style="font-style:normal;font-variant:normal;font-weight:700;font-size:15px;line-height:125%;font-family:Arial;text-align:start;letter-spacing:0px;word-spacing:0px;text-anchor:start;fill:#000000;fill-opacity:1;stroke:none">
    <path
       d="m -29.34082,11.096191 1.992187,-0.219726 q 0.07324,0.60791 0.38086,0.900879 0.307617,0.292969 0.812988,0.292969 0.637207,0 1.083984,-0.585938 0.446778,-0.585937 0.571289,-2.4316406 -0.776367,0.9008789 -1.940918,0.9008789 -1.26709,0 -2.189941,-0.9741211 -0.915527,-0.9814453 -0.915527,-2.5488281 0,-1.6333008 0.966796,-2.6293946 0.974122,-1.0034179 2.475586,-1.0034179 1.633301,0 2.680664,1.2670898 1.047364,1.2597656 1.047364,4.152832 0,2.9443356 -1.091309,4.2480466 -1.091308,1.303711 -2.841797,1.303711 -1.259765,0 -2.036133,-0.666504 -0.776367,-0.673828 -0.996093,-2.006836 z m 4.658203,-4.4970699 q 0,-0.9960938 -0.461426,-1.5454102 -0.454102,-0.5493164 -1.054687,-0.5493164 -0.57129,0 -0.952149,0.4541016 -0.373535,0.4467773 -0.373535,1.472168 0,1.040039 0.410156,1.5307617 0.410156,0.4833984 1.025391,0.4833984 0.593262,0 0.996094,-0.46875 0.410156,-0.46875 0.410156,-1.3769531 z"
       style="font-style:normal;font-variant:normal;font-weight:700;font-size:15px;font-family:Arial;fill:#000000"
       id="path1057" />
    <path
       d="m -20.756836,5.8007812 h 1.896973 V 6.862793 Q -17.841797,5.625 -16.435547,5.625 q 0.74707,0 1.296387,0.3076172 0.549316,0.3076172 0.900879,0.9301758 0.512695,-0.6225586 1.105957,-0.9301758 Q -12.539063,5.625 -11.865234,5.625 q 0.856933,0 1.450195,0.3515625 0.5932617,0.3442383 0.8862304,1.0180664 0.2124023,0.4980469 0.2124023,1.6113281 v 4.973145 H -11.374512 V 9.1333008 q 0,-1.1572266 -0.212402,-1.4941406 -0.285645,-0.4394532 -0.878906,-0.4394532 -0.432129,0 -0.812989,0.2636719 -0.380859,0.2636719 -0.549316,0.7763672 -0.168457,0.5053711 -0.168457,1.6040039 v 3.735352 h -2.058105 V 9.3164063 q 0,-1.135254 -0.109864,-1.4648438 -0.109863,-0.3295898 -0.344238,-0.4907227 -0.227051,-0.1611328 -0.622559,-0.1611328 -0.476074,0 -0.856933,0.2563477 -0.38086,0.2563476 -0.549317,0.7397461 -0.161132,0.4833984 -0.161132,1.6040039 v 3.7792973 h -2.058106 z"
       style="font-style:normal;font-variant:normal;font-weight:700;font-size:15px;font-family:Arial;fill:#000000"
       id="path1059" />
    <path
       d="m -7.9907227,11.359863 2.0654297,-0.314941 q 0.131836,0.600586 0.534668,0.915527 0.402832,0.307617 1.1279297,0.307617 0.7983398,0 1.2011719,-0.292968 0.2709961,-0.205078 0.2709961,-0.549317 0,-0.234375 -0.1464844,-0.388183 -0.1538086,-0.146485 -0.6884766,-0.270996 -2.4902344,-0.549317 -3.1567383,-1.0034184 -0.9228515,-0.6298828 -0.9228515,-1.7504883 0,-1.0107422 0.7983398,-1.6992187 Q -6.1083984,5.625 -4.4311523,5.625 q 1.5966796,0 2.3730468,0.5200195 0.7763672,0.5200196 1.06933597,1.538086 L -2.9296875,8.0419922 Q -3.0541992,7.5878906 -3.4057617,7.3461914 -3.75,7.1044922 -4.3945312,7.1044922 q -0.8129883,0 -1.1645508,0.2270508 -0.234375,0.1611328 -0.234375,0.4174804 0,0.2197266 0.2050781,0.3735352 0.2783203,0.2050781 1.9189453,0.5786133 1.6479492,0.3735351 2.2998047,0.9155273 0.64453124,0.5493168 0.64453124,1.5307618 0,1.069336 -0.89355464,1.838379 -0.8935547,0.769043 -2.644043,0.769043 -1.5893555,0 -2.5195313,-0.644531 -0.9228515,-0.644532 -1.2084961,-1.750489 z"
       style="font-style:normal;font-variant:normal;font-weight:700;font-size:15px;font-family:Arial;fill:#000000"
       id="path1061" />
  </g>
  <path
     style="fill:none;stroke:#000000;stroke-width:0.88251966px;stroke-linecap:round;stroke-linejoin:round;stroke-miterlimit:4;stroke-dasharray:none;stroke-opacity:1;"
     d="  M 831.33354,477.44315   L 831.33354,485.38583  "
     id="path85" />
  <g
     aria-label="10ms"
     transform="matrix(1.000000,-0.000000,0.000000,1.000000,848.983937,485.385827)"
     id="text91"
     style="font-style:normal;font-variant:normal;font-weight:700;font-size:15px;line-height:125%;font-family:Arial;text-align:start;letter-spacing:0px;word-spacing:0px;text-anchor:start;fill:#000000;fill-opacity:1;stroke:none">
    <path
       d="m -32.460937,13.579102 h -2.058106 V 5.8227539 q -1.12793,1.0546875 -2.658691,1.5600586 V 5.5151367 q 0.805664,-0.2636719 1.750488,-0.9960937 0.944824,-0.7397461 1.296387,-1.7211914 h 1.669922 z"
       style="font-style:normal;font-variant:normal;font-weight:700;font-size:15px;font-family:Arial;fill:#000000"
       id="path1077" />
    <path
       d="m -25.905762,2.7978516 q 1.560059,0 2.438965,1.1132812 1.047363,1.3183594 1.047363,4.3725586 0,3.0468746 -1.054687,4.3798826 -0.871582,1.098633 -2.431641,1.098633 -1.567383,0 -2.526855,-1.201172 -0.959473,-1.208496 -0.959473,-4.2993162 0,-3.0322266 1.054688,-4.3652344 0.871582,-1.0986328 2.43164,-1.0986328 z m 0,1.7065429 q -0.373535,0 -0.666504,0.2416992 -0.292968,0.234375 -0.454101,0.8496094 -0.212403,0.7983399 -0.212403,2.6879883 0,1.8896486 0.19043,2.6000976 0.19043,0.703125 0.476074,0.9375 0.292969,0.234375 0.666504,0.234375 0.373535,0 0.666504,-0.234375 0.292969,-0.241699 0.454102,-0.856934 0.212402,-0.791015 0.212402,-2.6806636 0,-1.8896484 -0.19043,-2.5927734 -0.190429,-0.7104493 -0.483398,-0.9448243 -0.285645,-0.2416992 -0.65918,-0.2416992 z"
       style="font-style:normal;font-variant:normal;font-weight:700;font-size:15px;font-family:Arial;fill:#000000"
       id="path1079" />
    <path
       d="m -20.756836,5.8007812 h 1.896973 V 6.862793 Q -17.841797,5.625 -16.435547,5.625 q 0.74707,0 1.296387,0.3076172 0.549316,0.3076172 0.900879,0.9301758 0.512695,-0.6225586 1.105957,-0.9301758 Q -12.539063,5.625 -11.865234,5.625 q 0.856933,0 1.450195,0.3515625 0.5932617,0.3442383 0.8862304,1.0180664 0.2124023,0.4980469 0.2124023,1.6113281 v 4.973145 H -11.374512 V 9.1333008 q 0,-1.1572266 -0.212402,-1.4941406 -0.285645,-0.4394532 -0.878906,-0.4394532 -0.432129,0 -0.812989,0.2636719 -0.380859,0.2636719 -0.549316,0.7763672 -0.168457,0.5053711 -0.168457,1.6040039 v 3.735352 h -2.058105 V 9.3164063 q 0,-1.135254 -0.109864,-1.4648438 -0.109863,-0.3295898 -0.344238,-0.4907227 -0.227051,-0.1611328 -0.622559,-0.1611328 -0.476074,0 -0.856933,0.2563477 -0.38086,0.2563476 -0.549317,0.7397461 -0.161132,0.4833984 -0.161132,1.6040039 v 3.7792973 h -2.058106 z"
       style="font-style:normal;font-variant:normal;font-weight:700;font-size:15px;font-family:Arial;fill:#000000"
       id="path1081" />
    <path
       d="m -7.9907227,11.359863 2.0654297,-0.314941 q 0.131836,0.600586 0.534668,0.915527 0.402832,0.307617 1.1279297,0.307617 0.7983398,0 1.2011719,-0.292968 0.2709961,-0.205078 0.2709961,-0.549317 0,-0.234375 -0.1464844,-0.388183 -0.1538086,-0.146485 -0.6884766,-0.270996 -2.4902344,-0.549317 -3.1567383,-1.0034184 -0.9228515,-0.6298828 -0.9228515,-1.7504883 0,-1.0107422 0.7983398,-1.6992187 Q -6.1083984,5.625 -4.4311523,5.625 q 1.5966796,0 2.3730468,0.5200195 0.7763672,0.5200196 1.06933597,1.538086 L -2.9296875,8.0419922 Q -3.0541992,7.5878906 -3.4057617,7.3461914 -3.75,7.1044922 -4.3945312,7.1044922 q -0.8129883,0 -1.1645508,0.2270508 -0.234375,0.1611328 -0.234375,0.4174804 0,0.2197266 0.2050781,0.3735352 0.2783203,0.2050781 1.9189453,0.5786133 1.6479492,0.3735351 2.2998047,0.9155273 0.64453124,0.5493168 0.64453124,1.5307618 0,1.069336 -0.89355464,1.838379 -0.8935547,0.769043 -2.644043,0.769043 -1.5893555,0 -2.5195313,-0.644531 -0.9228515,-0.644532 -1.2084961,-1.750489 z"
       style="font-style:normal;font-variant:normal;font-weight:700;font-size:15px;font-family:Arial;fill:#000000"
       id="path1083" />
  </g>
  <g
     aria-label="-5.0V"
     transform="matrix(1.000000,-0.000000,0.000000,1.000000,848.983937,485.385827)"
     id="text97"
     style="font-style:normal;font-variant:normal;font-weight:700;font-size:15px;line-height:125%;font-family:Arial;text-align:start;letter-spacing:0px;word-spacing:0px;text-anchor:start;fill:#000000;fill-opacity:1;stroke:none">
    <path
       d="M -848.69293,-5.1700225 V -7.228128 h 4.04297 v 2.0581055 z"
       style="font-style:normal;font-variant:normal;font-weight:700;font-size:15px;font-family:Arial;fill:#000000"
       id="path930" />
    <path
       d="m -843.8736,-5.0674834 2.05079,-0.2124024 q 0.0879,0.6958008 0.52001,1.1059571 0.43213,0.402832 0.9961,0.402832 0.64453,0 1.09131,-0.5200195 0.44677,-0.5273438 0.44677,-1.5820313 0,-0.9887695 -0.44677,-1.4794922 -0.43946,-0.4980469 -1.14991,-0.4980469 -0.88623,0 -1.58935,0.7836915 l -1.66992,-0.2416993 1.05468,-5.5883786 h 5.4419 v 1.926269 h -3.88184 l -0.32226,1.8237307 q 0.68847,-0.3442383 1.40625,-0.3442383 1.36963,0 2.32178,0.9960938 0.95214,0.9960937 0.95214,2.5854492 0,1.3256836 -0.76904,2.3657227 -1.04736,1.4208984 -2.90771,1.4208984 -1.48682,0 -2.42432,-0.7983398 -0.9375,-0.7983399 -1.12061,-2.1459961 z"
       style="font-style:normal;font-variant:normal;font-weight:700;font-size:15px;font-family:Arial;fill:#000000"
       id="path932" />
    <path
       d="m -835.12115,-2.306253 v -2.0581054 h 2.0581 v 2.0581054 z"
       style="font-style:normal;font-variant:normal;font-weight:700;font-size:15px;font-family:Arial;fill:#000000"
       id="path934" />
    <path
       d="m -827.91412,-13.087503 q 1.56006,0 2.43896,1.113281 1.04736,1.31836 1.04736,4.3725589 0,3.046875 -1.05468,4.3798828 -0.87158,1.0986328 -2.43164,1.0986328 -1.56739,0 -2.52686,-1.2011719 -0.95947,-1.2084961 -0.95947,-4.2993164 0,-3.0322262 1.05469,-4.3652342 0.87158,-1.098633 2.43164,-1.098633 z m 0,1.706543 q -0.37354,0 -0.66651,0.241699 -0.29297,0.234375 -0.4541,0.84961 -0.2124,0.7983394 -0.2124,2.6879879 0,1.8896484 0.19043,2.6000976 0.19043,0.703125 0.47607,0.9375 0.29297,0.234375 0.66651,0.234375 0.37353,0 0.6665,-0.234375 0.29297,-0.2416992 0.4541,-0.8569336 0.2124,-0.7910156 0.2124,-2.680664 0,-1.8896485 -0.19043,-2.5927739 -0.19043,-0.710449 -0.48339,-0.944824 -0.28565,-0.241699 -0.65918,-0.241699 z"
       style="font-style:normal;font-variant:normal;font-weight:700;font-size:15px;font-family:Arial;fill:#000000"
       id="path936" />
    <path
       d="m -819.85748,-2.306253 -3.83789,-10.737305 h 2.35107 l 2.71729,7.9467777 2.62939,-7.9467777 h 2.29981 l -3.84522,10.737305 z"
       style="font-style:normal;font-variant:normal;font-weight:700;font-size:15px;font-family:Arial;fill:#000000"
       id="path938" />
  </g>
  <path
     style="fill:none;stroke:#000000;stroke-width:0.88251966px;stroke-linecap:round;stroke-linejoin:round;stroke-miterlimit:4;stroke-dasharray:none;stroke-opacity:1;"
     d="  M 43.243465,477.44315   L 35.300787,477.44315  "
     id="path99" />
  <g
     aria-label="-4.0V"
     transform="matrix(1.000000,-0.000000,0.000000,1.000000,35.300787,385.661102)"
     id="text113"
     style="font-style:normal;font-variant:normal;font-weight:700;font-size:15px;line-height:125%;font-family:Arial;text-align:start;letter-spacing:0px;word-spacing:0px;text-anchor:start;fill:#000000;fill-opacity:1;stroke:none">
    <path
       d="M -35.009766,10.715332 V 8.6572266 h 4.042969 v 2.0581054 z"
       style="font-style:normal;font-variant:normal;font-weight:700;font-size:15px;font-family:Arial;fill:#000000"
       id="path941" />
    <path
       d="m -26.184082,13.579102 v -2.160645 h -4.394531 V 9.6166992 l 4.658203,-6.8188476 h 1.728515 V 9.609375 h 1.333008 v 1.809082 h -1.333008 v 2.160645 z m 0,-3.969727 V 5.9399414 l -2.468262,3.6694336 z"
       style="font-style:normal;font-variant:normal;font-weight:700;font-size:15px;font-family:Arial;fill:#000000"
       id="path943" />
    <path
       d="m -21.437988,13.579102 v -2.058106 h 2.058105 v 2.058106 z"
       style="font-style:normal;font-variant:normal;font-weight:700;font-size:15px;font-family:Arial;fill:#000000"
       id="path945" />
    <path
       d="m -14.230957,2.7978516 q 1.560059,0 2.438965,1.1132812 1.047363,1.3183594 1.047363,4.3725586 0,3.0468746 -1.054687,4.3798826 -0.871582,1.098633 -2.431641,1.098633 -1.567383,0 -2.526855,-1.201172 -0.959473,-1.208496 -0.959473,-4.2993162 0,-3.0322266 1.054687,-4.3652344 0.871582,-1.0986328 2.431641,-1.0986328 z m 0,1.7065429 q -0.373535,0 -0.666504,0.2416992 -0.292969,0.234375 -0.454102,0.8496094 -0.212402,0.7983399 -0.212402,2.6879883 0,1.8896486 0.19043,2.6000976 0.19043,0.703125 0.476074,0.9375 0.292969,0.234375 0.666504,0.234375 0.373535,0 0.666504,-0.234375 0.292969,-0.241699 0.454101,-0.856934 0.212403,-0.791015 0.212403,-2.6806636 0,-1.8896484 -0.19043,-2.5927734 -0.19043,-0.7104493 -0.483398,-0.9448243 -0.285645,-0.2416992 -0.65918,-0.2416992 z"
       style="font-style:normal;font-variant:normal;font-weight:700;font-size:15px;font-family:Arial;fill:#000000"
       id="path947" />
    <path
       d="M -6.1743164,13.579102 -10.012207,2.8417969 h 2.3510742 l 2.7172851,7.9467771 2.6293946,-7.9467771 h 2.29980466 L -3.8598633,13.579102 Z"
       style="font-style:normal;font-variant:normal;font-weight:700;font-size:15px;font-family:Arial;fill:#000000"
       id="path949" />
  </g>
  <path
     style="fill:none;stroke:#000000;stroke-width:0.88251966px;stroke-linecap:round;stroke-linejoin:round;stroke-miterlimit:4;stroke-dasharray:none;stroke-opacity:1;"
     d="  M 43.243465,393.60378   L 35.300787,393.60378  "
     id="path115" />
  <g
     aria-label="-3.0V"
     transform="matrix(1.000000,-0.000000,0.000000,1.000000,35.300787,302.704252)"
     id="text129"
     style="font-style:normal;font-variant:normal;font-weight:700;font-size:15px;line-height:125%;font-family:Arial;text-align:start;letter-spacing:0px;word-spacing:0px;text-anchor:start;fill:#000000;fill-opacity:1;stroke:none">
    <path
       d="M -35.009766,10.715332 V 8.6572266 h 4.042969 v 2.0581054 z"
       style="font-style:normal;font-variant:normal;font-weight:700;font-size:15px;font-family:Arial;fill:#000000"
       id="path952" />
    <path
       d="m -30.292969,10.72998 1.992188,-0.241699 q 0.09521,0.761719 0.512695,1.164551 0.417481,0.402832 1.010742,0.402832 0.637207,0 1.069336,-0.483398 0.439453,-0.483399 0.439453,-1.303711 0,-0.7763675 -0.41748,-1.2304691 -0.417481,-0.4541015 -1.018067,-0.4541015 -0.395507,0 -0.944824,0.1538086 l 0.227051,-1.6772461 q 0.834961,0.021973 1.274414,-0.3588867 0.439453,-0.3881836 0.439453,-1.0253907 0,-0.5419922 -0.322265,-0.8642578 -0.322266,-0.3222656 -0.856934,-0.3222656 -0.527344,0 -0.900879,0.3662109 -0.373535,0.366211 -0.454101,1.069336 L -30.13916,5.6030273 q 0.197754,-0.9741211 0.593262,-1.5527343 0.402832,-0.5859375 1.113281,-0.9155274 0.717773,-0.336914 1.604004,-0.336914 1.516113,0 2.43164,0.9667968 0.754395,0.7910157 0.754395,1.7871094 0,1.4135742 -1.54541,2.2558594 0.922851,0.1977539 1.472168,0.8862305 0.55664,0.6884765 0.55664,1.6625973 0,1.413575 -1.032715,2.409668 -1.032714,0.996094 -2.5708,0.996094 -1.45752,0 -2.416992,-0.834961 -0.959473,-0.842285 -1.113282,-2.197266 z"
       style="font-style:normal;font-variant:normal;font-weight:700;font-size:15px;font-family:Arial;fill:#000000"
       id="path954" />
    <path
       d="m -21.437988,13.579102 v -2.058106 h 2.058105 v 2.058106 z"
       style="font-style:normal;font-variant:normal;font-weight:700;font-size:15px;font-family:Arial;fill:#000000"
       id="path956" />
    <path
       d="m -14.230957,2.7978516 q 1.560059,0 2.438965,1.1132812 1.047363,1.3183594 1.047363,4.3725586 0,3.0468746 -1.054687,4.3798826 -0.871582,1.098633 -2.431641,1.098633 -1.567383,0 -2.526855,-1.201172 -0.959473,-1.208496 -0.959473,-4.2993162 0,-3.0322266 1.054687,-4.3652344 0.871582,-1.0986328 2.431641,-1.0986328 z m 0,1.7065429 q -0.373535,0 -0.666504,0.2416992 -0.292969,0.234375 -0.454102,0.8496094 -0.212402,0.7983399 -0.212402,2.6879883 0,1.8896486 0.19043,2.6000976 0.19043,0.703125 0.476074,0.9375 0.292969,0.234375 0.666504,0.234375 0.373535,0 0.666504,-0.234375 0.292969,-0.241699 0.454101,-0.856934 0.212403,-0.791015 0.212403,-2.6806636 0,-1.8896484 -0.19043,-2.5927734 -0.19043,-0.7104493 -0.483398,-0.9448243 -0.285645,-0.2416992 -0.65918,-0.2416992 z"
       style="font-style:normal;font-variant:normal;font-weight:700;font-size:15px;font-family:Arial;fill:#000000"
       id="path958" />
    <path
       d="M -6.1743164,13.579102 -10.012207,2.8417969 h 2.3510742 l 2.7172851,7.9467771 2.6293946,-7.9467771 h 2.29980466 L -3.8598633,13.579102 Z"
       style="font-style:normal;font-variant:normal;font-weight:700;font-size:15px;font-family:Arial;fill:#000000"
       id="path960" />
  </g>
  <path
     style="fill:none;stroke:#000000;stroke-width:0.88251966px;stroke-linecap:round;stroke-linejoin:round;stroke-miterlimit:4;stroke-dasharray:none;stroke-opacity:1;"
     d="  M 43.243465,310.64693   L 35.300787,310.64693  "
     id="path131" />
  <g
     aria-label="-2.0V"
     transform="matrix(1.000000,-0.000000,0.000000,1.000000,35.300787,218.864882)"
     id="text145"
     style="font-style:normal;font-variant:normal;font-weight:700;font-size:15px;line-height:125%;font-family:Arial;text-align:start;letter-spacing:0px;word-spacing:0px;text-anchor:start;fill:#000000;fill-opacity:1;stroke:none">
    <path
       d="M -35.009766,10.715332 V 8.6572266 h 4.042969 v 2.0581054 z"
       style="font-style:normal;font-variant:normal;font-weight:700;font-size:15px;font-family:Arial;fill:#000000"
       id="path963" />
    <path
       d="m -23.269043,11.66748 v 1.911622 h -7.214355 q 0.117187,-1.083985 0.703125,-2.050782 0.585937,-0.974121 2.314453,-2.5781247 1.391601,-1.2963867 1.706543,-1.7578125 0.424804,-0.637207 0.424804,-1.2597656 0,-0.6884766 -0.373535,-1.0546875 -0.366211,-0.3735352 -1.018066,-0.3735352 -0.644531,0 -1.025391,0.3881836 -0.380859,0.3881836 -0.439453,1.2890625 l -2.050781,-0.2050781 q 0.183105,-1.6992188 1.149902,-2.4389648 0.966797,-0.7397461 2.416992,-0.7397461 1.589356,0 2.497559,0.8569336 0.908203,0.8569335 0.908203,2.1313476 0,0.7250977 -0.263672,1.3842774 -0.256347,0.6518554 -0.820312,1.3696289 -0.373535,0.4760742 -1.347657,1.3696289 -0.974121,0.893555 -1.237793,1.186523 -0.256347,0.292969 -0.41748,0.571289 z"
       style="font-style:normal;font-variant:normal;font-weight:700;font-size:15px;font-family:Arial;fill:#000000"
       id="path965" />
    <path
       d="m -21.437988,13.579102 v -2.058106 h 2.058105 v 2.058106 z"
       style="font-style:normal;font-variant:normal;font-weight:700;font-size:15px;font-family:Arial;fill:#000000"
       id="path967" />
    <path
       d="m -14.230957,2.7978516 q 1.560059,0 2.438965,1.1132812 1.047363,1.3183594 1.047363,4.3725586 0,3.0468746 -1.054687,4.3798826 -0.871582,1.098633 -2.431641,1.098633 -1.567383,0 -2.526855,-1.201172 -0.959473,-1.208496 -0.959473,-4.2993162 0,-3.0322266 1.054687,-4.3652344 0.871582,-1.0986328 2.431641,-1.0986328 z m 0,1.7065429 q -0.373535,0 -0.666504,0.2416992 -0.292969,0.234375 -0.454102,0.8496094 -0.212402,0.7983399 -0.212402,2.6879883 0,1.8896486 0.19043,2.6000976 0.19043,0.703125 0.476074,0.9375 0.292969,0.234375 0.666504,0.234375 0.373535,0 0.666504,-0.234375 0.292969,-0.241699 0.454101,-0.856934 0.212403,-0.791015 0.212403,-2.6806636 0,-1.8896484 -0.19043,-2.5927734 -0.19043,-0.7104493 -0.483398,-0.9448243 -0.285645,-0.2416992 -0.65918,-0.2416992 z"
       style="font-style:normal;font-variant:normal;font-weight:700;font-size:15px;font-family:Arial;fill:#000000"
       id="path969" />
    <path
       d="M -6.1743164,13.579102 -10.012207,2.8417969 h 2.3510742 l 2.7172851,7.9467771 2.6293946,-7.9467771 h 2.29980466 L -3.8598633,13.579102 Z"
       style="font-style:normal;font-variant:normal;font-weight:700;font-size:15px;font-family:Arial;fill:#000000"
       id="path971" />
  </g>
  <path
     style="fill:none;stroke:#000000;stroke-width:0.88251966px;stroke-linecap:round;stroke-linejoin:round;stroke-miterlimit:4;stroke-dasharray:none;stroke-opacity:1;"
     d="  M 43.243465,226.80756   L 35.300787,226.80756  "
     id="path147" />
  <g
     aria-label="-1.0V"
     transform="matrix(1.000000,-0.000000,0.000000,1.000000,35.300787,135.908031)"
     id="text161"
     style="font-style:normal;font-variant:normal;font-weight:700;font-size:15px;line-height:125%;font-family:Arial;text-align:start;letter-spacing:0px;word-spacing:0px;text-anchor:start;fill:#000000;fill-opacity:1;stroke:none">
    <path
       d="M -35.009766,10.715332 V 8.6572266 h 4.042969 v 2.0581054 z"
       style="font-style:normal;font-variant:normal;font-weight:700;font-size:15px;font-family:Arial;fill:#000000"
       id="path974" />
    <path
       d="m -24.953613,13.579102 h -2.058106 V 5.8227539 q -1.127929,1.0546875 -2.658691,1.5600586 V 5.5151367 q 0.805664,-0.2636719 1.750488,-0.9960937 0.944824,-0.7397461 1.296387,-1.7211914 h 1.669922 z"
       style="font-style:normal;font-variant:normal;font-weight:700;font-size:15px;font-family:Arial;fill:#000000"
       id="path976" />
    <path
       d="m -21.437988,13.579102 v -2.058106 h 2.058105 v 2.058106 z"
       style="font-style:normal;font-variant:normal;font-weight:700;font-size:15px;font-family:Arial;fill:#000000"
       id="path978" />
    <path
       d="m -14.230957,2.7978516 q 1.560059,0 2.438965,1.1132812 1.047363,1.3183594 1.047363,4.3725586 0,3.0468746 -1.054687,4.3798826 -0.871582,1.098633 -2.431641,1.098633 -1.567383,0 -2.526855,-1.201172 -0.959473,-1.208496 -0.959473,-4.2993162 0,-3.0322266 1.054687,-4.3652344 0.871582,-1.0986328 2.431641,-1.0986328 z m 0,1.7065429 q -0.373535,0 -0.666504,0.2416992 -0.292969,0.234375 -0.454102,0.8496094 -0.212402,0.7983399 -0.212402,2.6879883 0,1.8896486 0.19043,2.6000976 0.19043,0.703125 0.476074,0.9375 0.292969,0.234375 0.666504,0.234375 0.373535,0 0.666504,-0.234375 0.292969,-0.241699 0.454101,-0.856934 0.212403,-0.791015 0.212403,-2.6806636 0,-1.8896484 -0.19043,-2.5927734 -0.19043,-0.7104493 -0.483398,-0.9448243 -0.285645,-0.2416992 -0.65918,-0.2416992 z"
       style="font-style:normal;font-variant:normal;font-weight:700;font-size:15px;font-family:Arial;fill:#000000"
       id="path980" />
    <path
       d="M -6.1743164,13.579102 -10.012207,2.8417969 h 2.3510742 l 2.7172851,7.9467771 2.6293946,-7.9467771 h 2.29980466 L -3.8598633,13.579102 Z"
       style="font-style:normal;font-variant:normal;font-weight:700;font-size:15px;font-family:Arial;fill:#000000"
       id="path982" />
  </g>
  <path
     style="fill:none;stroke:#000000;stroke-width:0.88251966px;stroke-linecap:round;stroke-linejoin:round;stroke-miterlimit:4;stroke-dasharray:none;stroke-opacity:1;"
     d="  M 43.243465,143.85071   L 35.300787,143.85071  "
     id="path163" />
  <g
     aria-label="0.0V"
     transform="matrix(1.000000,-0.000000,0.000000,1.000000,35.300787,52.068661)"
     id="text177"
     style="font-style:normal;font-variant:normal;font-weight:700;font-size:15px;line-height:125%;font-family:Arial;text-align:start;letter-spacing:0px;word-spacing:0px;text-anchor:start;fill:#000000;fill-opacity:1;stroke:none">
    <path
       d="m -26.740723,2.7978516 q 1.560059,0 2.438965,1.1132812 1.047363,1.3183594 1.047363,4.3725586 0,3.0468746 -1.054687,4.3798826 -0.871582,1.098633 -2.431641,1.098633 -1.567382,0 -2.526855,-1.201172 -0.959473,-1.208496 -0.959473,-4.2993162 0,-3.0322266 1.054688,-4.3652344 0.871582,-1.0986328 2.43164,-1.0986328 z m 0,1.7065429 q -0.373535,0 -0.666504,0.2416992 -0.292968,0.234375 -0.454101,0.8496094 -0.212402,0.7983399 -0.212402,2.6879883 0,1.8896486 0.190429,2.6000976 0.19043,0.703125 0.476074,0.9375 0.292969,0.234375 0.666504,0.234375 0.373536,0 0.666504,-0.234375 0.292969,-0.241699 0.454102,-0.856934 0.212402,-0.791015 0.212402,-2.6806636 0,-1.8896484 -0.19043,-2.5927734 -0.190429,-0.7104493 -0.483398,-0.9448243 -0.285644,-0.2416992 -0.65918,-0.2416992 z"
       style="font-style:normal;font-variant:normal;font-weight:700;font-size:15px;font-family:Arial;fill:#000000"
       id="path985" />
    <path
       d="m -21.437988,13.579102 v -2.058106 h 2.058105 v 2.058106 z"
       style="font-style:normal;font-variant:normal;font-weight:700;font-size:15px;font-family:Arial;fill:#000000"
       id="path987" />
    <path
       d="m -14.230957,2.7978516 q 1.560059,0 2.438965,1.1132812 1.047363,1.3183594 1.047363,4.3725586 0,3.0468746 -1.054687,4.3798826 -0.871582,1.098633 -2.431641,1.098633 -1.567383,0 -2.526855,-1.201172 -0.959473,-1.208496 -0.959473,-4.2993162 0,-3.0322266 1.054687,-4.3652344 0.871582,-1.0986328 2.431641,-1.0986328 z m 0,1.7065429 q -0.373535,0 -0.666504,0.2416992 -0.292969,0.234375 -0.454102,0.8496094 -0.212402,0.7983399 -0.212402,2.6879883 0,1.8896486 0.19043,2.6000976 0.19043,0.703125 0.476074,0.9375 0.292969,0.234375 0.666504,0.234375 0.373535,0 0.666504,-0.234375 0.292969,-0.241699 0.454101,-0.856934 0.212403,-0.791015 0.212403,-2.6806636 0,-1.8896484 -0.19043,-2.5927734 -0.19043,-0.7104493 -0.483398,-0.9448243 -0.285645,-0.2416992 -0.65918,-0.2416992 z"
       style="font-style:normal;font-variant:normal;font-weight:700;font-size:15px;font-family:Arial;fill:#000000"
       id="path989" />
    <path
       d="M -6.1743164,13.579102 -10.012207,2.8417969 h 2.3510742 l 2.7172851,7.9467771 2.6293946,-7.9467771 h 2.29980466 L -3.8598633,13.579102 Z"
       style="font-style:normal;font-variant:normal;font-weight:700;font-size:15px;font-family:Arial;fill:#000000"
       id="path991" />
  </g>
  <path
     style="fill:none;stroke:#000000;stroke-width:0.88251966px;stroke-linecap:round;stroke-linejoin:round;stroke-miterlimit:4;stroke-dasharray:none;stroke-opacity:1;"
     d="  M 43.243465,60.011339   L 35.300787,60.011339  "
     id="path179" />
  <path
     style="fill:none;stroke:#000000;stroke-width:0.88251966px;stroke-linecap:round;stroke-linejoin:round;stroke-miterlimit:4;stroke-dasharray:none;stroke-opacity:1;"
     d="  M 43.243465,18.532913   L 35.300787,18.532913  "
     id="path187" />
  <path
     style="fill:none;stroke:#000000;stroke-width:0.88251966px;stroke-linecap:round;stroke-linejoin:round;stroke-miterlimit:4;stroke-dasharray:none;stroke-opacity:1;"
     d="  M 43.243465,18.532913   L 831.33354,18.532913   L 831.33354,477.44315   L 43.243465,477.44315   L 43.243465,18.532913  "
     id="path189" />
  <g
     aria-label="V(out)"
     transform="matrix(1.000000,-0.000000,0.000000,1.000000,436.847244,0.000000)"
     id="text195"
     style="font-style:normal;font-variant:normal;font-weight:700;font-size:15px;line-height:125%;font-family:Arial;text-align:start;letter-spacing:0px;word-spacing:0px;text-anchor:start;fill:#008000;fill-opacity:1;stroke:none">
    <path
       d="M -17.827148,13.579102 -21.665039,2.8417969 h 2.351074 l 2.717285,7.9467771 2.629395,-7.9467771 h 2.299805 l -3.845215,10.7373051 z"
       style="font-style:normal;font-variant:normal;font-weight:700;font-size:15px;font-family:Arial;fill:#008000"
       id="path1064" />
    <path
       d="m -7.1630859,16.73584 h -1.4135743 q -1.1206054,-1.691895 -1.7065428,-3.515625 -0.585938,-1.823731 -0.585938,-3.5302736 0,-2.1166992 0.725098,-4.0063477 0.6298828,-1.640625 1.5966797,-3.0249023 h 1.40625 q -1.003418,2.2192383 -1.3842773,3.7792969 -0.3735352,1.5527344 -0.3735352,3.2958984 0,1.2011723 0.2197266,2.4609373 0.2270508,1.259766 0.6152344,2.39502 0.2563476,0.74707 0.9008789,2.145996 z"
       style="font-style:normal;font-variant:normal;font-weight:700;font-size:15px;font-family:Arial;fill:#008000"
       id="path1066" />
    <path
       d="m -6.0571289,9.5800781 q 0,-1.0253906 0.5053711,-1.9848633 Q -5.0463867,6.6357422 -4.1235352,6.1303711 -3.1933594,5.625 -2.0507813,5.625 q 1.76513677,0 2.89306646,1.1499023 1.12792964,1.1425782 1.12792964,2.8930665 0,1.7651362 -1.14257808,2.9296872 -1.13525391,1.157227 -2.86376952,1.157227 -1.069336,0 -2.043457,-0.483399 -0.9667969,-0.483398 -1.472168,-1.413574 -0.5053711,-0.9375 -0.5053711,-2.2778319 z m 2.109375,0.1098633 q 0,1.1572266 0.5493164,1.7724606 0.5493164,0.615235 1.3549805,0.615235 0.805664,0 1.34765622,-0.615235 0.54931641,-0.615234 0.54931641,-1.787109 0,-1.1425782 -0.54931641,-1.7578125 Q -1.237793,7.3022461 -2.043457,7.3022461 q -0.8056641,0 -1.3549805,0.6152344 -0.5493164,0.6152343 -0.5493164,1.7724609 z"
       style="font-style:normal;font-variant:normal;font-weight:700;font-size:15px;font-family:Arial;fill:#008000"
       id="path1068" />
    <path
       d="m 8.7011719,13.579102 v -1.164551 q -0.4248047,0.622558 -1.1206055,0.981445 -0.6884766,0.358887 -1.4575195,0.358887 -0.7836914,0 -1.40625,-0.344238 Q 4.0942383,13.066406 3.815918,12.443848 3.5375977,11.821289 3.5375977,10.722656 V 5.8007812 H 5.5957031 V 9.375 q 0,1.640625 0.1098633,2.01416 0.1171875,0.366211 0.4174805,0.585938 0.3002929,0.212402 0.7617187,0.212402 0.5273438,0 0.9448242,-0.285645 0.4174805,-0.292968 0.5712891,-0.717773 0.1538086,-0.432129 0.1538086,-2.1020507 V 5.8007812 h 2.0581055 v 7.7783208 z"
       style="font-style:normal;font-variant:normal;font-weight:700;font-size:15px;font-family:Arial;fill:#008000"
       id="path1070" />
    <path
       d="m 16.311035,5.8007812 v 1.640625 h -1.40625 v 3.1347658 q 0,0.952148 0.03662,1.113281 0.04395,0.153809 0.183106,0.256348 0.146484,0.102539 0.351562,0.102539 0.285645,0 0.827637,-0.197754 l 0.175781,1.59668 q -0.717773,0.307617 -1.625976,0.307617 -0.556641,0 -1.003418,-0.183106 -0.446778,-0.190429 -0.65918,-0.483398 -0.205078,-0.300293 -0.285645,-0.805664 -0.06592,-0.358887 -0.06592,-1.450195 V 7.4414062 h -0.944824 v -1.640625 h 0.944824 V 4.2553711 l 2.06543,-1.2011719 v 2.746582 z"
       style="font-style:normal;font-variant:normal;font-weight:700;font-size:15px;font-family:Arial;fill:#008000"
       id="path1072" />
    <path
       d="m 17.167969,16.73584 q 0.60791,-1.303711 0.856933,-1.999512 0.249024,-0.695801 0.461426,-1.604004 0.212402,-0.908203 0.314942,-1.721191 0.102539,-0.820313 0.102539,-1.6772463 0,-1.743164 -0.373536,-3.2958984 Q 18.156738,4.8779297 17.15332,2.6586914 h 1.398926 q 1.105957,1.574707 1.713867,3.3398438 0.615235,1.7651367 0.615235,3.5815429 0,1.5307619 -0.483399,3.2812499 -0.549316,1.962891 -1.809082,3.874512 z"
       style="font-style:normal;font-variant:normal;font-weight:700;font-size:15px;font-family:Arial;fill:#008000"
       id="path1074" />
  </g>
  <path
     style="fill:none;stroke:#008000;stroke-width:1.183;stroke-linecap:round;stroke-linejoin:round;stroke-miterlimit:4;stroke-dasharray:none;stroke-opacity:1"
     d="  M 43.243465,60.011339   L 45.008504,60.011339   L 46.773543,59.128819   L 48.538583,60.011339   L 50.303622,59.128819   L 50.303622,60.893858   L 50.303622,62.658898   L 50.303622,64.423937   L 51.186142,67.071496   L 51.186142,69.719055   L 51.186142,71.484094   L 52.951181,70.601575   L 52.951181,72.366614   L 53.833701,74.131654   L 53.833701,76.779213   L 53.833701,80.309291   L 54.71622,84.72189   L 56.48126,83.83937   L 56.48126,85.604409   L 56.48126,87.369449   L 56.48126,90.017008   L 57.36378,94.429606   L 57.36378,98.842205   L 59.128819,98.842205   L 60.011339,100.60724   L 60.011339,102.37228   L 60.011339,104.13732   L 60.011339,107.6674   L 60.893858,110.31496   L 60.893858,112.08   L 62.658898,112.08   L 62.658898,113.84504   L 62.658898,115.61008   L 62.658898,118.25764   L 63.541417,121.78772   L 63.541417,123.55276   L 64.423937,126.20031   L 66.188976,127.08283   L 66.188976,129.73039   L 66.188976,131.49543   L 66.188976,135.90803   L 67.071496,137.67307   L 67.071496,139.43811   L 68.836535,139.43811   L 68.836535,141.20315   L 68.836535,144.73323   L 69.719055,148.26331   L 69.719055,150.91087   L 70.601575,152.67591   L 72.366614,152.67591   L 72.366614,155.32346   L 72.366614,157.0885   L 72.366614,160.61858   L 73.249134,165.03118   L 75.014173,164.14866   L 75.014173,165.9137   L 75.014173,167.67874   L 75.896693,169.44378   L 75.896693,172.97386   L 76.779213,176.50394   L 78.544252,176.50394   L 78.544252,178.26898   L 78.544252,181.79906   L 78.544252,184.44661   L 79.426772,188.85921   L 81.191811,187.97669   L 81.191811,189.74173   L 82.074331,193.27181   L 82.074331,195.91937   L 82.95685,200.33197   L 84.72189,199.44945   L 84.72189,201.21449   L 84.72189,204.74457   L 85.604409,207.39213   L 85.604409,210.9222   L 87.369449,210.9222   L 87.369449,212.68724   L 88.251969,215.3348   L 88.251969,217.98236   L 89.134488,221.51244   L 90.899528,221.51244   L 90.899528,223.27748   L 90.899528,225.92504   L 91.782047,228.5726   L 91.782047,232.10268   L 93.547087,232.10268   L 93.547087,233.86772   L 94.429606,236.51528   L 94.429606,239.16283   L 95.312126,242.69291   L 97.077165,241.81039   L 97.077165,243.57543   L 97.077165,246.22299   L 97.959685,248.87055   L 97.959685,252.40063   L 99.724724,251.51811   L 99.724724,253.28315   L 100.60724,255.93071   L 100.60724,258.57827   L 100.60724,260.34331   L 101.48976,262.10835   L 103.2548,261.22583   L 103.2548,262.99087   L 103.2548,265.63843   L 104.13732,268.28598   L 104.13732,270.05102   L 104.13732,271.81606   L 105.90236,270.93354   L 105.90236,272.69858   L 106.78488,274.46362   L 106.78488,277.11118   L 106.78488,278.87622   L 107.6674,280.64126   L 109.43244,279.75874   L 109.43244,281.52378   L 109.43244,284.17134   L 110.31496,285.93638   L 110.31496,289.46646   L 112.08,288.58394   L 112.08,290.34898   L 112.96252,292.11402   L 112.96252,293.87906   L 112.96252,295.64409   L 113.84504,297.40913   L 115.61008,296.52661   L 115.61008,298.29165   L 115.61008,300.93921   L 116.4926,303.58677   L 116.4926,306.23433   L 118.25764,305.35181   L 118.25764,307.11685   L 119.14016,308.88189   L 119.14016,311.52945   L 120.02268,314.17701   L 121.78772,313.29449   L 121.78772,315.05953   L 121.78772,316.82457   L 122.67024,319.47213   L 122.67024,321.23717   L 124.43528,321.23717   L 125.3178,323.0022   L 125.3178,325.64976   L 126.20031,328.29732   L 127.96535,328.29732   L 127.96535,330.06236   L 127.96535,331.8274   L 128.84787,333.59244   L 128.84787,335.35748   L 128.84787,337.12252   L 130.61291,336.24   L 131.49543,338.00504   L 131.49543,339.77008   L 131.49543,341.53512   L 132.37795,344.18268   L 134.14299,343.30016   L 134.14299,345.0652   L 135.02551,347.71276   L 135.02551,349.4778   L 135.90803,351.24283   L 137.67307,350.36031   L 137.67307,352.12535   L 137.67307,353.89039   L 138.55559,355.65543   L 138.55559,357.42047   L 140.32063,357.42047   L 140.32063,359.18551   L 141.20315,360.95055   L 141.20315,362.71559   L 142.08567,364.48063   L 143.85071,363.59811   L 143.85071,366.24567   L 143.85071,368.01071   L 144.73323,370.65827   L 146.49827,369.77575   L 146.49827,371.54079   L 147.38079,373.30583   L 147.38079,375.07087   L 148.26331,376.83591   L 150.02835,375.95339   L 150.02835,377.71843   L 150.91087,380.36598   L 150.91087,382.13102   L 152.67591,382.13102   L 153.55843,384.77858   L 153.55843,386.54362   L 154.44094,388.30866   L 156.20598,387.42614   L 156.20598,390.0737   L 157.0885,392.72126   L 158.85354,392.72126   L 158.85354,394.4863   L 159.73606,397.13386   L 160.61858,398.8989   L 162.38362,398.01638   L 162.38362,399.78142   L 163.26614,402.42898   L 163.26614,404.19402   L 165.03118,403.3115   L 165.9137,405.07654   L 165.9137,407.72409   L 166.79622,409.48913   L 168.56126,408.60661   L 168.56126,410.37165   L 169.44378,413.01921   L 171.20882,413.90173   L 172.09134,415.66677   L 172.09134,417.43181   L 172.97386,419.19685   L 174.7389,418.31433   L 174.7389,420.07937   L 175.62142,421.84441   L 175.62142,423.60945   L 177.38646,422.72693   L 178.26898,424.49197   L 178.26898,426.25701   L 179.1515,428.02205   L 180.91654,427.13953   L 180.91654,428.90457   L 181.79906,430.66961   L 181.79906,432.43465   L 183.56409,431.55213   L 184.44661,433.31717   L 184.44661,435.0822   L 186.21165,435.96472   L 187.97669,437.72976   L 187.97669,439.4948   L 189.74173,439.4948   L 190.62425,441.25984   L 190.62425,443.02488   L 192.38929,443.9074   L 194.15433,445.67244   L 195.03685,447.43748   L 196.80189,446.55496   L 196.80189,448.32   L 196.80189,450.08504   L 198.56693,450.96756   L 200.33197,451.85008   L 200.33197,453.61512   L 202.09701,453.61512   L 202.97953,455.38016   L 203.86205,457.1452   L 205.62709,457.1452   L 206.50961,458.91024   L 208.27465,459.79276   L 210.03969,461.5578   L 211.80472,461.5578   L 212.68724,463.32283   L 214.45228,464.20535   L 216.21732,465.08787   L 217.98236,465.08787   L 218.86488,466.85291   L 220.62992,466.85291   L 222.39496,467.73543   L 224.16,467.73543   L 225.92504,469.50047   L 227.69008,468.61795   L 228.5726,470.38299   L 230.33764,469.50047   L 232.10268,471.26551   L 233.86772,470.38299   L 235.63276,471.26551   L 237.3978,471.26551   L 239.16283,472.14803   L 240.92787,472.14803   L 242.69291,472.14803   L 244.45795,472.14803   L 246.22299,472.14803   L 247.98803,473.03055   L 249.75307,472.14803   L 251.51811,473.03055   L 253.28315,473.03055   L 255.04819,473.03055   L 256.81323,473.03055   L 258.57827,472.14803   L 260.34331,473.03055   L 262.10835,473.03055   L 263.87339,473.03055   L 265.63843,473.03055   L 267.40346,473.03055   L 269.1685,473.03055   L 270.93354,473.03055   L 272.69858,473.91307   L 274.46362,473.03055   L 276.22866,473.91307   L 277.9937,473.03055   L 279.75874,473.03055   L 281.52378,473.91307   L 283.28882,473.03055   L 285.05386,473.91307   L 286.8189,473.03055   L 288.58394,473.91307   L 290.34898,473.03055   L 292.11402,473.03055   L 293.87906,473.91307   L 295.64409,473.03055   L 297.40913,473.91307   L 299.17417,473.03055   L 300.93921,473.91307   L 302.70425,473.03055   L 304.46929,473.03055   L 306.23433,473.03055   L 307.99937,473.03055   L 309.76441,473.91307   L 311.52945,473.03055   L 313.29449,473.91307   L 315.05953,473.03055   L 316.82457,473.91307   L 318.58961,473.03055   L 320.35465,473.03055   L 322.11969,473.91307   L 323.88472,473.03055   L 325.64976,473.91307   L 327.4148,473.03055   L 329.17984,473.91307   L 330.94488,473.03055   L 332.70992,473.03055   L 334.47496,473.91307   L 336.24,473.03055   L 338.00504,473.91307   L 339.77008,473.03055   L 341.53512,473.91307   L 343.30016,473.03055   L 345.0652,473.03055   L 346.83024,473.91307   L 348.59528,473.03055   L 350.36031,473.91307   L 352.12535,473.03055   L 353.89039,473.91307   L 355.65543,473.03055   L 357.42047,473.91307   L 359.18551,473.03055   L 360.95055,473.03055   L 362.71559,473.91307   L 364.48063,473.03055   L 366.24567,473.91307   L 368.01071,473.03055   L 369.77575,473.91307   L 371.54079,473.03055   L 373.30583,473.03055   L 375.07087,473.91307   L 376.83591,473.03055   L 378.60094,473.91307   L 380.36598,473.03055   L 382.13102,473.91307   L 383.89606,473.03055   L 385.6611,473.03055   L 387.42614,473.91307   L 389.19118,473.03055   L 390.95622,473.91307   L 392.72126,473.03055   L 394.4863,473.91307   L 396.25134,473.03055   L 398.01638,473.03055   L 399.78142,473.91307   L 401.54646,473.03055   L 403.3115,473.91307   L 405.07654,473.03055   L 406.84157,473.91307   L 408.60661,473.03055   L 410.37165,473.03055   L 412.13669,473.03055   L 413.90173,473.03055   L 415.66677,473.91307   L 417.43181,473.03055   L 419.19685,473.91307   L 420.96189,473.03055   L 422.72693,473.91307   L 424.49197,473.03055   L 426.25701,473.03055   L 428.02205,473.91307   L 429.78709,473.03055   L 431.55213,473.91307   L 433.31717,473.03055   L 435.0822,473.91307   L 436.84724,473.03055   L 438.61228,473.03055   L 440.37732,473.91307   L 442.14236,473.03055   L 443.9074,473.91307   L 445.67244,473.03055   L 447.43748,473.91307   L 449.20252,473.03055   L 450.96756,473.03055   L 452.7326,473.91307   L 454.49764,473.03055   L 456.26268,473.91307   L 458.02772,473.03055   L 459.79276,473.91307   L 461.5578,473.03055   L 463.32283,473.91307   L 465.08787,473.03055   L 466.85291,473.03055   L 468.61795,473.91307   L 470.38299,473.03055   L 472.14803,473.91307   L 473.91307,473.03055   L 475.67811,473.91307   L 477.44315,473.03055   L 479.20819,473.03055   L 480.97323,473.91307   L 482.73827,473.03055   L 484.50331,473.91307   L 486.26835,473.03055   L 488.03339,473.91307   L 489.79843,473.03055   L 491.56346,473.03055   L 493.3285,473.91307   L 495.09354,473.03055   L 496.85858,473.91307   L 498.62362,473.03055   L 500.38866,473.91307   L 502.1537,473.03055   L 503.91874,473.03055   L 505.68378,473.03055   L 507.44882,473.03055   L 509.21386,473.91307   L 510.9789,473.03055   L 512.74394,473.91307   L 514.50898,473.03055   L 516.27402,473.03055   L 518.03906,473.03055   L 519.80409,473.03055   L 521.56913,473.91307   L 523.33417,473.03055   L 525.09921,473.91307   L 526.86425,473.03055   L 528.62929,473.91307   L 530.39433,473.03055   L 532.15937,473.03055   L 533.92441,473.91307   L 535.68945,473.03055   L 537.45449,473.91307   L 539.21953,473.03055   L 540.98457,473.91307   L 542.74961,473.03055   L 544.51465,473.03055   L 546.27969,473.03055   L 548.04472,473.03055   L 549.80976,473.91307   L 551.5748,473.03055   L 553.33984,473.91307   L 555.10488,473.03055   L 556.86992,473.03055   L 558.63496,473.91307   L 560.4,473.03055   L 562.16504,473.91307   L 563.93008,473.03055   L 565.69512,473.91307   L 567.46016,473.03055   L 569.2252,473.03055   L 570.99024,473.03055   L 572.75528,473.03055   L 574.52031,473.91307   L 576.28535,473.03055   L 578.05039,473.91307   L 579.81543,473.03055   L 581.58047,473.91307   L 583.34551,473.03055   L 585.11055,473.03055   L 586.87559,473.91307   L 588.64063,473.03055   L 590.40567,473.91307   L 592.17071,473.03055   L 593.93575,473.91307   L 595.70079,473.03055   L 597.46583,473.03055   L 599.23087,473.91307   L 600.99591,473.03055   L 602.76094,473.91307   L 604.52598,473.03055   L 606.29102,473.91307   L 608.05606,473.03055   L 609.8211,473.03055   L 611.58614,473.91307   L 613.35118,473.03055   L 615.11622,473.91307   L 616.88126,473.03055   L 618.6463,473.91307   L 620.41134,473.03055   L 622.17638,473.03055   L 623.94142,473.03055   L 625.70646,473.03055   L 627.4715,473.91307   L 629.23654,473.03055   L 631.00157,473.91307   L 632.76661,473.03055   L 634.53165,473.03055   L 636.29669,473.03055   L 638.06173,473.03055   L 639.82677,473.03055   L 641.59181,473.03055   L 643.35685,473.91307   L 645.12189,473.03055   L 646.88693,473.91307   L 648.65197,473.03055   L 650.41701,473.03055   L 652.18205,473.91307   L 653.94709,473.03055   L 655.71213,473.91307   L 657.47717,473.03055   L 659.2422,473.91307   L 661.00724,473.03055   L 662.77228,473.03055   L 664.53732,473.91307   L 666.30236,473.03055   L 668.0674,473.91307   L 669.83244,473.03055   L 671.59748,473.91307   L 673.36252,473.03055   L 675.12756,473.03055   L 676.8926,473.03055   L 678.65764,473.03055   L 680.42268,473.91307   L 682.18772,473.03055   L 683.95276,473.91307   L 685.7178,473.03055   L 687.48283,473.91307   L 689.24787,473.03055   L 691.01291,473.03055   L 692.77795,473.91307   L 694.54299,473.03055   L 696.30803,473.91307   L 698.07307,473.03055   L 699.83811,473.91307   L 701.60315,473.03055   L 703.36819,473.03055   L 705.13323,473.03055   L 706.89827,473.03055   L 708.66331,473.91307   L 710.42835,473.03055   L 712.19339,473.91307   L 713.95843,473.03055   L 715.72346,473.03055   L 717.4885,473.03055   L 719.25354,473.03055   L 721.01858,473.91307   L 722.78362,473.03055   L 724.54866,473.91307   L 726.3137,473.03055   L 728.07874,473.91307   L 729.84378,473.03055   L 731.60882,473.03055   L 733.37386,473.91307   L 735.1389,473.03055   L 736.90394,473.91307   L 738.66898,473.03055   L 740.43402,473.91307   L 742.19906,473.03055   L 743.96409,473.03055   L 745.72913,473.03055   L 747.49417,473.03055   L 749.25921,473.91307   L 751.02425,473.03055   L 752.78929,473.91307   L 754.55433,473.03055   L 756.31937,473.03055   L 758.08441,473.91307   L 759.84945,473.03055   L 761.61449,473.91307   L 763.37953,473.03055   L 765.14457,473.91307   L 766.90961,473.03055   L 768.67465,473.03055   L 770.43969,473.03055   L 772.20472,473.03055   L 773.96976,473.91307   L 775.7348,473.03055   L 777.49984,473.91307   L 779.26488,473.03055   L 781.02992,473.03055   L 782.79496,473.03055   L 784.56,473.03055   L 786.32504,473.91307   L 788.09008,473.03055   L 789.85512,473.91307   L 791.62016,473.03055   L 793.3852,473.91307   L 795.15024,473.03055   L 796.91528,473.03055   L 798.68031,473.91307   L 800.44535,473.03055   L 802.21039,473.91307   L 803.97543,473.03055   L 805.74047,473.91307   L 807.50551,473.03055   L 809.27055,473.03055   L 811.03559,473.03055   L 812.80063,473.03055   L 814.56567,473.91307   L 816.33071,473.03055   L 818.09575,473.91307   L 819.86079,473.03055   L 821.62583,473.03055   L 823.39087,473.03055   L 825.15591,473.03055   L 826.92094,473.91307   L 828.68598,473.03055   L 830.45102,473.91307   L 831.33354,473.03055  "
     id="path197" />
  <circle
     style="fill:none;stroke:#000000;stroke-width:1.183;stroke-linecap:round;stroke-linejoin:bevel;stroke-miterlimit:4;stroke-dasharray:1.183, 3.549;stroke-dashoffset:0"
     id="path1028"
     cx="248.97261"
     cy="471.11209"
     r="10.73345" />
  <text
     xml:space="preserve"
     style="font-size:18.6667px;line-height:1.25;font-family:Bahnschrift;-inkscape-font-specification:Bahnschrift;letter-spacing:0px;word-spacing:0px"
     x="229.23582"
     y="444.28815"
     id="text1032"><tspan
       sodipodi:role="line"
       id="tspan1030"
       x="229.23582"
       y="444.28815"
       style="font-size:18.6667px">$\approx \SI{2,6}{ms}$</tspan></text>
</svg>
