<?xml version="1.0" encoding="UTF-8" standalone="no"?>
<svg
   xmlns:dc="http://purl.org/dc/elements/1.1/"
   xmlns:cc="http://creativecommons.org/ns#"
   xmlns:rdf="http://www.w3.org/1999/02/22-rdf-syntax-ns#"
   xmlns:svg="http://www.w3.org/2000/svg"
   xmlns="http://www.w3.org/2000/svg"
   xmlns:sodipodi="http://sodipodi.sourceforge.net/DTD/sodipodi-0.dtd"
   xmlns:inkscape="http://www.inkscape.org/namespaces/inkscape"
   version="1.0"
   width="224.96001mm"
   height="133.24001mm"
   id="svg157"
   sodipodi:docname="voltage_loss.svg"
   inkscape:version="1.0.1 (3bc2e813f5, 2020-09-07)">
  <metadata
     id="metadata161">
    <rdf:RDF>
      <cc:Work
         rdf:about="">
        <dc:format>image/svg+xml</dc:format>
        <dc:type
           rdf:resource="http://purl.org/dc/dcmitype/StillImage" />
        <dc:title></dc:title>
      </cc:Work>
    </rdf:RDF>
  </metadata>
  <sodipodi:namedview
     pagecolor="#ffffff"
     bordercolor="#666666"
     borderopacity="1"
     objecttolerance="10"
     gridtolerance="10"
     guidetolerance="10"
     inkscape:pageopacity="0"
     inkscape:pageshadow="2"
     inkscape:window-width="2560"
     inkscape:window-height="1361"
     id="namedview159"
     showgrid="false"
     inkscape:zoom="1.8446064"
     inkscape:cx="500.10606"
     inkscape:cy="300.25497"
     inkscape:window-x="-9"
     inkscape:window-y="-9"
     inkscape:window-maximized="1"
     inkscape:current-layer="svg157" />
  <defs
     id="defs3">
    <pattern
       id="EMFhbasepattern"
       patternUnits="userSpaceOnUse"
       width="6"
       height="6"
       x="0"
       y="0" />
  </defs>
  <path
     style="fill:none;stroke:#000000;stroke-width:0.88251966px;stroke-linecap:round;stroke-linejoin:round;stroke-miterlimit:4;stroke-dasharray:none;stroke-opacity:1;"
     d="  M 43.243465,477.44315   L 43.243465,485.38583  "
     id="path5" />
  <g
     aria-label="0ms"
     transform="matrix(1.000000,-0.000000,0.000000,1.000000,57.363780,485.385827)"
     id="text11"
     style="font-style:normal;font-variant:normal;font-weight:700;font-size:15px;line-height:125%;font-family:Arial;text-align:start;letter-spacing:0px;word-spacing:0px;text-anchor:start;fill:#000000;fill-opacity:1;stroke:none">
    <path
       d="m -25.905762,2.7978516 q 1.560059,0 2.438965,1.1132812 1.047363,1.3183594 1.047363,4.3725586 0,3.0468746 -1.054687,4.3798826 -0.871582,1.098633 -2.431641,1.098633 -1.567383,0 -2.526855,-1.201172 -0.959473,-1.208496 -0.959473,-4.2993162 0,-3.0322266 1.054688,-4.3652344 0.871582,-1.0986328 2.43164,-1.0986328 z m 0,1.7065429 q -0.373535,0 -0.666504,0.2416992 -0.292968,0.234375 -0.454101,0.8496094 -0.212403,0.7983399 -0.212403,2.6879883 0,1.8896486 0.19043,2.6000976 0.19043,0.703125 0.476074,0.9375 0.292969,0.234375 0.666504,0.234375 0.373535,0 0.666504,-0.234375 0.292969,-0.241699 0.454102,-0.856934 0.212402,-0.791015 0.212402,-2.6806636 0,-1.8896484 -0.19043,-2.5927734 -0.190429,-0.7104493 -0.483398,-0.9448243 -0.285645,-0.2416992 -0.65918,-0.2416992 z"
       style="font-style:normal;font-variant:normal;font-weight:700;font-size:15px;font-family:Arial;fill:#000000"
       id="path1050" />
    <path
       d="m -20.756836,5.8007812 h 1.896973 V 6.862793 Q -17.841797,5.625 -16.435547,5.625 q 0.74707,0 1.296387,0.3076172 0.549316,0.3076172 0.900879,0.9301758 0.512695,-0.6225586 1.105957,-0.9301758 Q -12.539063,5.625 -11.865234,5.625 q 0.856933,0 1.450195,0.3515625 0.5932617,0.3442383 0.8862304,1.0180664 0.2124023,0.4980469 0.2124023,1.6113281 v 4.973145 H -11.374512 V 9.1333008 q 0,-1.1572266 -0.212402,-1.4941406 -0.285645,-0.4394532 -0.878906,-0.4394532 -0.432129,0 -0.812989,0.2636719 -0.380859,0.2636719 -0.549316,0.7763672 -0.168457,0.5053711 -0.168457,1.6040039 v 3.735352 h -2.058105 V 9.3164063 q 0,-1.135254 -0.109864,-1.4648438 -0.109863,-0.3295898 -0.344238,-0.4907227 -0.227051,-0.1611328 -0.622559,-0.1611328 -0.476074,0 -0.856933,0.2563477 -0.38086,0.2563476 -0.549317,0.7397461 -0.161132,0.4833984 -0.161132,1.6040039 v 3.7792973 h -2.058106 z"
       style="font-style:normal;font-variant:normal;font-weight:700;font-size:15px;font-family:Arial;fill:#000000"
       id="path1052" />
    <path
       d="m -7.9907227,11.359863 2.0654297,-0.314941 q 0.131836,0.600586 0.534668,0.915527 0.402832,0.307617 1.1279297,0.307617 0.7983398,0 1.2011719,-0.292968 0.2709961,-0.205078 0.2709961,-0.549317 0,-0.234375 -0.1464844,-0.388183 -0.1538086,-0.146485 -0.6884766,-0.270996 -2.4902344,-0.549317 -3.1567383,-1.0034184 -0.9228515,-0.6298828 -0.9228515,-1.7504883 0,-1.0107422 0.7983398,-1.6992187 Q -6.1083984,5.625 -4.4311523,5.625 q 1.5966796,0 2.3730468,0.5200195 0.7763672,0.5200196 1.06933597,1.538086 L -2.9296875,8.0419922 Q -3.0541992,7.5878906 -3.4057617,7.3461914 -3.75,7.1044922 -4.3945312,7.1044922 q -0.8129883,0 -1.1645508,0.2270508 -0.234375,0.1611328 -0.234375,0.4174804 0,0.2197266 0.2050781,0.3735352 0.2783203,0.2050781 1.9189453,0.5786133 1.6479492,0.3735351 2.2998047,0.9155273 0.64453124,0.5493168 0.64453124,1.5307618 0,1.069336 -0.89355464,1.838379 -0.8935547,0.769043 -2.644043,0.769043 -1.5893555,0 -2.5195313,-0.644531 -0.9228515,-0.644532 -1.2084961,-1.750489 z"
       style="font-style:normal;font-variant:normal;font-weight:700;font-size:15px;font-family:Arial;fill:#000000"
       id="path1054" />
  </g>
  <path
     style="fill:none;stroke:#000000;stroke-width:0.88251966px;stroke-linecap:round;stroke-linejoin:round;stroke-miterlimit:4;stroke-dasharray:none;stroke-opacity:1;"
     d="  M 121.78772,477.44315   L 121.78772,485.38583  "
     id="path13" />
  <g
     aria-label="5ms"
     transform="matrix(1.000000,-0.000000,0.000000,1.000000,135.908031,485.385827)"
     id="text19"
     style="font-style:normal;font-variant:normal;font-weight:700;font-size:15px;line-height:125%;font-family:Arial;text-align:start;letter-spacing:0px;word-spacing:0px;text-anchor:start;fill:#000000;fill-opacity:1;stroke:none">
    <path
       d="m -29.355469,10.817871 2.050782,-0.212402 q 0.08789,0.695801 0.520019,1.105957 0.432129,0.402832 0.996094,0.402832 0.644531,0 1.091308,-0.52002 0.446778,-0.527343 0.446778,-1.582031 0,-0.9887695 -0.446778,-1.4794922 -0.439453,-0.4980468 -1.149902,-0.4980468 -0.88623,0 -1.589355,0.7836914 l -1.669922,-0.2416992 1.054687,-5.5883789 h 5.441895 v 1.9262695 h -3.881836 l -0.322266,1.8237304 q 0.688477,-0.3442382 1.40625,-0.3442382 1.369629,0 2.321778,0.9960937 0.952148,0.9960938 0.952148,2.5854492 0,1.3256841 -0.769043,2.3657231 -1.047363,1.420898 -2.907715,1.420898 -1.486816,0 -2.424316,-0.79834 -0.9375,-0.79834 -1.120606,-2.145996 z"
       style="font-style:normal;font-variant:normal;font-weight:700;font-size:15px;font-family:Arial;fill:#000000"
       id="path1057" />
    <path
       d="m -20.756836,5.8007812 h 1.896973 V 6.862793 Q -17.841797,5.625 -16.435547,5.625 q 0.74707,0 1.296387,0.3076172 0.549316,0.3076172 0.900879,0.9301758 0.512695,-0.6225586 1.105957,-0.9301758 Q -12.539063,5.625 -11.865234,5.625 q 0.856933,0 1.450195,0.3515625 0.5932617,0.3442383 0.8862304,1.0180664 0.2124023,0.4980469 0.2124023,1.6113281 v 4.973145 H -11.374512 V 9.1333008 q 0,-1.1572266 -0.212402,-1.4941406 -0.285645,-0.4394532 -0.878906,-0.4394532 -0.432129,0 -0.812989,0.2636719 -0.380859,0.2636719 -0.549316,0.7763672 -0.168457,0.5053711 -0.168457,1.6040039 v 3.735352 h -2.058105 V 9.3164063 q 0,-1.135254 -0.109864,-1.4648438 -0.109863,-0.3295898 -0.344238,-0.4907227 -0.227051,-0.1611328 -0.622559,-0.1611328 -0.476074,0 -0.856933,0.2563477 -0.38086,0.2563476 -0.549317,0.7397461 -0.161132,0.4833984 -0.161132,1.6040039 v 3.7792973 h -2.058106 z"
       style="font-style:normal;font-variant:normal;font-weight:700;font-size:15px;font-family:Arial;fill:#000000"
       id="path1059" />
    <path
       d="m -7.9907227,11.359863 2.0654297,-0.314941 q 0.131836,0.600586 0.534668,0.915527 0.402832,0.307617 1.1279297,0.307617 0.7983398,0 1.2011719,-0.292968 0.2709961,-0.205078 0.2709961,-0.549317 0,-0.234375 -0.1464844,-0.388183 -0.1538086,-0.146485 -0.6884766,-0.270996 -2.4902344,-0.549317 -3.1567383,-1.0034184 -0.9228515,-0.6298828 -0.9228515,-1.7504883 0,-1.0107422 0.7983398,-1.6992187 Q -6.1083984,5.625 -4.4311523,5.625 q 1.5966796,0 2.3730468,0.5200195 0.7763672,0.5200196 1.06933597,1.538086 L -2.9296875,8.0419922 Q -3.0541992,7.5878906 -3.4057617,7.3461914 -3.75,7.1044922 -4.3945312,7.1044922 q -0.8129883,0 -1.1645508,0.2270508 -0.234375,0.1611328 -0.234375,0.4174804 0,0.2197266 0.2050781,0.3735352 0.2783203,0.2050781 1.9189453,0.5786133 1.6479492,0.3735351 2.2998047,0.9155273 0.64453124,0.5493168 0.64453124,1.5307618 0,1.069336 -0.89355464,1.838379 -0.8935547,0.769043 -2.644043,0.769043 -1.5893555,0 -2.5195313,-0.644531 -0.9228515,-0.644532 -1.2084961,-1.750489 z"
       style="font-style:normal;font-variant:normal;font-weight:700;font-size:15px;font-family:Arial;fill:#000000"
       id="path1061" />
  </g>
  <path
     style="fill:none;stroke:#000000;stroke-width:0.88251966px;stroke-linecap:round;stroke-linejoin:round;stroke-miterlimit:4;stroke-dasharray:none;stroke-opacity:1;"
     d="  M 201.21449,477.44315   L 201.21449,485.38583  "
     id="path21" />
  <g
     aria-label="10ms"
     transform="matrix(1.000000,-0.000000,0.000000,1.000000,218.864882,485.385827)"
     id="text27"
     style="font-style:normal;font-variant:normal;font-weight:700;font-size:15px;line-height:125%;font-family:Arial;text-align:start;letter-spacing:0px;word-spacing:0px;text-anchor:start;fill:#000000;fill-opacity:1;stroke:none">
    <path
       d="m -32.460937,13.579102 h -2.058106 V 5.8227539 q -1.12793,1.0546875 -2.658691,1.5600586 V 5.5151367 q 0.805664,-0.2636719 1.750488,-0.9960937 0.944824,-0.7397461 1.296387,-1.7211914 h 1.669922 z"
       style="font-style:normal;font-variant:normal;font-weight:700;font-size:15px;font-family:Arial;fill:#000000"
       id="path1064" />
    <path
       d="m -25.905762,2.7978516 q 1.560059,0 2.438965,1.1132812 1.047363,1.3183594 1.047363,4.3725586 0,3.0468746 -1.054687,4.3798826 -0.871582,1.098633 -2.431641,1.098633 -1.567383,0 -2.526855,-1.201172 -0.959473,-1.208496 -0.959473,-4.2993162 0,-3.0322266 1.054688,-4.3652344 0.871582,-1.0986328 2.43164,-1.0986328 z m 0,1.7065429 q -0.373535,0 -0.666504,0.2416992 -0.292968,0.234375 -0.454101,0.8496094 -0.212403,0.7983399 -0.212403,2.6879883 0,1.8896486 0.19043,2.6000976 0.19043,0.703125 0.476074,0.9375 0.292969,0.234375 0.666504,0.234375 0.373535,0 0.666504,-0.234375 0.292969,-0.241699 0.454102,-0.856934 0.212402,-0.791015 0.212402,-2.6806636 0,-1.8896484 -0.19043,-2.5927734 -0.190429,-0.7104493 -0.483398,-0.9448243 -0.285645,-0.2416992 -0.65918,-0.2416992 z"
       style="font-style:normal;font-variant:normal;font-weight:700;font-size:15px;font-family:Arial;fill:#000000"
       id="path1066" />
    <path
       d="m -20.756836,5.8007812 h 1.896973 V 6.862793 Q -17.841797,5.625 -16.435547,5.625 q 0.74707,0 1.296387,0.3076172 0.549316,0.3076172 0.900879,0.9301758 0.512695,-0.6225586 1.105957,-0.9301758 Q -12.539063,5.625 -11.865234,5.625 q 0.856933,0 1.450195,0.3515625 0.5932617,0.3442383 0.8862304,1.0180664 0.2124023,0.4980469 0.2124023,1.6113281 v 4.973145 H -11.374512 V 9.1333008 q 0,-1.1572266 -0.212402,-1.4941406 -0.285645,-0.4394532 -0.878906,-0.4394532 -0.432129,0 -0.812989,0.2636719 -0.380859,0.2636719 -0.549316,0.7763672 -0.168457,0.5053711 -0.168457,1.6040039 v 3.735352 h -2.058105 V 9.3164063 q 0,-1.135254 -0.109864,-1.4648438 -0.109863,-0.3295898 -0.344238,-0.4907227 -0.227051,-0.1611328 -0.622559,-0.1611328 -0.476074,0 -0.856933,0.2563477 -0.38086,0.2563476 -0.549317,0.7397461 -0.161132,0.4833984 -0.161132,1.6040039 v 3.7792973 h -2.058106 z"
       style="font-style:normal;font-variant:normal;font-weight:700;font-size:15px;font-family:Arial;fill:#000000"
       id="path1068" />
    <path
       d="m -7.9907227,11.359863 2.0654297,-0.314941 q 0.131836,0.600586 0.534668,0.915527 0.402832,0.307617 1.1279297,0.307617 0.7983398,0 1.2011719,-0.292968 0.2709961,-0.205078 0.2709961,-0.549317 0,-0.234375 -0.1464844,-0.388183 -0.1538086,-0.146485 -0.6884766,-0.270996 -2.4902344,-0.549317 -3.1567383,-1.0034184 -0.9228515,-0.6298828 -0.9228515,-1.7504883 0,-1.0107422 0.7983398,-1.6992187 Q -6.1083984,5.625 -4.4311523,5.625 q 1.5966796,0 2.3730468,0.5200195 0.7763672,0.5200196 1.06933597,1.538086 L -2.9296875,8.0419922 Q -3.0541992,7.5878906 -3.4057617,7.3461914 -3.75,7.1044922 -4.3945312,7.1044922 q -0.8129883,0 -1.1645508,0.2270508 -0.234375,0.1611328 -0.234375,0.4174804 0,0.2197266 0.2050781,0.3735352 0.2783203,0.2050781 1.9189453,0.5786133 1.6479492,0.3735351 2.2998047,0.9155273 0.64453124,0.5493168 0.64453124,1.5307618 0,1.069336 -0.89355464,1.838379 -0.8935547,0.769043 -2.644043,0.769043 -1.5893555,0 -2.5195313,-0.644531 -0.9228515,-0.644532 -1.2084961,-1.750489 z"
       style="font-style:normal;font-variant:normal;font-weight:700;font-size:15px;font-family:Arial;fill:#000000"
       id="path1070" />
  </g>
  <path
     style="fill:none;stroke:#000000;stroke-width:0.88251966px;stroke-linecap:round;stroke-linejoin:round;stroke-miterlimit:4;stroke-dasharray:none;stroke-opacity:1;"
     d="  M 279.75874,477.44315   L 279.75874,485.38583  "
     id="path29" />
  <g
     aria-label="15ms"
     transform="matrix(1.000000,-0.000000,0.000000,1.000000,297.409134,485.385827)"
     id="text35"
     style="font-style:normal;font-variant:normal;font-weight:700;font-size:15px;line-height:125%;font-family:Arial;text-align:start;letter-spacing:0px;word-spacing:0px;text-anchor:start;fill:#000000;fill-opacity:1;stroke:none">
    <path
       d="m -32.460937,13.579102 h -2.058106 V 5.8227539 q -1.12793,1.0546875 -2.658691,1.5600586 V 5.5151367 q 0.805664,-0.2636719 1.750488,-0.9960937 0.944824,-0.7397461 1.296387,-1.7211914 h 1.669922 z"
       style="font-style:normal;font-variant:normal;font-weight:700;font-size:15px;font-family:Arial;fill:#000000"
       id="path1073" />
    <path
       d="m -29.355469,10.817871 2.050782,-0.212402 q 0.08789,0.695801 0.520019,1.105957 0.432129,0.402832 0.996094,0.402832 0.644531,0 1.091308,-0.52002 0.446778,-0.527343 0.446778,-1.582031 0,-0.9887695 -0.446778,-1.4794922 -0.439453,-0.4980468 -1.149902,-0.4980468 -0.88623,0 -1.589355,0.7836914 l -1.669922,-0.2416992 1.054687,-5.5883789 h 5.441895 v 1.9262695 h -3.881836 l -0.322266,1.8237304 q 0.688477,-0.3442382 1.40625,-0.3442382 1.369629,0 2.321778,0.9960937 0.952148,0.9960938 0.952148,2.5854492 0,1.3256841 -0.769043,2.3657231 -1.047363,1.420898 -2.907715,1.420898 -1.486816,0 -2.424316,-0.79834 -0.9375,-0.79834 -1.120606,-2.145996 z"
       style="font-style:normal;font-variant:normal;font-weight:700;font-size:15px;font-family:Arial;fill:#000000"
       id="path1075" />
    <path
       d="m -20.756836,5.8007812 h 1.896973 V 6.862793 Q -17.841797,5.625 -16.435547,5.625 q 0.74707,0 1.296387,0.3076172 0.549316,0.3076172 0.900879,0.9301758 0.512695,-0.6225586 1.105957,-0.9301758 Q -12.539063,5.625 -11.865234,5.625 q 0.856933,0 1.450195,0.3515625 0.5932617,0.3442383 0.8862304,1.0180664 0.2124023,0.4980469 0.2124023,1.6113281 v 4.973145 H -11.374512 V 9.1333008 q 0,-1.1572266 -0.212402,-1.4941406 -0.285645,-0.4394532 -0.878906,-0.4394532 -0.432129,0 -0.812989,0.2636719 -0.380859,0.2636719 -0.549316,0.7763672 -0.168457,0.5053711 -0.168457,1.6040039 v 3.735352 h -2.058105 V 9.3164063 q 0,-1.135254 -0.109864,-1.4648438 -0.109863,-0.3295898 -0.344238,-0.4907227 -0.227051,-0.1611328 -0.622559,-0.1611328 -0.476074,0 -0.856933,0.2563477 -0.38086,0.2563476 -0.549317,0.7397461 -0.161132,0.4833984 -0.161132,1.6040039 v 3.7792973 h -2.058106 z"
       style="font-style:normal;font-variant:normal;font-weight:700;font-size:15px;font-family:Arial;fill:#000000"
       id="path1077" />
    <path
       d="m -7.9907227,11.359863 2.0654297,-0.314941 q 0.131836,0.600586 0.534668,0.915527 0.402832,0.307617 1.1279297,0.307617 0.7983398,0 1.2011719,-0.292968 0.2709961,-0.205078 0.2709961,-0.549317 0,-0.234375 -0.1464844,-0.388183 -0.1538086,-0.146485 -0.6884766,-0.270996 -2.4902344,-0.549317 -3.1567383,-1.0034184 -0.9228515,-0.6298828 -0.9228515,-1.7504883 0,-1.0107422 0.7983398,-1.6992187 Q -6.1083984,5.625 -4.4311523,5.625 q 1.5966796,0 2.3730468,0.5200195 0.7763672,0.5200196 1.06933597,1.538086 L -2.9296875,8.0419922 Q -3.0541992,7.5878906 -3.4057617,7.3461914 -3.75,7.1044922 -4.3945312,7.1044922 q -0.8129883,0 -1.1645508,0.2270508 -0.234375,0.1611328 -0.234375,0.4174804 0,0.2197266 0.2050781,0.3735352 0.2783203,0.2050781 1.9189453,0.5786133 1.6479492,0.3735351 2.2998047,0.9155273 0.64453124,0.5493168 0.64453124,1.5307618 0,1.069336 -0.89355464,1.838379 -0.8935547,0.769043 -2.644043,0.769043 -1.5893555,0 -2.5195313,-0.644531 -0.9228515,-0.644532 -1.2084961,-1.750489 z"
       style="font-style:normal;font-variant:normal;font-weight:700;font-size:15px;font-family:Arial;fill:#000000"
       id="path1079" />
  </g>
  <path
     style="fill:none;stroke:#000000;stroke-width:0.88251966px;stroke-linecap:round;stroke-linejoin:round;stroke-miterlimit:4;stroke-dasharray:none;stroke-opacity:1;"
     d="  M 358.30299,477.44315   L 358.30299,485.38583  "
     id="path37" />
  <g
     aria-label="20ms"
     transform="matrix(1.000000,-0.000000,0.000000,1.000000,375.953386,485.385827)"
     id="text43"
     style="font-style:normal;font-variant:normal;font-weight:700;font-size:15px;line-height:125%;font-family:Arial;text-align:start;letter-spacing:0px;word-spacing:0px;text-anchor:start;fill:#000000;fill-opacity:1;stroke:none">
    <path
       d="m -30.776367,11.66748 v 1.911622 h -7.214356 q 0.117188,-1.083985 0.703125,-2.050782 0.585938,-0.974121 2.314453,-2.5781247 1.391602,-1.2963867 1.706543,-1.7578125 0.424805,-0.637207 0.424805,-1.2597656 0,-0.6884766 -0.373535,-1.0546875 -0.366211,-0.3735352 -1.018066,-0.3735352 -0.644532,0 -1.025391,0.3881836 -0.380859,0.3881836 -0.439453,1.2890625 l -2.050781,-0.2050781 q 0.183105,-1.6992188 1.149902,-2.4389648 0.966797,-0.7397461 2.416992,-0.7397461 1.589356,0 2.497559,0.8569336 0.908203,0.8569335 0.908203,2.1313476 0,0.7250977 -0.263672,1.3842774 -0.256348,0.6518554 -0.820313,1.3696289 -0.373535,0.4760742 -1.347656,1.3696289 -0.974121,0.893555 -1.237793,1.186523 -0.256347,0.292969 -0.41748,0.571289 z"
       style="font-style:normal;font-variant:normal;font-weight:700;font-size:15px;font-family:Arial;fill:#000000"
       id="path1082" />
    <path
       d="m -25.905762,2.7978516 q 1.560059,0 2.438965,1.1132812 1.047363,1.3183594 1.047363,4.3725586 0,3.0468746 -1.054687,4.3798826 -0.871582,1.098633 -2.431641,1.098633 -1.567383,0 -2.526855,-1.201172 -0.959473,-1.208496 -0.959473,-4.2993162 0,-3.0322266 1.054688,-4.3652344 0.871582,-1.0986328 2.43164,-1.0986328 z m 0,1.7065429 q -0.373535,0 -0.666504,0.2416992 -0.292968,0.234375 -0.454101,0.8496094 -0.212403,0.7983399 -0.212403,2.6879883 0,1.8896486 0.19043,2.6000976 0.19043,0.703125 0.476074,0.9375 0.292969,0.234375 0.666504,0.234375 0.373535,0 0.666504,-0.234375 0.292969,-0.241699 0.454102,-0.856934 0.212402,-0.791015 0.212402,-2.6806636 0,-1.8896484 -0.19043,-2.5927734 -0.190429,-0.7104493 -0.483398,-0.9448243 -0.285645,-0.2416992 -0.65918,-0.2416992 z"
       style="font-style:normal;font-variant:normal;font-weight:700;font-size:15px;font-family:Arial;fill:#000000"
       id="path1084" />
    <path
       d="m -20.756836,5.8007812 h 1.896973 V 6.862793 Q -17.841797,5.625 -16.435547,5.625 q 0.74707,0 1.296387,0.3076172 0.549316,0.3076172 0.900879,0.9301758 0.512695,-0.6225586 1.105957,-0.9301758 Q -12.539063,5.625 -11.865234,5.625 q 0.856933,0 1.450195,0.3515625 0.5932617,0.3442383 0.8862304,1.0180664 0.2124023,0.4980469 0.2124023,1.6113281 v 4.973145 H -11.374512 V 9.1333008 q 0,-1.1572266 -0.212402,-1.4941406 -0.285645,-0.4394532 -0.878906,-0.4394532 -0.432129,0 -0.812989,0.2636719 -0.380859,0.2636719 -0.549316,0.7763672 -0.168457,0.5053711 -0.168457,1.6040039 v 3.735352 h -2.058105 V 9.3164063 q 0,-1.135254 -0.109864,-1.4648438 -0.109863,-0.3295898 -0.344238,-0.4907227 -0.227051,-0.1611328 -0.622559,-0.1611328 -0.476074,0 -0.856933,0.2563477 -0.38086,0.2563476 -0.549317,0.7397461 -0.161132,0.4833984 -0.161132,1.6040039 v 3.7792973 h -2.058106 z"
       style="font-style:normal;font-variant:normal;font-weight:700;font-size:15px;font-family:Arial;fill:#000000"
       id="path1086" />
    <path
       d="m -7.9907227,11.359863 2.0654297,-0.314941 q 0.131836,0.600586 0.534668,0.915527 0.402832,0.307617 1.1279297,0.307617 0.7983398,0 1.2011719,-0.292968 0.2709961,-0.205078 0.2709961,-0.549317 0,-0.234375 -0.1464844,-0.388183 -0.1538086,-0.146485 -0.6884766,-0.270996 -2.4902344,-0.549317 -3.1567383,-1.0034184 -0.9228515,-0.6298828 -0.9228515,-1.7504883 0,-1.0107422 0.7983398,-1.6992187 Q -6.1083984,5.625 -4.4311523,5.625 q 1.5966796,0 2.3730468,0.5200195 0.7763672,0.5200196 1.06933597,1.538086 L -2.9296875,8.0419922 Q -3.0541992,7.5878906 -3.4057617,7.3461914 -3.75,7.1044922 -4.3945312,7.1044922 q -0.8129883,0 -1.1645508,0.2270508 -0.234375,0.1611328 -0.234375,0.4174804 0,0.2197266 0.2050781,0.3735352 0.2783203,0.2050781 1.9189453,0.5786133 1.6479492,0.3735351 2.2998047,0.9155273 0.64453124,0.5493168 0.64453124,1.5307618 0,1.069336 -0.89355464,1.838379 -0.8935547,0.769043 -2.644043,0.769043 -1.5893555,0 -2.5195313,-0.644531 -0.9228515,-0.644532 -1.2084961,-1.750489 z"
       style="font-style:normal;font-variant:normal;font-weight:700;font-size:15px;font-family:Arial;fill:#000000"
       id="path1088" />
  </g>
  <path
     style="fill:none;stroke:#000000;stroke-width:0.88251966px;stroke-linecap:round;stroke-linejoin:round;stroke-miterlimit:4;stroke-dasharray:none;stroke-opacity:1;"
     d="  M 437.72976,477.44315   L 437.72976,485.38583  "
     id="path45" />
  <g
     aria-label="25ms"
     transform="matrix(1.000000,-0.000000,0.000000,1.000000,455.380157,485.385827)"
     id="text51"
     style="font-style:normal;font-variant:normal;font-weight:700;font-size:15px;line-height:125%;font-family:Arial;text-align:start;letter-spacing:0px;word-spacing:0px;text-anchor:start;fill:#000000;fill-opacity:1;stroke:none">
    <path
       d="m -30.776367,11.66748 v 1.911622 h -7.214356 q 0.117188,-1.083985 0.703125,-2.050782 0.585938,-0.974121 2.314453,-2.5781247 1.391602,-1.2963867 1.706543,-1.7578125 0.424805,-0.637207 0.424805,-1.2597656 0,-0.6884766 -0.373535,-1.0546875 -0.366211,-0.3735352 -1.018066,-0.3735352 -0.644532,0 -1.025391,0.3881836 -0.380859,0.3881836 -0.439453,1.2890625 l -2.050781,-0.2050781 q 0.183105,-1.6992188 1.149902,-2.4389648 0.966797,-0.7397461 2.416992,-0.7397461 1.589356,0 2.497559,0.8569336 0.908203,0.8569335 0.908203,2.1313476 0,0.7250977 -0.263672,1.3842774 -0.256348,0.6518554 -0.820313,1.3696289 -0.373535,0.4760742 -1.347656,1.3696289 -0.974121,0.893555 -1.237793,1.186523 -0.256347,0.292969 -0.41748,0.571289 z"
       style="font-style:normal;font-variant:normal;font-weight:700;font-size:15px;font-family:Arial;fill:#000000"
       id="path1091" />
    <path
       d="m -29.355469,10.817871 2.050782,-0.212402 q 0.08789,0.695801 0.520019,1.105957 0.432129,0.402832 0.996094,0.402832 0.644531,0 1.091308,-0.52002 0.446778,-0.527343 0.446778,-1.582031 0,-0.9887695 -0.446778,-1.4794922 -0.439453,-0.4980468 -1.149902,-0.4980468 -0.88623,0 -1.589355,0.7836914 l -1.669922,-0.2416992 1.054687,-5.5883789 h 5.441895 v 1.9262695 h -3.881836 l -0.322266,1.8237304 q 0.688477,-0.3442382 1.40625,-0.3442382 1.369629,0 2.321778,0.9960937 0.952148,0.9960938 0.952148,2.5854492 0,1.3256841 -0.769043,2.3657231 -1.047363,1.420898 -2.907715,1.420898 -1.486816,0 -2.424316,-0.79834 -0.9375,-0.79834 -1.120606,-2.145996 z"
       style="font-style:normal;font-variant:normal;font-weight:700;font-size:15px;font-family:Arial;fill:#000000"
       id="path1093" />
    <path
       d="m -20.756836,5.8007812 h 1.896973 V 6.862793 Q -17.841797,5.625 -16.435547,5.625 q 0.74707,0 1.296387,0.3076172 0.549316,0.3076172 0.900879,0.9301758 0.512695,-0.6225586 1.105957,-0.9301758 Q -12.539063,5.625 -11.865234,5.625 q 0.856933,0 1.450195,0.3515625 0.5932617,0.3442383 0.8862304,1.0180664 0.2124023,0.4980469 0.2124023,1.6113281 v 4.973145 H -11.374512 V 9.1333008 q 0,-1.1572266 -0.212402,-1.4941406 -0.285645,-0.4394532 -0.878906,-0.4394532 -0.432129,0 -0.812989,0.2636719 -0.380859,0.2636719 -0.549316,0.7763672 -0.168457,0.5053711 -0.168457,1.6040039 v 3.735352 h -2.058105 V 9.3164063 q 0,-1.135254 -0.109864,-1.4648438 -0.109863,-0.3295898 -0.344238,-0.4907227 -0.227051,-0.1611328 -0.622559,-0.1611328 -0.476074,0 -0.856933,0.2563477 -0.38086,0.2563476 -0.549317,0.7397461 -0.161132,0.4833984 -0.161132,1.6040039 v 3.7792973 h -2.058106 z"
       style="font-style:normal;font-variant:normal;font-weight:700;font-size:15px;font-family:Arial;fill:#000000"
       id="path1095" />
    <path
       d="m -7.9907227,11.359863 2.0654297,-0.314941 q 0.131836,0.600586 0.534668,0.915527 0.402832,0.307617 1.1279297,0.307617 0.7983398,0 1.2011719,-0.292968 0.2709961,-0.205078 0.2709961,-0.549317 0,-0.234375 -0.1464844,-0.388183 -0.1538086,-0.146485 -0.6884766,-0.270996 -2.4902344,-0.549317 -3.1567383,-1.0034184 -0.9228515,-0.6298828 -0.9228515,-1.7504883 0,-1.0107422 0.7983398,-1.6992187 Q -6.1083984,5.625 -4.4311523,5.625 q 1.5966796,0 2.3730468,0.5200195 0.7763672,0.5200196 1.06933597,1.538086 L -2.9296875,8.0419922 Q -3.0541992,7.5878906 -3.4057617,7.3461914 -3.75,7.1044922 -4.3945312,7.1044922 q -0.8129883,0 -1.1645508,0.2270508 -0.234375,0.1611328 -0.234375,0.4174804 0,0.2197266 0.2050781,0.3735352 0.2783203,0.2050781 1.9189453,0.5786133 1.6479492,0.3735351 2.2998047,0.9155273 0.64453124,0.5493168 0.64453124,1.5307618 0,1.069336 -0.89355464,1.838379 -0.8935547,0.769043 -2.644043,0.769043 -1.5893555,0 -2.5195313,-0.644531 -0.9228515,-0.644532 -1.2084961,-1.750489 z"
       style="font-style:normal;font-variant:normal;font-weight:700;font-size:15px;font-family:Arial;fill:#000000"
       id="path1097" />
  </g>
  <path
     style="fill:none;stroke:#000000;stroke-width:0.88251966px;stroke-linecap:round;stroke-linejoin:round;stroke-miterlimit:4;stroke-dasharray:none;stroke-opacity:1;"
     d="  M 516.27402,477.44315   L 516.27402,485.38583  "
     id="path53" />
  <g
     aria-label="30ms"
     transform="matrix(1.000000,-0.000000,0.000000,1.000000,533.924409,485.385827)"
     id="text59"
     style="font-style:normal;font-variant:normal;font-weight:700;font-size:15px;line-height:125%;font-family:Arial;text-align:start;letter-spacing:0px;word-spacing:0px;text-anchor:start;fill:#000000;fill-opacity:1;stroke:none">
    <path
       d="m -37.800293,10.72998 1.992188,-0.241699 q 0.09521,0.761719 0.512695,1.164551 0.41748,0.402832 1.010742,0.402832 0.637207,0 1.069336,-0.483398 0.439453,-0.483399 0.439453,-1.303711 0,-0.7763675 -0.41748,-1.2304691 -0.417481,-0.4541015 -1.018067,-0.4541015 -0.395508,0 -0.944824,0.1538086 l 0.227051,-1.6772461 q 0.834961,0.021973 1.274414,-0.3588867 0.439453,-0.3881836 0.439453,-1.0253907 0,-0.5419922 -0.322266,-0.8642578 -0.322265,-0.3222656 -0.856933,-0.3222656 -0.527344,0 -0.900879,0.3662109 -0.373535,0.366211 -0.454102,1.069336 l -1.896972,-0.3222657 q 0.197754,-0.9741211 0.593261,-1.5527343 0.402832,-0.5859375 1.113282,-0.9155274 0.717773,-0.336914 1.604004,-0.336914 1.516113,0 2.43164,0.9667968 0.754395,0.7910157 0.754395,1.7871094 0,1.4135742 -1.54541,2.2558594 0.922851,0.1977539 1.472167,0.8862305 0.556641,0.6884765 0.556641,1.6625973 0,1.413575 -1.032715,2.409668 -1.032715,0.996094 -2.570801,0.996094 -1.457519,0 -2.416992,-0.834961 -0.959472,-0.842285 -1.113281,-2.197266 z"
       style="font-style:normal;font-variant:normal;font-weight:700;font-size:15px;font-family:Arial;fill:#000000"
       id="path1100" />
    <path
       d="m -25.905762,2.7978516 q 1.560059,0 2.438965,1.1132812 1.047363,1.3183594 1.047363,4.3725586 0,3.0468746 -1.054687,4.3798826 -0.871582,1.098633 -2.431641,1.098633 -1.567383,0 -2.526855,-1.201172 -0.959473,-1.208496 -0.959473,-4.2993162 0,-3.0322266 1.054688,-4.3652344 0.871582,-1.0986328 2.43164,-1.0986328 z m 0,1.7065429 q -0.373535,0 -0.666504,0.2416992 -0.292968,0.234375 -0.454101,0.8496094 -0.212403,0.7983399 -0.212403,2.6879883 0,1.8896486 0.19043,2.6000976 0.19043,0.703125 0.476074,0.9375 0.292969,0.234375 0.666504,0.234375 0.373535,0 0.666504,-0.234375 0.292969,-0.241699 0.454102,-0.856934 0.212402,-0.791015 0.212402,-2.6806636 0,-1.8896484 -0.19043,-2.5927734 -0.190429,-0.7104493 -0.483398,-0.9448243 -0.285645,-0.2416992 -0.65918,-0.2416992 z"
       style="font-style:normal;font-variant:normal;font-weight:700;font-size:15px;font-family:Arial;fill:#000000"
       id="path1102" />
    <path
       d="m -20.756836,5.8007812 h 1.896973 V 6.862793 Q -17.841797,5.625 -16.435547,5.625 q 0.74707,0 1.296387,0.3076172 0.549316,0.3076172 0.900879,0.9301758 0.512695,-0.6225586 1.105957,-0.9301758 Q -12.539063,5.625 -11.865234,5.625 q 0.856933,0 1.450195,0.3515625 0.5932617,0.3442383 0.8862304,1.0180664 0.2124023,0.4980469 0.2124023,1.6113281 v 4.973145 H -11.374512 V 9.1333008 q 0,-1.1572266 -0.212402,-1.4941406 -0.285645,-0.4394532 -0.878906,-0.4394532 -0.432129,0 -0.812989,0.2636719 -0.380859,0.2636719 -0.549316,0.7763672 -0.168457,0.5053711 -0.168457,1.6040039 v 3.735352 h -2.058105 V 9.3164063 q 0,-1.135254 -0.109864,-1.4648438 -0.109863,-0.3295898 -0.344238,-0.4907227 -0.227051,-0.1611328 -0.622559,-0.1611328 -0.476074,0 -0.856933,0.2563477 -0.38086,0.2563476 -0.549317,0.7397461 -0.161132,0.4833984 -0.161132,1.6040039 v 3.7792973 h -2.058106 z"
       style="font-style:normal;font-variant:normal;font-weight:700;font-size:15px;font-family:Arial;fill:#000000"
       id="path1104" />
    <path
       d="m -7.9907227,11.359863 2.0654297,-0.314941 q 0.131836,0.600586 0.534668,0.915527 0.402832,0.307617 1.1279297,0.307617 0.7983398,0 1.2011719,-0.292968 0.2709961,-0.205078 0.2709961,-0.549317 0,-0.234375 -0.1464844,-0.388183 -0.1538086,-0.146485 -0.6884766,-0.270996 -2.4902344,-0.549317 -3.1567383,-1.0034184 -0.9228515,-0.6298828 -0.9228515,-1.7504883 0,-1.0107422 0.7983398,-1.6992187 Q -6.1083984,5.625 -4.4311523,5.625 q 1.5966796,0 2.3730468,0.5200195 0.7763672,0.5200196 1.06933597,1.538086 L -2.9296875,8.0419922 Q -3.0541992,7.5878906 -3.4057617,7.3461914 -3.75,7.1044922 -4.3945312,7.1044922 q -0.8129883,0 -1.1645508,0.2270508 -0.234375,0.1611328 -0.234375,0.4174804 0,0.2197266 0.2050781,0.3735352 0.2783203,0.2050781 1.9189453,0.5786133 1.6479492,0.3735351 2.2998047,0.9155273 0.64453124,0.5493168 0.64453124,1.5307618 0,1.069336 -0.89355464,1.838379 -0.8935547,0.769043 -2.644043,0.769043 -1.5893555,0 -2.5195313,-0.644531 -0.9228515,-0.644532 -1.2084961,-1.750489 z"
       style="font-style:normal;font-variant:normal;font-weight:700;font-size:15px;font-family:Arial;fill:#000000"
       id="path1106" />
  </g>
  <path
     style="fill:none;stroke:#000000;stroke-width:0.88251966px;stroke-linecap:round;stroke-linejoin:round;stroke-miterlimit:4;stroke-dasharray:none;stroke-opacity:1;"
     d="  M 594.81827,477.44315   L 594.81827,485.38583  "
     id="path61" />
  <g
     aria-label="35ms"
     transform="matrix(1.000000,-0.000000,0.000000,1.000000,612.468661,485.385827)"
     id="text67"
     style="font-style:normal;font-variant:normal;font-weight:700;font-size:15px;line-height:125%;font-family:Arial;text-align:start;letter-spacing:0px;word-spacing:0px;text-anchor:start;fill:#000000;fill-opacity:1;stroke:none">
    <path
       d="m -37.800293,10.72998 1.992188,-0.241699 q 0.09521,0.761719 0.512695,1.164551 0.41748,0.402832 1.010742,0.402832 0.637207,0 1.069336,-0.483398 0.439453,-0.483399 0.439453,-1.303711 0,-0.7763675 -0.41748,-1.2304691 -0.417481,-0.4541015 -1.018067,-0.4541015 -0.395508,0 -0.944824,0.1538086 l 0.227051,-1.6772461 q 0.834961,0.021973 1.274414,-0.3588867 0.439453,-0.3881836 0.439453,-1.0253907 0,-0.5419922 -0.322266,-0.8642578 -0.322265,-0.3222656 -0.856933,-0.3222656 -0.527344,0 -0.900879,0.3662109 -0.373535,0.366211 -0.454102,1.069336 l -1.896972,-0.3222657 q 0.197754,-0.9741211 0.593261,-1.5527343 0.402832,-0.5859375 1.113282,-0.9155274 0.717773,-0.336914 1.604004,-0.336914 1.516113,0 2.43164,0.9667968 0.754395,0.7910157 0.754395,1.7871094 0,1.4135742 -1.54541,2.2558594 0.922851,0.1977539 1.472167,0.8862305 0.556641,0.6884765 0.556641,1.6625973 0,1.413575 -1.032715,2.409668 -1.032715,0.996094 -2.570801,0.996094 -1.457519,0 -2.416992,-0.834961 -0.959472,-0.842285 -1.113281,-2.197266 z"
       style="font-style:normal;font-variant:normal;font-weight:700;font-size:15px;font-family:Arial;fill:#000000"
       id="path1109" />
    <path
       d="m -29.355469,10.817871 2.050782,-0.212402 q 0.08789,0.695801 0.520019,1.105957 0.432129,0.402832 0.996094,0.402832 0.644531,0 1.091308,-0.52002 0.446778,-0.527343 0.446778,-1.582031 0,-0.9887695 -0.446778,-1.4794922 -0.439453,-0.4980468 -1.149902,-0.4980468 -0.88623,0 -1.589355,0.7836914 l -1.669922,-0.2416992 1.054687,-5.5883789 h 5.441895 v 1.9262695 h -3.881836 l -0.322266,1.8237304 q 0.688477,-0.3442382 1.40625,-0.3442382 1.369629,0 2.321778,0.9960937 0.952148,0.9960938 0.952148,2.5854492 0,1.3256841 -0.769043,2.3657231 -1.047363,1.420898 -2.907715,1.420898 -1.486816,0 -2.424316,-0.79834 -0.9375,-0.79834 -1.120606,-2.145996 z"
       style="font-style:normal;font-variant:normal;font-weight:700;font-size:15px;font-family:Arial;fill:#000000"
       id="path1111" />
    <path
       d="m -20.756836,5.8007812 h 1.896973 V 6.862793 Q -17.841797,5.625 -16.435547,5.625 q 0.74707,0 1.296387,0.3076172 0.549316,0.3076172 0.900879,0.9301758 0.512695,-0.6225586 1.105957,-0.9301758 Q -12.539063,5.625 -11.865234,5.625 q 0.856933,0 1.450195,0.3515625 0.5932617,0.3442383 0.8862304,1.0180664 0.2124023,0.4980469 0.2124023,1.6113281 v 4.973145 H -11.374512 V 9.1333008 q 0,-1.1572266 -0.212402,-1.4941406 -0.285645,-0.4394532 -0.878906,-0.4394532 -0.432129,0 -0.812989,0.2636719 -0.380859,0.2636719 -0.549316,0.7763672 -0.168457,0.5053711 -0.168457,1.6040039 v 3.735352 h -2.058105 V 9.3164063 q 0,-1.135254 -0.109864,-1.4648438 -0.109863,-0.3295898 -0.344238,-0.4907227 -0.227051,-0.1611328 -0.622559,-0.1611328 -0.476074,0 -0.856933,0.2563477 -0.38086,0.2563476 -0.549317,0.7397461 -0.161132,0.4833984 -0.161132,1.6040039 v 3.7792973 h -2.058106 z"
       style="font-style:normal;font-variant:normal;font-weight:700;font-size:15px;font-family:Arial;fill:#000000"
       id="path1113" />
    <path
       d="m -7.9907227,11.359863 2.0654297,-0.314941 q 0.131836,0.600586 0.534668,0.915527 0.402832,0.307617 1.1279297,0.307617 0.7983398,0 1.2011719,-0.292968 0.2709961,-0.205078 0.2709961,-0.549317 0,-0.234375 -0.1464844,-0.388183 -0.1538086,-0.146485 -0.6884766,-0.270996 -2.4902344,-0.549317 -3.1567383,-1.0034184 -0.9228515,-0.6298828 -0.9228515,-1.7504883 0,-1.0107422 0.7983398,-1.6992187 Q -6.1083984,5.625 -4.4311523,5.625 q 1.5966796,0 2.3730468,0.5200195 0.7763672,0.5200196 1.06933597,1.538086 L -2.9296875,8.0419922 Q -3.0541992,7.5878906 -3.4057617,7.3461914 -3.75,7.1044922 -4.3945312,7.1044922 q -0.8129883,0 -1.1645508,0.2270508 -0.234375,0.1611328 -0.234375,0.4174804 0,0.2197266 0.2050781,0.3735352 0.2783203,0.2050781 1.9189453,0.5786133 1.6479492,0.3735351 2.2998047,0.9155273 0.64453124,0.5493168 0.64453124,1.5307618 0,1.069336 -0.89355464,1.838379 -0.8935547,0.769043 -2.644043,0.769043 -1.5893555,0 -2.5195313,-0.644531 -0.9228515,-0.644532 -1.2084961,-1.750489 z"
       style="font-style:normal;font-variant:normal;font-weight:700;font-size:15px;font-family:Arial;fill:#000000"
       id="path1115" />
  </g>
  <path
     style="fill:none;stroke:#000000;stroke-width:0.88251966px;stroke-linecap:round;stroke-linejoin:round;stroke-miterlimit:4;stroke-dasharray:none;stroke-opacity:1;"
     d="  M 673.36252,477.44315   L 673.36252,485.38583  "
     id="path69" />
  <g
     aria-label="40ms"
     transform="matrix(1.000000,-0.000000,0.000000,1.000000,691.012913,485.385827)"
     id="text75"
     style="font-style:normal;font-variant:normal;font-weight:700;font-size:15px;line-height:125%;font-family:Arial;text-align:start;letter-spacing:0px;word-spacing:0px;text-anchor:start;fill:#000000;fill-opacity:1;stroke:none">
    <path
       d="m -33.691406,13.579102 v -2.160645 h -4.394531 V 9.6166992 l 4.658203,-6.8188476 h 1.728515 V 9.609375 h 1.333008 v 1.809082 h -1.333008 v 2.160645 z m 0,-3.969727 V 5.9399414 l -2.468262,3.6694336 z"
       style="font-style:normal;font-variant:normal;font-weight:700;font-size:15px;font-family:Arial;fill:#000000"
       id="path1118" />
    <path
       d="m -25.905762,2.7978516 q 1.560059,0 2.438965,1.1132812 1.047363,1.3183594 1.047363,4.3725586 0,3.0468746 -1.054687,4.3798826 -0.871582,1.098633 -2.431641,1.098633 -1.567383,0 -2.526855,-1.201172 -0.959473,-1.208496 -0.959473,-4.2993162 0,-3.0322266 1.054688,-4.3652344 0.871582,-1.0986328 2.43164,-1.0986328 z m 0,1.7065429 q -0.373535,0 -0.666504,0.2416992 -0.292968,0.234375 -0.454101,0.8496094 -0.212403,0.7983399 -0.212403,2.6879883 0,1.8896486 0.19043,2.6000976 0.19043,0.703125 0.476074,0.9375 0.292969,0.234375 0.666504,0.234375 0.373535,0 0.666504,-0.234375 0.292969,-0.241699 0.454102,-0.856934 0.212402,-0.791015 0.212402,-2.6806636 0,-1.8896484 -0.19043,-2.5927734 -0.190429,-0.7104493 -0.483398,-0.9448243 -0.285645,-0.2416992 -0.65918,-0.2416992 z"
       style="font-style:normal;font-variant:normal;font-weight:700;font-size:15px;font-family:Arial;fill:#000000"
       id="path1120" />
    <path
       d="m -20.756836,5.8007812 h 1.896973 V 6.862793 Q -17.841797,5.625 -16.435547,5.625 q 0.74707,0 1.296387,0.3076172 0.549316,0.3076172 0.900879,0.9301758 0.512695,-0.6225586 1.105957,-0.9301758 Q -12.539063,5.625 -11.865234,5.625 q 0.856933,0 1.450195,0.3515625 0.5932617,0.3442383 0.8862304,1.0180664 0.2124023,0.4980469 0.2124023,1.6113281 v 4.973145 H -11.374512 V 9.1333008 q 0,-1.1572266 -0.212402,-1.4941406 -0.285645,-0.4394532 -0.878906,-0.4394532 -0.432129,0 -0.812989,0.2636719 -0.380859,0.2636719 -0.549316,0.7763672 -0.168457,0.5053711 -0.168457,1.6040039 v 3.735352 h -2.058105 V 9.3164063 q 0,-1.135254 -0.109864,-1.4648438 -0.109863,-0.3295898 -0.344238,-0.4907227 -0.227051,-0.1611328 -0.622559,-0.1611328 -0.476074,0 -0.856933,0.2563477 -0.38086,0.2563476 -0.549317,0.7397461 -0.161132,0.4833984 -0.161132,1.6040039 v 3.7792973 h -2.058106 z"
       style="font-style:normal;font-variant:normal;font-weight:700;font-size:15px;font-family:Arial;fill:#000000"
       id="path1122" />
    <path
       d="m -7.9907227,11.359863 2.0654297,-0.314941 q 0.131836,0.600586 0.534668,0.915527 0.402832,0.307617 1.1279297,0.307617 0.7983398,0 1.2011719,-0.292968 0.2709961,-0.205078 0.2709961,-0.549317 0,-0.234375 -0.1464844,-0.388183 -0.1538086,-0.146485 -0.6884766,-0.270996 -2.4902344,-0.549317 -3.1567383,-1.0034184 -0.9228515,-0.6298828 -0.9228515,-1.7504883 0,-1.0107422 0.7983398,-1.6992187 Q -6.1083984,5.625 -4.4311523,5.625 q 1.5966796,0 2.3730468,0.5200195 0.7763672,0.5200196 1.06933597,1.538086 L -2.9296875,8.0419922 Q -3.0541992,7.5878906 -3.4057617,7.3461914 -3.75,7.1044922 -4.3945312,7.1044922 q -0.8129883,0 -1.1645508,0.2270508 -0.234375,0.1611328 -0.234375,0.4174804 0,0.2197266 0.2050781,0.3735352 0.2783203,0.2050781 1.9189453,0.5786133 1.6479492,0.3735351 2.2998047,0.9155273 0.64453124,0.5493168 0.64453124,1.5307618 0,1.069336 -0.89355464,1.838379 -0.8935547,0.769043 -2.644043,0.769043 -1.5893555,0 -2.5195313,-0.644531 -0.9228515,-0.644532 -1.2084961,-1.750489 z"
       style="font-style:normal;font-variant:normal;font-weight:700;font-size:15px;font-family:Arial;fill:#000000"
       id="path1124" />
  </g>
  <path
     style="fill:none;stroke:#000000;stroke-width:0.88251966px;stroke-linecap:round;stroke-linejoin:round;stroke-miterlimit:4;stroke-dasharray:none;stroke-opacity:1;"
     d="  M 752.78929,477.44315   L 752.78929,485.38583  "
     id="path77" />
  <g
     aria-label="45ms"
     transform="matrix(1.000000,-0.000000,0.000000,1.000000,770.439685,485.385827)"
     id="text83"
     style="font-style:normal;font-variant:normal;font-weight:700;font-size:15px;line-height:125%;font-family:Arial;text-align:start;letter-spacing:0px;word-spacing:0px;text-anchor:start;fill:#000000;fill-opacity:1;stroke:none">
    <path
       d="m -33.691406,13.579102 v -2.160645 h -4.394531 V 9.6166992 l 4.658203,-6.8188476 h 1.728515 V 9.609375 h 1.333008 v 1.809082 h -1.333008 v 2.160645 z m 0,-3.969727 V 5.9399414 l -2.468262,3.6694336 z"
       style="font-style:normal;font-variant:normal;font-weight:700;font-size:15px;font-family:Arial;fill:#000000"
       id="path1127" />
    <path
       d="m -29.355469,10.817871 2.050782,-0.212402 q 0.08789,0.695801 0.520019,1.105957 0.432129,0.402832 0.996094,0.402832 0.644531,0 1.091308,-0.52002 0.446778,-0.527343 0.446778,-1.582031 0,-0.9887695 -0.446778,-1.4794922 -0.439453,-0.4980468 -1.149902,-0.4980468 -0.88623,0 -1.589355,0.7836914 l -1.669922,-0.2416992 1.054687,-5.5883789 h 5.441895 v 1.9262695 h -3.881836 l -0.322266,1.8237304 q 0.688477,-0.3442382 1.40625,-0.3442382 1.369629,0 2.321778,0.9960937 0.952148,0.9960938 0.952148,2.5854492 0,1.3256841 -0.769043,2.3657231 -1.047363,1.420898 -2.907715,1.420898 -1.486816,0 -2.424316,-0.79834 -0.9375,-0.79834 -1.120606,-2.145996 z"
       style="font-style:normal;font-variant:normal;font-weight:700;font-size:15px;font-family:Arial;fill:#000000"
       id="path1129" />
    <path
       d="m -20.756836,5.8007812 h 1.896973 V 6.862793 Q -17.841797,5.625 -16.435547,5.625 q 0.74707,0 1.296387,0.3076172 0.549316,0.3076172 0.900879,0.9301758 0.512695,-0.6225586 1.105957,-0.9301758 Q -12.539063,5.625 -11.865234,5.625 q 0.856933,0 1.450195,0.3515625 0.5932617,0.3442383 0.8862304,1.0180664 0.2124023,0.4980469 0.2124023,1.6113281 v 4.973145 H -11.374512 V 9.1333008 q 0,-1.1572266 -0.212402,-1.4941406 -0.285645,-0.4394532 -0.878906,-0.4394532 -0.432129,0 -0.812989,0.2636719 -0.380859,0.2636719 -0.549316,0.7763672 -0.168457,0.5053711 -0.168457,1.6040039 v 3.735352 h -2.058105 V 9.3164063 q 0,-1.135254 -0.109864,-1.4648438 -0.109863,-0.3295898 -0.344238,-0.4907227 -0.227051,-0.1611328 -0.622559,-0.1611328 -0.476074,0 -0.856933,0.2563477 -0.38086,0.2563476 -0.549317,0.7397461 -0.161132,0.4833984 -0.161132,1.6040039 v 3.7792973 h -2.058106 z"
       style="font-style:normal;font-variant:normal;font-weight:700;font-size:15px;font-family:Arial;fill:#000000"
       id="path1131" />
    <path
       d="m -7.9907227,11.359863 2.0654297,-0.314941 q 0.131836,0.600586 0.534668,0.915527 0.402832,0.307617 1.1279297,0.307617 0.7983398,0 1.2011719,-0.292968 0.2709961,-0.205078 0.2709961,-0.549317 0,-0.234375 -0.1464844,-0.388183 -0.1538086,-0.146485 -0.6884766,-0.270996 -2.4902344,-0.549317 -3.1567383,-1.0034184 -0.9228515,-0.6298828 -0.9228515,-1.7504883 0,-1.0107422 0.7983398,-1.6992187 Q -6.1083984,5.625 -4.4311523,5.625 q 1.5966796,0 2.3730468,0.5200195 0.7763672,0.5200196 1.06933597,1.538086 L -2.9296875,8.0419922 Q -3.0541992,7.5878906 -3.4057617,7.3461914 -3.75,7.1044922 -4.3945312,7.1044922 q -0.8129883,0 -1.1645508,0.2270508 -0.234375,0.1611328 -0.234375,0.4174804 0,0.2197266 0.2050781,0.3735352 0.2783203,0.2050781 1.9189453,0.5786133 1.6479492,0.3735351 2.2998047,0.9155273 0.64453124,0.5493168 0.64453124,1.5307618 0,1.069336 -0.89355464,1.838379 -0.8935547,0.769043 -2.644043,0.769043 -1.5893555,0 -2.5195313,-0.644531 -0.9228515,-0.644532 -1.2084961,-1.750489 z"
       style="font-style:normal;font-variant:normal;font-weight:700;font-size:15px;font-family:Arial;fill:#000000"
       id="path1133" />
  </g>
  <path
     style="fill:none;stroke:#000000;stroke-width:0.88251966px;stroke-linecap:round;stroke-linejoin:round;stroke-miterlimit:4;stroke-dasharray:none;stroke-opacity:1;"
     d="  M 831.33354,477.44315   L 831.33354,485.38583  "
     id="path85" />
  <g
     aria-label="50ms"
     transform="matrix(1.000000,-0.000000,0.000000,1.000000,848.983937,485.385827)"
     id="text91"
     style="font-style:normal;font-variant:normal;font-weight:700;font-size:15px;line-height:125%;font-family:Arial;text-align:start;letter-spacing:0px;word-spacing:0px;text-anchor:start;fill:#000000;fill-opacity:1;stroke:none">
    <path
       d="m -37.697754,10.817871 2.050781,-0.212402 q 0.08789,0.695801 0.52002,1.105957 0.432129,0.402832 0.996094,0.402832 0.644531,0 1.091308,-0.52002 0.446778,-0.527343 0.446778,-1.582031 0,-0.9887695 -0.446778,-1.4794922 -0.439453,-0.4980468 -1.149902,-0.4980468 -0.886231,0 -1.589356,0.7836914 l -1.669921,-0.2416992 1.054687,-5.5883789 h 5.441895 v 1.9262695 h -3.881836 L -35.15625,6.7382812 Q -34.467773,6.394043 -33.75,6.394043 q 1.369629,0 2.321777,0.9960937 0.952149,0.9960938 0.952149,2.5854492 0,1.3256841 -0.769043,2.3657231 -1.047363,1.420898 -2.907715,1.420898 -1.486816,0 -2.424316,-0.79834 -0.9375,-0.79834 -1.120606,-2.145996 z"
       style="font-style:normal;font-variant:normal;font-weight:700;font-size:15px;font-family:Arial;fill:#000000"
       id="path1136" />
    <path
       d="m -25.905762,2.7978516 q 1.560059,0 2.438965,1.1132812 1.047363,1.3183594 1.047363,4.3725586 0,3.0468746 -1.054687,4.3798826 -0.871582,1.098633 -2.431641,1.098633 -1.567383,0 -2.526855,-1.201172 -0.959473,-1.208496 -0.959473,-4.2993162 0,-3.0322266 1.054688,-4.3652344 0.871582,-1.0986328 2.43164,-1.0986328 z m 0,1.7065429 q -0.373535,0 -0.666504,0.2416992 -0.292968,0.234375 -0.454101,0.8496094 -0.212403,0.7983399 -0.212403,2.6879883 0,1.8896486 0.19043,2.6000976 0.19043,0.703125 0.476074,0.9375 0.292969,0.234375 0.666504,0.234375 0.373535,0 0.666504,-0.234375 0.292969,-0.241699 0.454102,-0.856934 0.212402,-0.791015 0.212402,-2.6806636 0,-1.8896484 -0.19043,-2.5927734 -0.190429,-0.7104493 -0.483398,-0.9448243 -0.285645,-0.2416992 -0.65918,-0.2416992 z"
       style="font-style:normal;font-variant:normal;font-weight:700;font-size:15px;font-family:Arial;fill:#000000"
       id="path1138" />
    <path
       d="m -20.756836,5.8007812 h 1.896973 V 6.862793 Q -17.841797,5.625 -16.435547,5.625 q 0.74707,0 1.296387,0.3076172 0.549316,0.3076172 0.900879,0.9301758 0.512695,-0.6225586 1.105957,-0.9301758 Q -12.539063,5.625 -11.865234,5.625 q 0.856933,0 1.450195,0.3515625 0.5932617,0.3442383 0.8862304,1.0180664 0.2124023,0.4980469 0.2124023,1.6113281 v 4.973145 H -11.374512 V 9.1333008 q 0,-1.1572266 -0.212402,-1.4941406 -0.285645,-0.4394532 -0.878906,-0.4394532 -0.432129,0 -0.812989,0.2636719 -0.380859,0.2636719 -0.549316,0.7763672 -0.168457,0.5053711 -0.168457,1.6040039 v 3.735352 h -2.058105 V 9.3164063 q 0,-1.135254 -0.109864,-1.4648438 -0.109863,-0.3295898 -0.344238,-0.4907227 -0.227051,-0.1611328 -0.622559,-0.1611328 -0.476074,0 -0.856933,0.2563477 -0.38086,0.2563476 -0.549317,0.7397461 -0.161132,0.4833984 -0.161132,1.6040039 v 3.7792973 h -2.058106 z"
       style="font-style:normal;font-variant:normal;font-weight:700;font-size:15px;font-family:Arial;fill:#000000"
       id="path1140" />
    <path
       d="m -7.9907227,11.359863 2.0654297,-0.314941 q 0.131836,0.600586 0.534668,0.915527 0.402832,0.307617 1.1279297,0.307617 0.7983398,0 1.2011719,-0.292968 0.2709961,-0.205078 0.2709961,-0.549317 0,-0.234375 -0.1464844,-0.388183 -0.1538086,-0.146485 -0.6884766,-0.270996 -2.4902344,-0.549317 -3.1567383,-1.0034184 -0.9228515,-0.6298828 -0.9228515,-1.7504883 0,-1.0107422 0.7983398,-1.6992187 Q -6.1083984,5.625 -4.4311523,5.625 q 1.5966796,0 2.3730468,0.5200195 0.7763672,0.5200196 1.06933597,1.538086 L -2.9296875,8.0419922 Q -3.0541992,7.5878906 -3.4057617,7.3461914 -3.75,7.1044922 -4.3945312,7.1044922 q -0.8129883,0 -1.1645508,0.2270508 -0.234375,0.1611328 -0.234375,0.4174804 0,0.2197266 0.2050781,0.3735352 0.2783203,0.2050781 1.9189453,0.5786133 1.6479492,0.3735351 2.2998047,0.9155273 0.64453124,0.5493168 0.64453124,1.5307618 0,1.069336 -0.89355464,1.838379 -0.8935547,0.769043 -2.644043,0.769043 -1.5893555,0 -2.5195313,-0.644531 -0.9228515,-0.644532 -1.2084961,-1.750489 z"
       style="font-style:normal;font-variant:normal;font-weight:700;font-size:15px;font-family:Arial;fill:#000000"
       id="path1142" />
  </g>
  <g
     aria-label="-6.0V"
     transform="matrix(1.000000,-0.000000,0.000000,1.000000,848.983937,485.385827)"
     id="text97"
     style="font-style:normal;font-variant:normal;font-weight:700;font-size:15px;line-height:125%;font-family:Arial;text-align:start;letter-spacing:0px;word-spacing:0px;text-anchor:start;fill:#000000;fill-opacity:1;stroke:none">
    <path
       d="M -848.69293,-5.1700225 V -7.228128 h 4.04297 v 2.0581055 z"
       style="font-style:normal;font-variant:normal;font-weight:700;font-size:15px;font-family:Arial;fill:#000000"
       id="path1039" />
    <path
       d="m -836.93024,-10.414163 -1.99218,0.219726 q -0.0733,-0.615234 -0.38086,-0.908203 -0.30762,-0.292968 -0.79834,-0.292968 -0.65186,0 -1.10596,0.585937 -0.44678,0.585938 -0.56397,2.4389649 0.76905,-0.9082031 1.91163,-0.9082031 1.28906,0 2.20459,0.9814453 0.92285,0.9814453 0.92285,2.5341797 0,1.6479492 -0.9668,2.644043 -0.9668,0.9960937 -2.48291,0.9960937 -1.62598,0 -2.67334,-1.2597656 -1.04736,-1.2670899 -1.04736,-4.1455078 0,-2.9516601 1.09131,-4.2553711 1.0913,-1.303711 2.83447,-1.303711 1.22314,0 2.02148,0.688477 0.80567,0.681152 1.02539,1.984863 z m -4.66552,4.489746 q 0,1.0034179 0.46142,1.5527344 0.46143,0.5419921 1.05469,0.5419921 0.57129,0 0.95215,-0.4467773 0.38086,-0.4467773 0.38086,-1.4648438 0,-1.0473632 -0.41016,-1.5307617 -0.41016,-0.4907226 -1.02539,-0.4907226 -0.59326,0 -1.00342,0.46875 -0.41015,0.4614258 -0.41015,1.3696289 z"
       style="font-style:normal;font-variant:normal;font-weight:700;font-size:15px;font-family:Arial;fill:#000000"
       id="path1041" />
    <path
       d="m -835.12115,-2.306253 v -2.0581054 h 2.0581 v 2.0581054 z"
       style="font-style:normal;font-variant:normal;font-weight:700;font-size:15px;font-family:Arial;fill:#000000"
       id="path1043" />
    <path
       d="m -827.91412,-13.087503 q 1.56006,0 2.43896,1.113281 1.04736,1.31836 1.04736,4.3725589 0,3.046875 -1.05468,4.3798828 -0.87158,1.0986328 -2.43164,1.0986328 -1.56739,0 -2.52686,-1.2011719 -0.95947,-1.2084961 -0.95947,-4.2993164 0,-3.0322262 1.05469,-4.3652342 0.87158,-1.098633 2.43164,-1.098633 z m 0,1.706543 q -0.37354,0 -0.66651,0.241699 -0.29297,0.234375 -0.4541,0.84961 -0.2124,0.7983394 -0.2124,2.6879879 0,1.8896484 0.19043,2.6000976 0.19043,0.703125 0.47607,0.9375 0.29297,0.234375 0.66651,0.234375 0.37353,0 0.6665,-0.234375 0.29297,-0.2416992 0.4541,-0.8569336 0.2124,-0.7910156 0.2124,-2.680664 0,-1.8896485 -0.19043,-2.5927739 -0.19043,-0.710449 -0.48339,-0.944824 -0.28565,-0.241699 -0.65918,-0.241699 z"
       style="font-style:normal;font-variant:normal;font-weight:700;font-size:15px;font-family:Arial;fill:#000000"
       id="path1045" />
    <path
       d="m -819.85748,-2.306253 -3.83789,-10.737305 h 2.35107 l 2.71729,7.9467777 2.62939,-7.9467777 h 2.29981 l -3.84522,10.737305 z"
       style="font-style:normal;font-variant:normal;font-weight:700;font-size:15px;font-family:Arial;fill:#000000"
       id="path1047" />
  </g>
  <path
     style="fill:none;stroke:#000000;stroke-width:0.88251966px;stroke-linecap:round;stroke-linejoin:round;stroke-miterlimit:4;stroke-dasharray:none;stroke-opacity:1;"
     d="  M 43.243465,477.44315   L 35.300787,477.44315  "
     id="path99" />
  <g
     aria-label="-4.8V"
     transform="matrix(1.000000,-0.000000,0.000000,1.000000,35.300787,385.661102)"
     id="text105"
     style="font-style:normal;font-variant:normal;font-weight:700;font-size:15px;line-height:125%;font-family:Arial;text-align:start;letter-spacing:0px;word-spacing:0px;text-anchor:start;fill:#000000;fill-opacity:1;stroke:none">
    <path
       d="M -35.009766,10.715332 V 8.6572266 h 4.042969 v 2.0581054 z"
       style="font-style:normal;font-variant:normal;font-weight:700;font-size:15px;font-family:Arial;fill:#000000"
       id="path1028" />
    <path
       d="m -26.184082,13.579102 v -2.160645 h -4.394531 V 9.6166992 l 4.658203,-6.8188476 h 1.728515 V 9.609375 h 1.333008 v 1.809082 h -1.333008 v 2.160645 z m 0,-3.969727 V 5.9399414 l -2.468262,3.6694336 z"
       style="font-style:normal;font-variant:normal;font-weight:700;font-size:15px;font-family:Arial;fill:#000000"
       id="path1030" />
    <path
       d="m -21.437988,13.579102 v -2.058106 h 2.058105 v 2.058106 z"
       style="font-style:normal;font-variant:normal;font-weight:700;font-size:15px;font-family:Arial;fill:#000000"
       id="path1032" />
    <path
       d="m -15.944824,7.7856445 q -0.79834,-0.336914 -1.164551,-0.9228515 -0.358887,-0.5932618 -0.358887,-1.2963868 0,-1.2011718 0.834961,-1.9848632 0.842285,-0.7836914 2.387696,-0.7836914 1.530761,0 2.373046,0.7836914 0.84961,0.7836914 0.84961,1.9848632 0,0.7470704 -0.388184,1.3330079 -0.388183,0.5786132 -1.091308,0.8862304 0.893554,0.3588868 1.35498,1.0473633 0.46875,0.6884766 0.46875,1.5893552 0,1.486817 -0.952148,2.416992 -0.944825,0.930176 -2.519532,0.930176 -1.464843,0 -2.438964,-0.769043 -1.149903,-0.908203 -1.149903,-2.490234 0,-0.8715821 0.432129,-1.5966798 0.432129,-0.7324219 1.362305,-1.1279297 z m 0.424804,-2.0727539 q 0,0.6152344 0.344239,0.9594727 0.351562,0.3442383 0.930176,0.3442383 0.585937,0 0.9375,-0.3442383 0.351562,-0.3515625 0.351562,-0.9667969 0,-0.5786133 -0.351562,-0.9228516 -0.344239,-0.3515625 -0.915528,-0.3515625 -0.593262,0 -0.944824,0.3515625 -0.351563,0.3515625 -0.351563,0.9301758 z M -15.710449,10.3125 q 0,0.849609 0.432129,1.325684 0.439453,0.476074 1.091308,0.476074 0.637207,0 1.054688,-0.454102 0.41748,-0.461426 0.41748,-1.325683 0,-0.7543949 -0.424804,-1.2084964 -0.424805,-0.4614258 -1.076661,-0.4614258 -0.754394,0 -1.127929,0.5200195 -0.366211,0.5200195 -0.366211,1.1279297 z"
       style="font-style:normal;font-variant:normal;font-weight:700;font-size:15px;font-family:Arial;fill:#000000"
       id="path1034" />
    <path
       d="M -6.1743164,13.579102 -10.012207,2.8417969 h 2.3510742 l 2.7172851,7.9467771 2.6293946,-7.9467771 h 2.29980466 L -3.8598633,13.579102 Z"
       style="font-style:normal;font-variant:normal;font-weight:700;font-size:15px;font-family:Arial;fill:#000000"
       id="path1036" />
  </g>
  <path
     style="fill:none;stroke:#000000;stroke-width:0.88251966px;stroke-linecap:round;stroke-linejoin:round;stroke-miterlimit:4;stroke-dasharray:none;stroke-opacity:1;"
     d="  M 43.243465,393.60378   L 35.300787,393.60378  "
     id="path107" />
  <g
     aria-label="-3.6V"
     transform="matrix(1.000000,-0.000000,0.000000,1.000000,35.300787,302.704252)"
     id="text113"
     style="font-style:normal;font-variant:normal;font-weight:700;font-size:15px;line-height:125%;font-family:Arial;text-align:start;letter-spacing:0px;word-spacing:0px;text-anchor:start;fill:#000000;fill-opacity:1;stroke:none">
    <path
       d="M -35.009766,10.715332 V 8.6572266 h 4.042969 v 2.0581054 z"
       style="font-style:normal;font-variant:normal;font-weight:700;font-size:15px;font-family:Arial;fill:#000000"
       id="path1017" />
    <path
       d="m -30.292969,10.72998 1.992188,-0.241699 q 0.09521,0.761719 0.512695,1.164551 0.417481,0.402832 1.010742,0.402832 0.637207,0 1.069336,-0.483398 0.439453,-0.483399 0.439453,-1.303711 0,-0.7763675 -0.41748,-1.2304691 -0.417481,-0.4541015 -1.018067,-0.4541015 -0.395507,0 -0.944824,0.1538086 l 0.227051,-1.6772461 q 0.834961,0.021973 1.274414,-0.3588867 0.439453,-0.3881836 0.439453,-1.0253907 0,-0.5419922 -0.322265,-0.8642578 -0.322266,-0.3222656 -0.856934,-0.3222656 -0.527344,0 -0.900879,0.3662109 -0.373535,0.366211 -0.454101,1.069336 L -30.13916,5.6030273 q 0.197754,-0.9741211 0.593262,-1.5527343 0.402832,-0.5859375 1.113281,-0.9155274 0.717773,-0.336914 1.604004,-0.336914 1.516113,0 2.43164,0.9667968 0.754395,0.7910157 0.754395,1.7871094 0,1.4135742 -1.54541,2.2558594 0.922851,0.1977539 1.472168,0.8862305 0.55664,0.6884765 0.55664,1.6625973 0,1.413575 -1.032715,2.409668 -1.032714,0.996094 -2.5708,0.996094 -1.45752,0 -2.416992,-0.834961 -0.959473,-0.842285 -1.113282,-2.197266 z"
       style="font-style:normal;font-variant:normal;font-weight:700;font-size:15px;font-family:Arial;fill:#000000"
       id="path1019" />
    <path
       d="m -21.437988,13.579102 v -2.058106 h 2.058105 v 2.058106 z"
       style="font-style:normal;font-variant:normal;font-weight:700;font-size:15px;font-family:Arial;fill:#000000"
       id="path1021" />
    <path
       d="m -10.737305,5.4711914 -1.992187,0.2197266 q -0.07324,-0.6152344 -0.38086,-0.9082032 -0.307617,-0.2929687 -0.798339,-0.2929687 -0.651856,0 -1.105957,0.5859375 -0.446778,0.5859375 -0.563965,2.4389648 0.769043,-0.9082031 1.911621,-0.9082031 1.289062,0 2.20459,0.9814453 0.922851,0.9814453 0.922851,2.5341794 0,1.64795 -0.966797,2.644043 -0.966797,0.996094 -2.48291,0.996094 -1.625976,0 -2.67334,-1.259766 -1.047363,-1.267089 -1.047363,-4.1455074 0,-2.9516602 1.091309,-4.2553711 1.091308,-1.3037109 2.834472,-1.3037109 1.223145,0 2.021485,0.6884765 0.805664,0.6811524 1.02539,1.9848633 z m -4.665527,4.4897461 q 0,1.0034175 0.461426,1.5527345 0.461426,0.541992 1.054687,0.541992 0.571289,0 0.952149,-0.446777 0.380859,-0.446778 0.380859,-1.464844 0,-1.0473633 -0.410156,-1.5307617 -0.410156,-0.4907227 -1.025391,-0.4907227 -0.593262,0 -1.003418,0.46875 -0.410156,0.4614258 -0.410156,1.3696289 z"
       style="font-style:normal;font-variant:normal;font-weight:700;font-size:15px;font-family:Arial;fill:#000000"
       id="path1023" />
    <path
       d="M -6.1743164,13.579102 -10.012207,2.8417969 h 2.3510742 l 2.7172851,7.9467771 2.6293946,-7.9467771 h 2.29980466 L -3.8598633,13.579102 Z"
       style="font-style:normal;font-variant:normal;font-weight:700;font-size:15px;font-family:Arial;fill:#000000"
       id="path1025" />
  </g>
  <path
     style="fill:none;stroke:#000000;stroke-width:0.88251966px;stroke-linecap:round;stroke-linejoin:round;stroke-miterlimit:4;stroke-dasharray:none;stroke-opacity:1;"
     d="  M 43.243465,310.64693   L 35.300787,310.64693  "
     id="path115" />
  <g
     aria-label="-2.4V"
     transform="matrix(1.000000,-0.000000,0.000000,1.000000,35.300787,218.864882)"
     id="text121"
     style="font-style:normal;font-variant:normal;font-weight:700;font-size:15px;line-height:125%;font-family:Arial;text-align:start;letter-spacing:0px;word-spacing:0px;text-anchor:start;fill:#000000;fill-opacity:1;stroke:none">
    <path
       d="M -35.009766,10.715332 V 8.6572266 h 4.042969 v 2.0581054 z"
       style="font-style:normal;font-variant:normal;font-weight:700;font-size:15px;font-family:Arial;fill:#000000"
       id="path1006" />
    <path
       d="m -23.269043,11.66748 v 1.911622 h -7.214355 q 0.117187,-1.083985 0.703125,-2.050782 0.585937,-0.974121 2.314453,-2.5781247 1.391601,-1.2963867 1.706543,-1.7578125 0.424804,-0.637207 0.424804,-1.2597656 0,-0.6884766 -0.373535,-1.0546875 -0.366211,-0.3735352 -1.018066,-0.3735352 -0.644531,0 -1.025391,0.3881836 -0.380859,0.3881836 -0.439453,1.2890625 l -2.050781,-0.2050781 q 0.183105,-1.6992188 1.149902,-2.4389648 0.966797,-0.7397461 2.416992,-0.7397461 1.589356,0 2.497559,0.8569336 0.908203,0.8569335 0.908203,2.1313476 0,0.7250977 -0.263672,1.3842774 -0.256347,0.6518554 -0.820312,1.3696289 -0.373535,0.4760742 -1.347657,1.3696289 -0.974121,0.893555 -1.237793,1.186523 -0.256347,0.292969 -0.41748,0.571289 z"
       style="font-style:normal;font-variant:normal;font-weight:700;font-size:15px;font-family:Arial;fill:#000000"
       id="path1008" />
    <path
       d="m -21.437988,13.579102 v -2.058106 h 2.058105 v 2.058106 z"
       style="font-style:normal;font-variant:normal;font-weight:700;font-size:15px;font-family:Arial;fill:#000000"
       id="path1010" />
    <path
       d="m -13.674316,13.579102 v -2.160645 h -4.394532 V 9.6166992 l 4.658203,-6.8188476 h 1.728516 V 9.609375 h 1.333008 v 1.809082 h -1.333008 v 2.160645 z m 0,-3.969727 V 5.9399414 l -2.468262,3.6694336 z"
       style="font-style:normal;font-variant:normal;font-weight:700;font-size:15px;font-family:Arial;fill:#000000"
       id="path1012" />
    <path
       d="M -6.1743164,13.579102 -10.012207,2.8417969 h 2.3510742 l 2.7172851,7.9467771 2.6293946,-7.9467771 h 2.29980466 L -3.8598633,13.579102 Z"
       style="font-style:normal;font-variant:normal;font-weight:700;font-size:15px;font-family:Arial;fill:#000000"
       id="path1014" />
  </g>
  <path
     style="fill:none;stroke:#000000;stroke-width:0.88251966px;stroke-linecap:round;stroke-linejoin:round;stroke-miterlimit:4;stroke-dasharray:none;stroke-opacity:1;"
     d="  M 43.243465,226.80756   L 35.300787,226.80756  "
     id="path123" />
  <g
     aria-label="-1.2V"
     transform="matrix(1.000000,-0.000000,0.000000,1.000000,35.300787,135.908031)"
     id="text129"
     style="font-style:normal;font-variant:normal;font-weight:700;font-size:15px;line-height:125%;font-family:Arial;text-align:start;letter-spacing:0px;word-spacing:0px;text-anchor:start;fill:#000000;fill-opacity:1;stroke:none">
    <path
       d="M -35.009766,10.715332 V 8.6572266 h 4.042969 v 2.0581054 z"
       style="font-style:normal;font-variant:normal;font-weight:700;font-size:15px;font-family:Arial;fill:#000000"
       id="path995" />
    <path
       d="m -24.953613,13.579102 h -2.058106 V 5.8227539 q -1.127929,1.0546875 -2.658691,1.5600586 V 5.5151367 q 0.805664,-0.2636719 1.750488,-0.9960937 0.944824,-0.7397461 1.296387,-1.7211914 h 1.669922 z"
       style="font-style:normal;font-variant:normal;font-weight:700;font-size:15px;font-family:Arial;fill:#000000"
       id="path997" />
    <path
       d="m -21.437988,13.579102 v -2.058106 h 2.058105 v 2.058106 z"
       style="font-style:normal;font-variant:normal;font-weight:700;font-size:15px;font-family:Arial;fill:#000000"
       id="path999" />
    <path
       d="m -10.759277,11.66748 v 1.911622 h -7.214356 q 0.117188,-1.083985 0.703125,-2.050782 0.585938,-0.974121 2.314453,-2.5781247 1.391602,-1.2963867 1.706543,-1.7578125 0.424805,-0.637207 0.424805,-1.2597656 0,-0.6884766 -0.373535,-1.0546875 -0.366211,-0.3735352 -1.018067,-0.3735352 -0.644531,0 -1.02539,0.3881836 -0.38086,0.3881836 -0.439453,1.2890625 l -2.050782,-0.2050781 q 0.183106,-1.6992188 1.149903,-2.4389648 0.966797,-0.7397461 2.416992,-0.7397461 1.589355,0 2.497559,0.8569336 0.908203,0.8569335 0.908203,2.1313476 0,0.7250977 -0.263672,1.3842774 -0.256348,0.6518554 -0.820313,1.3696289 -0.373535,0.4760742 -1.347656,1.3696289 -0.974121,0.893555 -1.237793,1.186523 -0.256348,0.292969 -0.41748,0.571289 z"
       style="font-style:normal;font-variant:normal;font-weight:700;font-size:15px;font-family:Arial;fill:#000000"
       id="path1001" />
    <path
       d="M -6.1743164,13.579102 -10.012207,2.8417969 h 2.3510742 l 2.7172851,7.9467771 2.6293946,-7.9467771 h 2.29980466 L -3.8598633,13.579102 Z"
       style="font-style:normal;font-variant:normal;font-weight:700;font-size:15px;font-family:Arial;fill:#000000"
       id="path1003" />
  </g>
  <path
     style="fill:none;stroke:#000000;stroke-width:0.88251966px;stroke-linecap:round;stroke-linejoin:round;stroke-miterlimit:4;stroke-dasharray:none;stroke-opacity:1;"
     d="  M 43.243465,143.85071   L 35.300787,143.85071  "
     id="path131" />
  <g
     aria-label="0.0V"
     transform="matrix(1.000000,-0.000000,0.000000,1.000000,35.300787,52.068661)"
     id="text137"
     style="font-style:normal;font-variant:normal;font-weight:700;font-size:15px;line-height:125%;font-family:Arial;text-align:start;letter-spacing:0px;word-spacing:0px;text-anchor:start;fill:#000000;fill-opacity:1;stroke:none">
    <path
       d="m -26.740723,2.7978516 q 1.560059,0 2.438965,1.1132812 1.047363,1.3183594 1.047363,4.3725586 0,3.0468746 -1.054687,4.3798826 -0.871582,1.098633 -2.431641,1.098633 -1.567382,0 -2.526855,-1.201172 -0.959473,-1.208496 -0.959473,-4.2993162 0,-3.0322266 1.054688,-4.3652344 0.871582,-1.0986328 2.43164,-1.0986328 z m 0,1.7065429 q -0.373535,0 -0.666504,0.2416992 -0.292968,0.234375 -0.454101,0.8496094 -0.212402,0.7983399 -0.212402,2.6879883 0,1.8896486 0.190429,2.6000976 0.19043,0.703125 0.476074,0.9375 0.292969,0.234375 0.666504,0.234375 0.373536,0 0.666504,-0.234375 0.292969,-0.241699 0.454102,-0.856934 0.212402,-0.791015 0.212402,-2.6806636 0,-1.8896484 -0.19043,-2.5927734 -0.190429,-0.7104493 -0.483398,-0.9448243 -0.285644,-0.2416992 -0.65918,-0.2416992 z"
       style="font-style:normal;font-variant:normal;font-weight:700;font-size:15px;font-family:Arial;fill:#000000"
       id="path986" />
    <path
       d="m -21.437988,13.579102 v -2.058106 h 2.058105 v 2.058106 z"
       style="font-style:normal;font-variant:normal;font-weight:700;font-size:15px;font-family:Arial;fill:#000000"
       id="path988" />
    <path
       d="m -14.230957,2.7978516 q 1.560059,0 2.438965,1.1132812 1.047363,1.3183594 1.047363,4.3725586 0,3.0468746 -1.054687,4.3798826 -0.871582,1.098633 -2.431641,1.098633 -1.567383,0 -2.526855,-1.201172 -0.959473,-1.208496 -0.959473,-4.2993162 0,-3.0322266 1.054687,-4.3652344 0.871582,-1.0986328 2.431641,-1.0986328 z m 0,1.7065429 q -0.373535,0 -0.666504,0.2416992 -0.292969,0.234375 -0.454102,0.8496094 -0.212402,0.7983399 -0.212402,2.6879883 0,1.8896486 0.19043,2.6000976 0.19043,0.703125 0.476074,0.9375 0.292969,0.234375 0.666504,0.234375 0.373535,0 0.666504,-0.234375 0.292969,-0.241699 0.454101,-0.856934 0.212403,-0.791015 0.212403,-2.6806636 0,-1.8896484 -0.19043,-2.5927734 -0.19043,-0.7104493 -0.483398,-0.9448243 -0.285645,-0.2416992 -0.65918,-0.2416992 z"
       style="font-style:normal;font-variant:normal;font-weight:700;font-size:15px;font-family:Arial;fill:#000000"
       id="path990" />
    <path
       d="M -6.1743164,13.579102 -10.012207,2.8417969 h 2.3510742 l 2.7172851,7.9467771 2.6293946,-7.9467771 h 2.29980466 L -3.8598633,13.579102 Z"
       style="font-style:normal;font-variant:normal;font-weight:700;font-size:15px;font-family:Arial;fill:#000000"
       id="path992" />
  </g>
  <path
     style="fill:none;stroke:#000000;stroke-width:0.88251966px;stroke-linecap:round;stroke-linejoin:round;stroke-miterlimit:4;stroke-dasharray:none;stroke-opacity:1;"
     d="  M 43.243465,60.011339   L 35.300787,60.011339  "
     id="path139" />
  <path
     style="fill:none;stroke:#000000;stroke-width:0.88251966px;stroke-linecap:round;stroke-linejoin:round;stroke-miterlimit:4;stroke-dasharray:none;stroke-opacity:1;"
     d="  M 43.243465,18.532913   L 831.33354,18.532913   L 831.33354,477.44315   L 43.243465,477.44315   L 43.243465,18.532913  "
     id="path141" />
  <g
     aria-label="V(out)"
     transform="matrix(1.000000,-0.000000,0.000000,1.000000,436.847244,0.000000)"
     id="text147"
     style="font-style:normal;font-variant:normal;font-weight:700;font-size:15px;line-height:125%;font-family:Arial;text-align:start;letter-spacing:0px;word-spacing:0px;text-anchor:start;fill:#008000;fill-opacity:1;stroke:none">
    <path
       d="M -17.827148,13.579102 -21.665039,2.8417969 h 2.351074 l 2.717285,7.9467771 2.629395,-7.9467771 h 2.299805 l -3.845215,10.7373051 z"
       style="font-style:normal;font-variant:normal;font-weight:700;font-size:15px;font-family:Arial;fill:#008000"
       id="path1145" />
    <path
       d="m -7.1630859,16.73584 h -1.4135743 q -1.1206054,-1.691895 -1.7065428,-3.515625 -0.585938,-1.823731 -0.585938,-3.5302736 0,-2.1166992 0.725098,-4.0063477 0.6298828,-1.640625 1.5966797,-3.0249023 h 1.40625 q -1.003418,2.2192383 -1.3842773,3.7792969 -0.3735352,1.5527344 -0.3735352,3.2958984 0,1.2011723 0.2197266,2.4609373 0.2270508,1.259766 0.6152344,2.39502 0.2563476,0.74707 0.9008789,2.145996 z"
       style="font-style:normal;font-variant:normal;font-weight:700;font-size:15px;font-family:Arial;fill:#008000"
       id="path1147" />
    <path
       d="m -6.0571289,9.5800781 q 0,-1.0253906 0.5053711,-1.9848633 Q -5.0463867,6.6357422 -4.1235352,6.1303711 -3.1933594,5.625 -2.0507813,5.625 q 1.76513677,0 2.89306646,1.1499023 1.12792964,1.1425782 1.12792964,2.8930665 0,1.7651362 -1.14257808,2.9296872 -1.13525391,1.157227 -2.86376952,1.157227 -1.069336,0 -2.043457,-0.483399 -0.9667969,-0.483398 -1.472168,-1.413574 -0.5053711,-0.9375 -0.5053711,-2.2778319 z m 2.109375,0.1098633 q 0,1.1572266 0.5493164,1.7724606 0.5493164,0.615235 1.3549805,0.615235 0.805664,0 1.34765622,-0.615235 0.54931641,-0.615234 0.54931641,-1.787109 0,-1.1425782 -0.54931641,-1.7578125 Q -1.237793,7.3022461 -2.043457,7.3022461 q -0.8056641,0 -1.3549805,0.6152344 -0.5493164,0.6152343 -0.5493164,1.7724609 z"
       style="font-style:normal;font-variant:normal;font-weight:700;font-size:15px;font-family:Arial;fill:#008000"
       id="path1149" />
    <path
       d="m 8.7011719,13.579102 v -1.164551 q -0.4248047,0.622558 -1.1206055,0.981445 -0.6884766,0.358887 -1.4575195,0.358887 -0.7836914,0 -1.40625,-0.344238 Q 4.0942383,13.066406 3.815918,12.443848 3.5375977,11.821289 3.5375977,10.722656 V 5.8007812 H 5.5957031 V 9.375 q 0,1.640625 0.1098633,2.01416 0.1171875,0.366211 0.4174805,0.585938 0.3002929,0.212402 0.7617187,0.212402 0.5273438,0 0.9448242,-0.285645 0.4174805,-0.292968 0.5712891,-0.717773 0.1538086,-0.432129 0.1538086,-2.1020507 V 5.8007812 h 2.0581055 v 7.7783208 z"
       style="font-style:normal;font-variant:normal;font-weight:700;font-size:15px;font-family:Arial;fill:#008000"
       id="path1151" />
    <path
       d="m 16.311035,5.8007812 v 1.640625 h -1.40625 v 3.1347658 q 0,0.952148 0.03662,1.113281 0.04395,0.153809 0.183106,0.256348 0.146484,0.102539 0.351562,0.102539 0.285645,0 0.827637,-0.197754 l 0.175781,1.59668 q -0.717773,0.307617 -1.625976,0.307617 -0.556641,0 -1.003418,-0.183106 -0.446778,-0.190429 -0.65918,-0.483398 -0.205078,-0.300293 -0.285645,-0.805664 -0.06592,-0.358887 -0.06592,-1.450195 V 7.4414062 h -0.944824 v -1.640625 h 0.944824 V 4.2553711 l 2.06543,-1.2011719 v 2.746582 z"
       style="font-style:normal;font-variant:normal;font-weight:700;font-size:15px;font-family:Arial;fill:#008000"
       id="path1153" />
    <path
       d="m 17.167969,16.73584 q 0.60791,-1.303711 0.856933,-1.999512 0.249024,-0.695801 0.461426,-1.604004 0.212402,-0.908203 0.314942,-1.721191 0.102539,-0.820313 0.102539,-1.6772463 0,-1.743164 -0.373536,-3.2958984 Q 18.156738,4.8779297 17.15332,2.6586914 h 1.398926 q 1.105957,1.574707 1.713867,3.3398438 0.615235,1.7651367 0.615235,3.5815429 0,1.5307619 -0.483399,3.2812499 -0.549316,1.962891 -1.809082,3.874512 z"
       style="font-style:normal;font-variant:normal;font-weight:700;font-size:15px;font-family:Arial;fill:#008000"
       id="path1155" />
  </g>
  <path
     style="fill:none;stroke:#008000;stroke-width:1.083;stroke-linecap:round;stroke-linejoin:round;stroke-miterlimit:4;stroke-dasharray:none;stroke-opacity:1"
     d="  M 43.243465,60.011339   L 44.125984,58.246299   L 45.008504,56.48126   L 45.891024,54.71622   L 46.773543,52.951181   L 47.656063,51.186142   L 48.538583,49.421102   L 50.303622,50.303622   L 51.186142,52.068661   L 52.068661,53.833701   L 52.068661,55.59874   L 52.951181,57.36378   L 53.833701,59.128819   L 55.59874,59.128819   L 55.59874,60.893858   L 57.36378,61.776378   L 58.246299,63.541417   L 59.128819,65.306457   L 60.893858,67.071496   L 61.776378,68.836535   L 62.658898,70.601575   L 64.423937,70.601575   L 64.423937,72.366614   L 66.188976,73.249134   L 67.071496,75.014173   L 67.954016,76.779213   L 68.836535,78.544252   L 70.601575,78.544252   L 70.601575,80.309291   L 72.366614,81.191811   L 73.249134,82.95685   L 74.131654,84.72189   L 75.014173,86.486929   L 76.779213,86.486929   L 76.779213,88.251969   L 77.661732,90.017008   L 79.426772,90.017008   L 79.426772,91.782047   L 81.191811,91.782047   L 81.191811,93.547087   L 82.074331,95.312126   L 83.83937,96.194646   L 83.83937,97.959685   L 85.604409,97.959685   L 85.604409,99.724724   L 87.369449,100.60724   L 88.251969,102.37228   L 89.134488,104.13732   L 90.017008,105.90236   L 91.782047,105.90236   L 91.782047,107.6674   L 93.547087,108.54992   L 94.429606,110.31496   L 95.312126,112.08   L 97.077165,113.84504   L 97.959685,115.61008   L 99.724724,116.4926   L 100.60724,118.25764   L 101.48976,120.02268   L 103.2548,121.78772   L 104.13732,123.55276   L 105.90236,124.43528   L 106.78488,126.20031   L 107.6674,127.96535   L 109.43244,128.84787   L 109.43244,130.61291   L 111.19748,130.61291   L 111.19748,132.37795   L 112.96252,133.26047   L 113.84504,135.02551   L 114.72756,136.79055   L 115.61008,138.55559   L 117.37512,138.55559   L 117.37512,140.32063   L 119.14016,141.20315   L 120.02268,142.96819   L 120.9052,144.73323   L 121.78772,146.49827   L 123.55276,146.49827   L 123.55276,148.26331   L 125.3178,149.14583   L 126.20031,150.91087   L 127.08283,152.67591   L 128.84787,153.55843   L 128.84787,155.32346   L 130.61291,156.20598   L 131.49543,157.97102   L 132.37795,159.73606   L 134.14299,159.73606   L 134.14299,161.5011   L 135.90803,162.38362   L 136.79055,164.14866   L 137.67307,165.9137   L 139.43811,167.67874   L 140.32063,169.44378   L 142.08567,170.3263   L 142.96819,172.09134   L 143.85071,173.85638   L 145.61575,174.7389   L 145.61575,176.50394   L 147.38079,176.50394   L 147.38079,178.26898   L 149.14583,178.26898   L 149.14583,180.03402   L 150.02835,181.79906   L 151.79339,182.68157   L 152.67591,184.44661   L 153.55843,186.21165   L 155.32346,186.21165   L 155.32346,187.97669   L 156.20598,189.74173   L 157.97102,189.74173   L 157.97102,191.50677   L 159.73606,191.50677   L 159.73606,193.27181   L 160.61858,195.03685   L 162.38362,195.91937   L 163.26614,197.68441   L 164.14866,199.44945   L 165.9137,199.44945   L 165.9137,201.21449   L 166.79622,202.97953   L 168.56126,202.97953   L 168.56126,204.74457   L 170.3263,204.74457   L 170.3263,206.50961   L 171.20882,208.27465   L 172.97386,209.15717   L 173.85638,210.9222   L 174.7389,212.68724   L 176.50394,212.68724   L 176.50394,214.45228   L 178.26898,215.3348   L 179.1515,217.09984   L 180.03402,218.86488   L 181.79906,220.62992   L 183.56409,222.39496   L 184.44661,224.16   L 185.32913,225.92504   L 187.09417,225.92504   L 187.09417,227.69008   L 188.85921,228.5726   L 189.74173,230.33764   L 190.62425,232.10268   L 192.38929,232.9852   L 192.38929,234.75024   L 194.15433,235.63276   L 195.03685,237.3978   L 195.91937,239.16283   L 197.68441,239.16283   L 197.68441,240.92787   L 199.44945,241.81039   L 200.33197,243.57543   L 201.21449,245.34047   L 202.97953,247.10551   L 204.74457,248.87055   L 205.62709,250.63559   L 207.39213,252.40063   L 208.27465,254.16567   L 210.03969,255.04819   L 210.9222,256.81323   L 211.80472,258.57827   L 213.56976,259.46079   L 214.45228,261.22583   L 215.3348,262.99087   L 217.09984,262.99087   L 217.09984,264.75591   L 218.86488,265.63843   L 219.7474,267.40346   L 220.62992,269.1685   L 222.39496,270.93354   L 223.27748,272.69858   L 225.04252,273.5811   L 225.92504,275.34614   L 226.80756,277.11118   L 228.5726,277.9937   L 229.45512,279.75874   L 230.33764,281.52378   L 232.10268,281.52378   L 232.10268,283.28882   L 233.86772,284.17134   L 234.75024,285.93638   L 235.63276,287.70142   L 236.51528,289.46646   L 238.28031,289.46646   L 238.28031,291.2315   L 240.04535,292.11402   L 240.92787,293.87906   L 241.81039,295.64409   L 243.57543,296.52661   L 244.45795,298.29165   L 245.34047,300.05669   L 247.10551,300.93921   L 247.10551,302.70425   L 248.87055,302.70425   L 248.87055,304.46929   L 250.63559,305.35181   L 251.51811,307.11685   L 252.40063,308.88189   L 254.16567,309.76441   L 255.04819,311.52945   L 255.93071,313.29449   L 257.69575,314.17701   L 258.57827,315.94205   L 259.46079,317.70709   L 261.22583,317.70709   L 261.22583,319.47213   L 262.10835,321.23717   L 263.87339,321.23717   L 263.87339,323.0022   L 265.63843,323.88472   L 266.52094,325.64976   L 267.40346,327.4148   L 269.1685,328.29732   L 270.05102,330.06236   L 270.93354,331.8274   L 272.69858,332.70992   L 273.5811,334.47496   L 275.34614,336.24   L 276.22866,338.00504   L 277.11118,339.77008   L 278.87622,339.77008   L 278.87622,341.53512   L 280.64126,341.53512   L 280.64126,343.30016   L 281.52378,345.0652   L 283.28882,345.0652   L 283.28882,346.83024   L 285.05386,346.83024   L 285.05386,348.59528   L 285.93638,350.36031   L 287.70142,351.24283   L 288.58394,353.00787   L 290.34898,354.77291   L 291.2315,356.53795   L 292.99654,357.42047   L 293.87906,359.18551   L 294.76157,360.95055   L 296.52661,362.71559   L 298.29165,364.48063   L 299.17417,366.24567   L 300.05669,368.01071   L 301.82173,368.01071   L 301.82173,369.77575   L 303.58677,370.65827   L 304.46929,372.42331   L 305.35181,374.18835   L 307.11685,375.07087   L 307.99937,376.83591   L 308.88189,378.60094   L 310.64693,378.60094   L 310.64693,380.36598   L 312.41197,381.2485   L 313.29449,383.01354   L 314.17701,384.77858   L 315.05953,386.54362   L 316.82457,386.54362   L 316.82457,388.30866   L 318.58961,389.19118   L 319.47213,390.95622   L 320.35465,392.72126   L 322.11969,393.60378   L 323.0022,395.36882   L 323.88472,397.13386   L 325.64976,397.13386   L 325.64976,398.8989   L 327.4148,399.78142   L 327.4148,401.54646   L 329.17984,401.54646   L 329.17984,403.3115   L 330.06236,405.07654   L 331.8274,405.07654   L 331.8274,406.84157   L 333.59244,406.84157   L 333.59244,408.60661   L 334.47496,410.37165   L 336.24,410.37165   L 336.24,412.13669   L 338.00504,412.13669   L 338.00504,413.90173   L 338.88756,415.66677   L 340.6526,416.54929   L 341.53512,418.31433   L 342.41764,420.07937   L 344.18268,420.07937   L 344.18268,421.84441   L 345.94772,422.72693   L 346.83024,424.49197   L 347.71276,426.25701   L 349.4778,428.02205   L 351.24283,429.78709   L 352.12535,431.55213   L 353.89039,433.31717   L 355.65543,435.0822   L 356.53795,436.84724   L 357.42047,438.61228   L 359.18551,438.61228   L 359.18551,440.37732   L 360.95055,441.25984   L 361.83307,443.02488   L 362.71559,444.78992   L 364.48063,445.67244   L 365.36315,447.43748   L 366.24567,449.20252   L 368.01071,450.08504   L 368.89323,451.85008   L 370.65827,452.7326   L 371.54079,454.49764   L 373.30583,455.38016   L 374.18835,457.1452   L 375.95339,457.1452   L 376.83591,458.91024   L 378.60094,459.79276   L 380.36598,460.67528   L 381.2485,462.44031   L 383.01354,462.44031   L 384.77858,463.32283   L 386.54362,463.32283   L 386.54362,465.08787   L 388.30866,465.08787   L 390.0737,465.97039   L 391.83874,466.85291   L 393.60378,466.85291   L 395.36882,466.85291   L 397.13386,466.85291   L 397.13386,468.61795   L 398.8989,467.73543   L 400.66394,468.61795   L 402.42898,469.50047   L 404.19402,469.50047   L 405.95906,469.50047   L 407.72409,469.50047   L 409.48913,469.50047   L 411.25417,470.38299   L 413.01921,470.38299   L 414.78425,470.38299   L 416.54929,470.38299   L 418.31433,470.38299   L 420.07937,470.38299   L 421.84441,471.26551   L 423.60945,471.26551   L 425.37449,471.26551   L 427.13953,471.26551   L 428.90457,471.26551   L 430.66961,471.26551   L 432.43465,471.26551   L 434.19969,472.14803   L 435.96472,472.14803   L 437.72976,472.14803   L 439.4948,471.26551   L 441.25984,472.14803   L 443.02488,472.14803   L 444.78992,472.14803   L 446.55496,472.14803   L 448.32,472.14803   L 450.08504,471.26551   L 451.85008,472.14803   L 453.61512,472.14803   L 455.38016,472.14803   L 457.1452,472.14803   L 458.91024,472.14803   L 460.67528,472.14803   L 462.44031,472.14803   L 464.20535,472.14803   L 465.97039,472.14803   L 467.73543,472.14803   L 469.50047,472.14803   L 471.26551,472.14803   L 473.03055,472.14803   L 474.79559,472.14803   L 476.56063,472.14803   L 478.32567,472.14803   L 480.09071,472.14803   L 481.85575,472.14803   L 483.62079,472.14803   L 485.38583,472.14803   L 487.15087,472.14803   L 488.91591,473.03055   L 490.68094,472.14803   L 492.44598,472.14803   L 494.21102,472.14803   L 495.97606,472.14803   L 497.7411,472.14803   L 499.50614,472.14803   L 501.27118,472.14803   L 503.03622,472.14803   L 504.80126,472.14803   L 506.5663,472.14803   L 508.33134,472.14803   L 510.09638,473.03055   L 511.86142,472.14803   L 513.62646,472.14803   L 515.3915,472.14803   L 517.15654,472.14803   L 518.92157,472.14803   L 520.68661,473.03055   L 522.45165,472.14803   L 524.21669,472.14803   L 525.98173,472.14803   L 527.74677,472.14803   L 529.51181,472.14803   L 531.27685,473.03055   L 533.04189,473.03055   L 534.80693,472.14803   L 536.57197,472.14803   L 538.33701,472.14803   L 540.10205,472.14803   L 541.86709,473.03055   L 543.63213,473.03055   L 545.39717,472.14803   L 547.1622,472.14803   L 548.92724,472.14803   L 550.69228,472.14803   L 552.45732,473.03055   L 554.22236,473.03055   L 555.9874,472.14803   L 557.75244,472.14803   L 559.51748,472.14803   L 561.28252,472.14803   L 563.04756,472.14803   L 564.8126,472.14803   L 566.57764,472.14803   L 568.34268,472.14803   L 570.10772,472.14803   L 571.87276,472.14803   L 573.6378,472.14803   L 575.40283,473.03055   L 577.16787,472.14803   L 578.93291,472.14803   L 580.69795,472.14803   L 582.46299,472.14803   L 584.22803,472.14803   L 585.99307,473.03055   L 587.75811,472.14803   L 589.52315,472.14803   L 591.28819,472.14803   L 593.05323,472.14803   L 594.81827,472.14803   L 596.58331,473.03055   L 598.34835,473.03055   L 600.11339,472.14803   L 601.87843,472.14803   L 603.64346,472.14803   L 605.4085,472.14803   L 607.17354,473.03055   L 608.93858,473.03055   L 610.70362,472.14803   L 612.46866,472.14803   L 614.2337,472.14803   L 615.99874,472.14803   L 617.76378,473.03055   L 619.52882,473.03055   L 621.29386,472.14803   L 623.0589,472.14803   L 624.82394,472.14803   L 626.58898,472.14803   L 628.35402,472.14803   L 630.11906,473.03055   L 631.88409,472.14803   L 633.64913,472.14803   L 635.41417,472.14803   L 637.17921,472.14803   L 638.94425,472.14803   L 640.70929,472.14803   L 642.47433,472.14803   L 644.23937,472.14803   L 646.00441,472.14803   L 647.76945,472.14803   L 649.53449,472.14803   L 651.29953,473.03055   L 653.06457,472.14803   L 654.82961,472.14803   L 656.59465,472.14803   L 658.35969,472.14803   L 660.12472,472.14803   L 661.88976,473.03055   L 663.6548,472.14803   L 665.41984,472.14803   L 667.18488,472.14803   L 668.94992,472.14803   L 670.71496,472.14803   L 672.48,473.03055   L 674.24504,472.14803   L 676.01008,472.14803   L 677.77512,472.14803   L 679.54016,472.14803   L 681.3052,472.14803   L 683.07024,473.03055   L 684.83528,473.03055   L 686.60031,472.14803   L 688.36535,472.14803   L 690.13039,472.14803   L 691.89543,472.14803   L 693.66047,473.03055   L 695.42551,473.03055   L 697.19055,472.14803   L 698.95559,472.14803   L 700.72063,472.14803   L 702.48567,472.14803   L 704.25071,473.03055   L 706.01575,473.03055   L 707.78079,472.14803   L 709.54583,472.14803   L 711.31087,472.14803   L 713.07591,472.14803   L 714.84094,472.14803   L 716.60598,473.03055   L 718.37102,472.14803   L 720.13606,472.14803   L 721.9011,472.14803   L 723.66614,472.14803   L 725.43118,472.14803   L 727.19622,473.03055   L 728.96126,472.14803   L 730.7263,472.14803   L 732.49134,472.14803   L 734.25638,472.14803   L 736.02142,472.14803   L 737.78646,473.03055   L 739.5515,472.14803   L 741.31654,472.14803   L 743.08157,472.14803   L 744.84661,472.14803   L 746.61165,472.14803   L 748.37669,473.03055   L 750.14173,472.14803   L 751.90677,472.14803   L 753.67181,472.14803   L 755.43685,472.14803   L 757.20189,472.14803   L 758.96693,473.03055   L 760.73197,473.03055   L 762.49701,472.14803   L 764.26205,472.14803   L 766.02709,472.14803   L 767.79213,472.14803   L 769.55717,473.03055   L 771.3222,473.03055   L 773.08724,472.14803   L 774.85228,472.14803   L 776.61732,472.14803   L 778.38236,472.14803   L 780.1474,473.03055   L 781.91244,472.14803   L 783.67748,472.14803   L 785.44252,472.14803   L 787.20756,472.14803   L 788.9726,472.14803   L 790.73764,472.14803   L 792.50268,473.03055   L 794.26772,472.14803   L 796.03276,472.14803   L 797.7978,472.14803   L 799.56283,472.14803   L 801.32787,472.14803   L 803.09291,473.03055   L 804.85795,472.14803   L 806.62299,472.14803   L 808.38803,472.14803   L 810.15307,472.14803   L 811.91811,472.14803   L 813.68315,473.03055   L 815.44819,472.14803   L 817.21323,472.14803   L 818.97827,472.14803   L 820.74331,472.14803   L 822.50835,472.14803   L 824.27339,473.03055   L 826.03843,472.14803   L 827.80346,472.14803   L 829.5685,472.14803   L 831.33354,472.14803   L 831.33354,473.03055  "
     id="path149" />
  <text
     xml:space="preserve"
     style="font-style:normal;font-variant:normal;font-weight:700;font-size:15px;line-height:125%;font-family:Arial;text-align:start;letter-spacing:0px;word-spacing:0px;text-anchor:start;fill:#000000;fill-opacity:1;stroke:none"
     x="520.96393"
     y="460.86533"
     id="text155"><tspan
       sodipodi:role="line"
       x="520.96393"
       y="460.86533"
       id="tspan153"><tspan
         dx="0 0 0 0 0 0 0 0 0 0 0 0 0 0 0 0 0 0 0 0 0 0"
         dy="0 0 0 0 0 0 0 0 0 0 0 0 0 0 0 0 0 0 0 0 0 0"
         style="font-style:normal;font-variant:normal;font-weight:700;font-size:15px;font-family:Arial;fill:#000000"
         id="tspan151">$\bar{U}_{out} = \SI{5,9262}{V}$</tspan></tspan></text>
  <path
     style="fill:none;stroke:#666666;stroke-width:0.5;stroke-linecap:butt;stroke-linejoin:miter;stroke-miterlimit:4;stroke-dasharray:2, 2;stroke-dashoffset:0;stroke-opacity:1"
     d="m 831.44432,472.45852 -788.127184,0"
     id="path1158"
     sodipodi:nodetypes="cc" />
</svg>
